<svg xmlns="http://www.w3.org/2000/svg" width="50.443" height="57.808" viewBox="0 0 50.443 57.808">
  <g id="Group_489" data-name="Group 489" transform="translate(-694.818 -452.491)">
    <g id="Group_463" data-name="Group 463">
      <path id="Path_550" data-name="Path 550" d="M729.629,507.174l-.921-29.416c-5.186-1.8-10.256-1.612-16.282.224l-.226,29.192Z" fill="#dbcac2"/>
    </g>
    <path id="Path_551" data-name="Path 551" d="M702.933,495.182s-.377,4.052-.768,9.184a31.033,31.033,0,0,0,35.267.851c-.155-5.336-.329-9.609-.329-9.609l7.722-1.061s-1.746-8.742-4.138-10.923c-3.074-2.806-13.736-6.754-14.426-6.534-.095.031.3.043.639.261.629.407,1.622,1.13,1.567,1.38-1.415,6.436-5.844,24.753-8.474,24.766-3.128.015-6.207-18-7.37-24.909-.031-.188.993-.685,1.669-1.012.375-.182.649-.289.562-.315a80.416,80.416,0,0,0-11.457,4.353c-6.4,3.452-8.031,11.9-8.031,11.9S702.231,494.99,702.933,495.182Z" fill="#cc7a65"/>
    <g id="Group_464" data-name="Group 464">
      <path id="Path_552" data-name="Path 552" d="M715.1,474.958l-.079,3.69s1.425,1.578,5.941,1.453,4.963-1.205,4.963-1.205v-4.18Z" fill="#fc9c76"/>
    </g>
    <g id="Group_465" data-name="Group 465">
      <path id="Path_553" data-name="Path 553" d="M712.642,460.723s-.434,6.656-.415,11.46c.009,2.245,2.379,4.891,8.082,5.008,5.35.11,8.4-2.179,8.511-4.428.228-4.593.455-11.266-.2-12.725-.969-2.173-7.6-3.653-7.6-3.653S712.791,458.069,712.642,460.723Z" fill="#fc9c76"/>
    </g>
    <g id="Group_466" data-name="Group 466">
      <path id="Path_554" data-name="Path 554" d="M715.1,476.821a7.731,7.731,0,0,0-1.012,3.287c.117,1.262,6.171,2.594,6.311,2.571s6.312-2.024,6.639-2.929-1-3.032-1-3.032a8.1,8.1,0,0,1-5.3,2.291A8.6,8.6,0,0,1,715.1,476.821Z" fill="#dbcac2"/>
    </g>
    <g id="Group_467" data-name="Group 467">
      <path id="Path_555" data-name="Path 555" d="M724.782,469.644c-.264-.539-2.37-.2-3.044-.86a3.5,3.5,0,0,1-3.135.063c-.577.509-2.323.056-2.783.838-.329.558,1.762,1.838,4.483,1.838C723.107,471.523,725.1,470.3,724.782,469.644Z" fill="#f4f0ed"/>
    </g>
    <g id="Group_468" data-name="Group 468">
      <path id="Path_556" data-name="Path 556" d="M723.336,469.686a11.034,11.034,0,0,1-1.708-.817,3.578,3.578,0,0,1-2.9.083,18.5,18.5,0,0,0-2.92,1,1.1,1.1,0,0,0,.369.445c.564-.195,1.127-.393,1.691-.589a6.812,6.812,0,0,0-.969,1.026c.14.068.292.133.454.2a10.559,10.559,0,0,1,1.208-1.068,9.523,9.523,0,0,1,1.037-.633,5.8,5.8,0,0,0-1.195,2.016c.161.036.327.069.5.1a8.506,8.506,0,0,1,1.3-2.04,7.255,7.255,0,0,0-.4,2.139c.165.01.333.015.5.015h.039a22.659,22.659,0,0,1,.431-2.227,10.036,10.036,0,0,0,.472,2.18c.168-.016.331-.037.49-.062-.23-.736-.3-1.509-.5-2.25.468.689.949,1.372,1.432,2.051.187-.052.364-.109.531-.169-.241-.4-.5-.8-.777-1.175a10.039,10.039,0,0,0,1.853.636,1.66,1.66,0,0,0,.451-.439C724.258,469.971,723.791,469.848,723.336,469.686Z" fill="#e2dedc"/>
    </g>
    <g id="Group_469" data-name="Group 469">
      <path id="Path_557" data-name="Path 557" d="M720.168,503.5c-.188-7.1.473-24.547.471-24.547h-.516s-.629,17.351-.441,24.532Z" fill="#c6b3ab"/>
    </g>
    <g id="Group_470" data-name="Group 470">
      <path id="Path_558" data-name="Path 558" d="M719.956,469.727a2.545,2.545,0,0,1-1.924-.8,1.55,1.55,0,0,1-.426-1.207c.109-1.715,2.576-3.761,2.681-3.847l.329.4c-.024.019-2.4,1.989-2.493,3.48a1.037,1.037,0,0,0,.286.819c1.347,1.427,3.761-.028,3.785-.043l.272.441A5.416,5.416,0,0,1,719.956,469.727Z" fill="#ed675c"/>
    </g>
    <g id="Group_471" data-name="Group 471">
      <path id="Path_559" data-name="Path 559" d="M720.365,472.392a9.78,9.78,0,0,1-3.308-.573l.19-.482a8.9,8.9,0,0,0,6.115-.058l.207.474A7.98,7.98,0,0,1,720.365,472.392Z" fill="#ed675c"/>
    </g>
    <g id="Group_472" data-name="Group 472">
      <path id="Path_560" data-name="Path 560" d="M720.255,473.542c-.462,0-.906-.044-.934-.047l.051-.515a7.191,7.191,0,0,0,1.482,0l.1.509A4,4,0,0,1,720.255,473.542Z" fill="#ed675c"/>
    </g>
    <g id="Group_473" data-name="Group 473">
      <path id="Path_561" data-name="Path 561" d="M716.621,466.255c-.37-.194-.8-.159-1.165-.36-.27-.149-.6.294-.33.545a1.4,1.4,0,0,0,.629.328,2.874,2.874,0,0,0,.733.147C716.765,466.917,716.89,466.4,716.621,466.255Z" fill="#ffae92"/>
    </g>
    <g id="Group_474" data-name="Group 474">
      <path id="Path_562" data-name="Path 562" d="M725.608,465.968a3.317,3.317,0,0,0-1.389.4c-.347.151-.192.783.166.671.218-.068.439-.128.659-.185a3.42,3.42,0,0,0,.658-.176C726.017,466.531,725.949,465.989,725.608,465.968Z" fill="#ffae92"/>
    </g>
    <g id="Group_475" data-name="Group 475">
      <path id="Path_563" data-name="Path 563" d="M720.468,474.1a5.738,5.738,0,0,0-.945.045c-.382.041-.373.639.015.6.315-.03.631-.047.944-.093A.278.278,0,0,0,720.468,474.1Z" fill="#ffae92"/>
    </g>
    <g id="Group_476" data-name="Group 476">
      <ellipse id="Ellipse_111" data-name="Ellipse 111" cx="1.894" cy="2.2" rx="1.894" ry="2.2" transform="translate(709.547 464.857)" fill="#fc9c76"/>
    </g>
    <g id="Group_477" data-name="Group 477">
      <ellipse id="Ellipse_112" data-name="Ellipse 112" cx="1.894" cy="2.2" rx="1.894" ry="2.2" transform="translate(728.317 464.857)" fill="#fc9c76"/>
    </g>
    <g id="Group_478" data-name="Group 478">
      <path id="Path_564" data-name="Path 564" d="M711.5,468.451a20.224,20.224,0,0,0-.312-2.766l.509-.1a20.447,20.447,0,0,1,.321,2.853Z" fill="#ed675c"/>
    </g>
    <g id="Group_479" data-name="Group 479">
      <rect id="Rectangle_34" data-name="Rectangle 34" width="0.518" height="1.297" transform="translate(710.484 466.842) rotate(-63.288)" fill="#ed675c"/>
    </g>
    <g id="Group_480" data-name="Group 480">
      <path id="Path_565" data-name="Path 565" d="M729.936,468.451l-.518-.008a20.219,20.219,0,0,1,.322-2.853l.509.1A20.32,20.32,0,0,0,729.936,468.451Z" fill="#ed675c"/>
    </g>
    <g id="Group_481" data-name="Group 481">
      <rect id="Rectangle_35" data-name="Rectangle 35" width="1.297" height="0.518" transform="translate(729.561 466.963) rotate(-26.722)" fill="#ed675c"/>
    </g>
    <g id="Group_482" data-name="Group 482">
      <path id="Path_566" data-name="Path 566" d="M717.538,462.628a7.216,7.216,0,0,0-2.416.266.409.409,0,0,0,.129.8c.77-.054,1.538-.171,2.308-.238A.412.412,0,0,0,717.538,462.628Z" fill="#f4f0ed"/>
    </g>
    <g id="Group_483" data-name="Group 483">
      <path id="Path_567" data-name="Path 567" d="M725.894,462.858a10.068,10.068,0,0,0-2.843-.259.406.406,0,0,0,.021.812c.883.033,1.749.124,2.625.241C726.206,463.721,726.417,462.986,725.894,462.858Z" fill="#f4f0ed"/>
    </g>
    <g id="Group_484" data-name="Group 484">
      <path id="Path_568" data-name="Path 568" d="M712.144,465.014s.133,2.413.411,2.472a.742.742,0,0,0,.517-.1s.457-6.991.536-7.23,2.551-2.542,7.294-2.741,6.987,2.781,7.027,2.94-.02,7.428.218,7.567a1.319,1.319,0,0,0,.755,0l.457-2.831-.119-5.55s-1.573-4.306-8.184-4.188-8.9,3.614-8.829,3.937S712.144,465.014,712.144,465.014Z" fill="#f4f0ed"/>
    </g>
    <g id="Group_485" data-name="Group 485">
      <path id="Path_569" data-name="Path 569" d="M712.144,465.014a1.667,1.667,0,0,1-1.352-1.175,2.259,2.259,0,0,1,.676-2.014s-1.574-5.418,4.318-8.239,8.647.7,8.647.7a3.014,3.014,0,0,1,3.281-.029,2.4,2.4,0,0,1,1.338,2.532,3.5,3.5,0,0,1,2,2.734,3.382,3.382,0,0,1-1.216,3.4,1.437,1.437,0,0,1,.375,1.094c-.109.575-1,1.175-1,1.175l-1.01-1.5a10.541,10.541,0,0,1-1.381-2.557,11.19,11.19,0,0,1-.49-1.756s-.78.979-4.174.95-4.125-.575-4.125-.575a5.864,5.864,0,0,1-4.564,2.5Z" fill="#f4f0ed"/>
    </g>
    <g id="Group_486" data-name="Group 486">
      <path id="Path_570" data-name="Path 570" d="M716.62,465.6a.649.649,0,0,0,.366-.58.664.664,0,0,0-1.328,0,.646.646,0,0,0,.152.411C716.081,465.489,716.35,465.549,716.62,465.6Z" fill="#49263e"/>
    </g>
    <g id="Group_487" data-name="Group 487">
      <path id="Path_571" data-name="Path 571" d="M724.175,465.647c.33-.054.661-.1.992-.147a.635.635,0,0,0,.1-.347.664.664,0,0,0-1.328,0A.643.643,0,0,0,724.175,465.647Z" fill="#49263e"/>
    </g>
    <path id="Path_572" data-name="Path 572" d="M695.366,493.512c-.062.122-.279,1.42-.548,3.3a31.227,31.227,0,0,0,9.029,8.7c.016-2.606,1.719-11.709.866-12.689C703.766,491.731,695.366,493.512,695.366,493.512Z" fill="#cc7a65"/>
    <path id="Path_573" data-name="Path 573" d="M744.658,493.643s-8.709-1.912-9.657-.822,1.261,12.21.8,13.3a.862.862,0,0,1-.093.152,31.191,31.191,0,0,0,9.55-8.413C744.977,495.495,744.73,493.784,744.658,493.643Z" fill="#cc7a65"/>
    <path id="Path_574" data-name="Path 574" d="M725.926,476.134a16.346,16.346,0,0,1-5.586,1.019,16.126,16.126,0,0,1-5.3-1.06v.552a16.475,16.475,0,0,0,5.348,1.026h.058a17.035,17.035,0,0,0,5.48-.985Z" fill="#ed675c"/>
    <g id="Group_488" data-name="Group 488">
      <path id="Path_575" data-name="Path 575" d="M726.767,477.242l-.506-.185c.009.031.871,3.214-.477,4.135-.926.633-3.187-1.187-4.4-2.264a6.943,6.943,0,0,1-.747.049c.941.886,3.188,2.859,4.681,2.858a1.3,1.3,0,0,0,.756-.216C727.73,480.49,726.808,477.386,726.767,477.242Z" fill="#c6b3ab"/>
      <path id="Path_576" data-name="Path 576" d="M719.252,478.856c-.7.42-1.7,1.02-2.562,1.432-1.866.892-2.132.573-2.157.534-.5-.818.016-2.8.351-3.6l-.489.286c-.134.32-1.037,2.4-.3,3.59.486.789,2.277.1,5.947-2.135A5.212,5.212,0,0,1,719.252,478.856Z" fill="#c6b3ab"/>
    </g>
    <path id="Path_577" data-name="Path 577" d="M719.67,503.434c-.049,1.366-.138,3.882-.229,6.849.171.005.342.008.514.011.073-2.359.152-4.685.231-6.832a.635.635,0,0,1-.193.035A.884.884,0,0,1,719.67,503.434Z" fill="#ba6d5d"/>
    <path id="Path_578" data-name="Path 578" d="M736.062,506.068l-.406-14.154-.518.015.4,14.087-.74.75Q735.441,506.432,736.062,506.068Z" fill="#ba6d5d"/>
    <path id="Path_579" data-name="Path 579" d="M704.546,493.381c-.452,4.49-.886,9.123-.986,11.944.167.109.335.215.505.32.1-3.3.722-9.485,1-12.212.073-.726.126-1.25.146-1.49l-.516-.043C704.671,492.135,704.619,492.657,704.546,493.381Z" fill="#ba6d5d"/>
    <path id="Path_580" data-name="Path 580" d="M715.257,457.8c-.2-.194-.473.106-.3.311a7.847,7.847,0,0,0,2.77,2.031,4.327,4.327,0,0,0,.3-.393,1.953,1.953,0,0,0,.58.224A10.463,10.463,0,0,1,715.257,457.8Z" fill="#e2dedc"/>
    <path id="Path_581" data-name="Path 581" d="M728.183,457.775c.044-.214-.278-.366-.374-.146a5.288,5.288,0,0,1-2.048,2.131,1.7,1.7,0,0,0,.571-.382,4.751,4.751,0,0,0,.116.521A3.758,3.758,0,0,0,728.183,457.775Z" fill="#e2dedc"/>
    <path id="Path_582" data-name="Path 582" d="M725.081,454.949c.162.209.5.015.358-.223a4,4,0,0,0-.543-.689,2.813,2.813,0,0,0-.413.215A8.334,8.334,0,0,1,725.081,454.949Z" fill="#fffbf8"/>
    <path id="Path_583" data-name="Path 583" d="M712.535,462.611a3.382,3.382,0,0,0,.859.076l.023-.323.052-.108h.03c-.308-.015-.612-.021-.919-.053C712.347,462.179,712.31,462.564,712.535,462.611Z" fill="#e2dedc"/>
    <path id="Path_584" data-name="Path 584" d="M728.413,463.4c-.123-.04-.254-.056-.379-.092-.042-.011-.083-.025-.124-.037l.046.069c0,.148,0,.3,0,.448a1.072,1.072,0,0,0,.406.043A.22.22,0,0,0,728.413,463.4Z" fill="#e2dedc"/>
    <path id="Path_585" data-name="Path 585" d="M720.768,466.768a4.742,4.742,0,0,0-1.19.057c-.273.04-.273.471.011.438.4-.045.792-.043,1.19-.055C721.071,467.2,721.041,466.8,720.768,466.768Z" fill="#ffae92"/>
  </g>
</svg>
