<svg xmlns="http://www.w3.org/2000/svg" width="46.873" height="59.192" viewBox="0 0 46.873 59.192">
  <g id="Group_72" data-name="Group 72" transform="translate(-696.013 -526.452)">
    <path id="Path_144" data-name="Path 144" d="M705.585,570.554l-8.023-1.042s-.036,2.868-.09,5.994a31.148,31.148,0,0,0,8.239,6.44Z" fill="#ffa28d"/>
    <g id="Group_53" data-name="Group 53">
      <path id="Path_145" data-name="Path 145" d="M714.454,549.232l-.278,5.27,3.938,2.057,7.59-1.385-.53-6.409Z" fill="#ffa28d"/>
    </g>
    <g id="Group_55" data-name="Group 55">
      <g id="Group_54" data-name="Group 54">
        <path id="Path_146" data-name="Path 146" d="M720.722,554a38.074,38.074,0,0,0-9.991.735l-.449,13.52,18.509-.031.418-13.056A43.383,43.383,0,0,0,720.722,554Z" fill="#ffa28d"/>
      </g>
    </g>
    <path id="Path_147" data-name="Path 147" d="M704.076,575.024s-.107,2.444-.207,5.844a31.062,31.062,0,0,0,30.715,1.358c-.08-3.1-.159-5.3-.159-5.3l8.461-2.35c-.032-20.511-15.817-20.35-15.817-20.35a2.117,2.117,0,0,0-1.542-1.732s-5.3,3.943-8.936,3.49c-1.073-.133-2.359-3.551-2.359-3.551a1.974,1.974,0,0,0-1.242,1.813c-6.86.408-12.649,1.99-16.977,16.868C696.013,571.115,703.495,574.653,704.076,575.024Z" fill="#f4f0ed"/>
    <path id="Path_148" data-name="Path 148" d="M716.4,556.11a14.674,14.674,0,0,1-2.24,2.631,1.729,1.729,0,0,0,.818,1.035,8.6,8.6,0,0,0,2.756.1c.167-.031.354-.311.6-.745-.248-.216-.355-.672-.585-.908-.459-.47-.6-1.529-.947-2.055-.022,0-.14.021-.16.021C716.5,556.2,716.658,556.249,716.4,556.11Z" fill="#80c7a7"/>
    <path id="Path_149" data-name="Path 149" d="M712.358,570.087c-.686,4.045-1.338,9.351-1.822,13.951a30.93,30.93,0,0,0,8.606,1.578c-.48-6.88-1.285-15.4-1.331-16.037-.239-3.254-.675-10-.675-10l-1.986-.072S712.872,567.06,712.358,570.087Z" fill="#80c7a7"/>
    <g id="Group_56" data-name="Group 56">
      <path id="Path_150" data-name="Path 150" d="M711.554,569.867l-6.241-.516.01-.389,6.242.516Z" fill="#e2dedc"/>
    </g>
    <g id="Group_57" data-name="Group 57">
      <path id="Path_151" data-name="Path 151" d="M720.357,570.067l-.02-.39,8.311-.125.02.39Z" fill="#e2dedc"/>
    </g>
    <g id="Group_58" data-name="Group 58">
      <path id="Path_152" data-name="Path 152" d="M731.721,575.939a2.724,2.724,0,0,1-.811-.066c-.141-.071-.227-.084-.525-4.855-.145-2.335-.267-4.737-.267-4.737h.194l.194-.031c.009.5.45,8.381.639,9.3.269.03,1.2,0,2.029-.044l.021.384C732.708,575.918,732.161,575.938,731.721,575.939Z" fill="#e2dedc"/>
    </g>
    <g id="Group_59" data-name="Group 59">
      <path id="Path_153" data-name="Path 153" d="M732.667,575.306h0Z" fill="#ffa28d"/>
      <path id="Path_154" data-name="Path 154" d="M742.3,576.611a7.2,7.2,0,0,0-.4-2.406c-1.12-.345-8.951,1.051-9.226,1.1.11.07.508,3.756.78,7.471A31.084,31.084,0,0,0,742.3,576.611Z" fill="#ffa28d"/>
    </g>
    <path id="Path_155" data-name="Path 155" d="M727.069,554.227c0-.017,0-.034-.007-.051-1.252,2.729-5.8,6.122-7.384,5.821-1.276-.243-2.339-2.9-2.692-3.98-.133-.006-.265-.016-.4-.032a.713.713,0,0,1-.23-.076,18.418,18.418,0,0,1-1.13,1.51c-.954,1.142-1.427,1.368-1.554,1.321-.038-.013-.374-.194-.622-2.375-.1-.864-.144-1.693-.163-2.112-.13.008-.26.017-.389.027.041,1.054.239,4.541,1.041,4.832.3.109.7-.1,1.263-.654a14.731,14.731,0,0,0,1.392-1.645c.2-.269.343-.471.445-.624.375,1.129,1.456,3.9,2.962,4.189a1.5,1.5,0,0,0,.283.025c1.093,0,2.754-1,4.014-2a12.159,12.159,0,0,0,3.547-4.14C727.205,554.234,727.069,554.227,727.069,554.227Z" fill="#e2dedc"/>
    <path id="Path_156" data-name="Path 156" d="M704.194,565.662l-.557,9.126c.168.085.3.153.377.2l.568-9.3Z" fill="#e2dedc"/>
    <path id="Path_157" data-name="Path 157" d="M696.865,568.4c1.331.56,4.722,2.073,7.1,3.143l.16-.354c-1.433-.646-5.549-2.5-7.13-3.155Z" fill="#e2dedc"/>
    <path id="Path_158" data-name="Path 158" d="M742.665,570.631a60.623,60.623,0,0,0-11.922,1.3l.088.378a60.315,60.315,0,0,1,11.878-1.29C742.7,570.887,742.679,570.76,742.665,570.631Z" fill="#e2dedc"/>
    <path id="Path_159" data-name="Path 159" d="M730.861,533.145a.722.722,0,0,0-.549.174,2.086,2.086,0,0,0-.559.62,2.717,2.717,0,0,0-.207-2.948c-.637-.574-1.275-.085-1.638.473a7.071,7.071,0,0,0-2.58-3.7,5,5,0,0,0-4.529-.953,4.418,4.418,0,0,1-1.836-.049c-.608-.1-1.244-.189-1.839-.255a3.691,3.691,0,0,0-2.36.29,3.5,3.5,0,0,0-1.324,1.566,3.693,3.693,0,0,1-.632,1.374c-.368.35-.93.468-1.33.786a4.222,4.222,0,0,0-.948,1.043,2.751,2.751,0,0,0-.239,2.658,1.828,1.828,0,0,1,.321.963c-.021.155-.1-.392-.167-.253-.975,1.917-.969,4.2.984,5.466l15.862,2.422c.349.053,1.231-.838,1.455-1.031,1.443-1.243,2.868-2.967,2.124-4.99a4.876,4.876,0,0,1-.394-1.148c-.088-.852.553-.829.756-1.61C731.316,533.725,731.255,533.226,730.861,533.145Z" fill="#f76054"/>
    <path id="Path_160" data-name="Path 160" d="M730.861,533.145a.722.722,0,0,0-.549.174,2.086,2.086,0,0,0-.559.62,2.8,2.8,0,0,0,.326-1.186,1.848,1.848,0,0,1-.155.185,1.667,1.667,0,0,1-1.2.506.761.761,0,0,1-.5-.189,1.42,1.42,0,0,1-.559.3,1.116,1.116,0,0,1-1.186-.479,1.131,1.131,0,0,1-.141-.471,2.556,2.556,0,0,1-1.981-.471,10.48,10.48,0,0,1-1.964-.02,3.3,3.3,0,0,1-1.154-.272c-.238-.113-.482-.34-.754-.318-.6.047-1.125.508-1.716.619a5.553,5.553,0,0,1-1.877.014,2.235,2.235,0,0,1-.956-.334c-.219-.153-.309-.382-.49-.557a1.5,1.5,0,0,0-.482-.2c-.117-.04-.234-.075-.352-.11a.44.44,0,0,0-.113-.014c-.146.1-.327.346-.474.467a8.387,8.387,0,0,1-.769.574,2.369,2.369,0,0,1-1.673.424,1.916,1.916,0,0,1-1.183-.613,2.7,2.7,0,0,0-.11,2.431c.147.311.225.571.154.71-.975,1.917-.969,4.2.984,5.466l15.862,2.422c.349.053,1.231-.838,1.455-1.031,1.443-1.243,2.868-2.967,2.124-4.99a4.876,4.876,0,0,1-.394-1.148c-.088-.852.553-.829.756-1.61C731.316,533.725,731.255,533.226,730.861,533.145Z" fill="#ea5c54"/>
    <path id="Path_161" data-name="Path 161" d="M710.784,539.924c-.844.108-1.455,1.231-1.366,2.509s.845,2.224,1.688,2.115,1.455-1.232,1.366-2.509S711.627,539.815,710.784,539.924Z" fill="#ffa28d"/>
    <path id="Path_162" data-name="Path 162" d="M726.718,533.981c-.6.164-1.182-.3-1.725-.614a3.163,3.163,0,0,0-1.376-.408c-.626-.021-1.246.071-1.874.015a3.542,3.542,0,0,1-.861-.157,2.511,2.511,0,0,0-.713-.212c-.476-.019-.979.1-1.458.131a3.887,3.887,0,0,1-2.2-.3c-2.208.861-3.116,1.721-3.431,2.679-.058.177-4.078,10.986,1,15.023s12.4,2.039,13.858-5.743C728.892,539.3,728.722,536.18,726.718,533.981Z" fill="#ffa28d"/>
    <path id="Path_163" data-name="Path 163" d="M729.828,540.4c-.934-.115-1.971.867-2.318,2.192s.13,2.493,1.063,2.608,1.971-.868,2.318-2.193S730.761,540.512,729.828,540.4Z" fill="#ffa28d"/>
    <path id="Path_164" data-name="Path 164" d="M716.4,545.366c-.851.53-.078,2.563,2.862,2.591s4.275-2.1,3.4-2.7c-1.074-.734-1.527.781-3.247.782C717.652,546.039,717.056,544.959,716.4,545.366Z" fill="#49263e"/>
    <path id="Path_165" data-name="Path 165" d="M719.263,547.957a4.963,4.963,0,0,0,2.078-.4,1.505,1.505,0,0,0-.187-.125,1.772,1.772,0,0,0-1.168-.159c-.25.04-.5.094-.744.154a.2.2,0,0,1-.127,0,.254.254,0,0,1-.063-.051,1.068,1.068,0,0,0-.788-.277,2.843,2.843,0,0,0-.834.189.5.5,0,0,0-.06.023c-.031.015-.142.077-.244.141A4.364,4.364,0,0,0,719.263,547.957Z" fill="#8b3b5a"/>
    <path id="Path_166" data-name="Path 166" d="M719.411,546.037a7.6,7.6,0,0,1-2.608-.756c-.087,1.161.43,1.746,2.546,1.746,2.021,0,2.716-.567,2.716-1.971C721.348,545.075,720.781,546.036,719.411,546.037Z" fill="#fff"/>
    <path id="Path_167" data-name="Path 167" d="M719.411,546.037a7.6,7.6,0,0,1-2.608-.756,1.611,1.611,0,0,0,.205,1.055,1.187,1.187,0,0,1,1.277-.257,1.576,1.576,0,0,0,1.109.2,5.846,5.846,0,0,0,.575-.189,1.973,1.973,0,0,1,1.1-.208.459.459,0,0,1,.259.772,1.661,1.661,0,0,0,.739-1.6C721.348,545.075,720.782,546.036,719.411,546.037Z" fill="#b5a896" opacity="0.33"/>
    <g id="Group_60" data-name="Group 60">
      <path id="Path_168" data-name="Path 168" d="M710.507,540.634l-.013.332a.739.739,0,0,1,.492.286,2.329,2.329,0,0,1,.241,1.772l.329.05a2.567,2.567,0,0,0-.32-2.042A1.063,1.063,0,0,0,710.507,540.634Z" fill="#ec685d"/>
    </g>
    <g id="Group_61" data-name="Group 61">
      <path id="Path_169" data-name="Path 169" d="M710.473,541.656l.056.328c.007,0,.661-.109.758.3l.324-.078C711.475,541.638,710.807,541.6,710.473,541.656Z" fill="#ec685d"/>
    </g>
    <g id="Group_62" data-name="Group 62">
      <path id="Path_170" data-name="Path 170" d="M730.154,541.441l.014.166-.014-.166Z" fill="#ff451d"/>
      <path id="Path_171" data-name="Path 171" d="M730.154,541.441l.014.165-.014-.166Z" fill="#ff451d"/>
      <path id="Path_172" data-name="Path 172" d="M730.154,541.441h0Z" fill="#ff451d"/>
      <path id="Path_173" data-name="Path 173" d="M730.154,541.442l.014.165-.014-.165Z" fill="#ff451d"/>
      <path id="Path_174" data-name="Path 174" d="M730.008,541.441h0l.059-.166c-.059.005-1.4.146-1.644,2.421l.349.035c.21-1.986,1.34-2.119,1.387-2.124l-.006-.165-.061.165Z" fill="#ec685d"/>
    </g>
    <g id="Group_63" data-name="Group 63">
      <path id="Path_175" data-name="Path 175" d="M728.666,542.726l.3.143c.221-.467.942-.293.949-.291l.082-.323C729.958,542.245,729,542.012,728.666,542.726Z" fill="#ec685d"/>
    </g>
    <path id="Path_176" data-name="Path 176" d="M727.493,533.905a2.494,2.494,0,0,1-.647-.249,1.813,1.813,0,0,1-1.929-.663,1.6,1.6,0,0,1-1.005-.341c-.117-.1-.211-.324-.336-.375a.948.948,0,0,0-.551.07,4.63,4.63,0,0,1-1.386.307,1.181,1.181,0,0,1-.769-.246.455.455,0,0,1-.068-.055l-.01,0a1.137,1.137,0,0,1-.417-.055,2.271,2.271,0,0,1-.787-.253l-.011-.007-.065.034a3.489,3.489,0,0,1-3.778-.507c-4.606,2.767-4.317,8.6-4.317,8.6l.3,1.615h.163a26.413,26.413,0,0,1,1.058-4.351,2.314,2.314,0,0,0,1.248-1.766,5.894,5.894,0,0,1,1.081-2.319s2.205-.054,4.776-.028c2.673.028,5.1.215,5.1.215s.447,3.014,1.252,3.4a3.282,3.282,0,0,1,1,.623s-.381,4.855.226,4.681.877-1.327.877-1.327A11.107,11.107,0,0,0,727.493,533.905Z" fill="#ea5c54"/>
    <g id="Group_64" data-name="Group 64">
      <path id="Path_177" data-name="Path 177" d="M718.757,548.765l-.11.314a1.763,1.763,0,0,0,.54.074,2.423,2.423,0,0,0,.57-.069l-.078-.324A1.81,1.81,0,0,1,718.757,548.765Z" fill="#ec685d"/>
    </g>
    <path id="Path_178" data-name="Path 178" d="M715.949,541.516a.862.862,0,0,0,.2-.554.743.743,0,1,0-1.479,0,.873.873,0,0,0,.087.384C715.153,541.4,715.551,541.456,715.949,541.516Z" fill="#49263e"/>
    <path id="Path_179" data-name="Path 179" d="M722.87,541.678c.376-.074.739-.193,1.119-.246a.848.848,0,0,0,.087-.375.742.742,0,1,0-1.479,0A.829.829,0,0,0,722.87,541.678Z" fill="#49263e"/>
    <g id="Group_65" data-name="Group 65" opacity="0.11">
      <path id="Path_180" data-name="Path 180" d="M727.247,529.908a1.626,1.626,0,0,1-1.894.392c-.4-.179-.636-.541-.99-.779a2.241,2.241,0,0,0-1-.352,2.613,2.613,0,0,0-1.162.1c-.3.1-.577.444-.869.449-.318.005-.729-.311-1.079-.357a3.65,3.65,0,0,0-1.169.082c-.938.183-1.885.574-2.642-.224a2.486,2.486,0,0,0-1.852-.922,4.619,4.619,0,0,0-1.155.092c-.123.3-.193.63-.33.925a3.59,3.59,0,0,1,.721-.182,3,3,0,0,1,1.28.045c.49.153.706.606,1.082.911a2.4,2.4,0,0,0,1.946.362c.476-.079.936-.244,1.415-.306a2.623,2.623,0,0,1,1.446.341c.765.307,1.213-.54,1.956-.569,1.022-.041,1.425.865,2.31,1.168a2.491,2.491,0,0,0,2.372-.422A6.426,6.426,0,0,0,727.247,529.908Z" fill="#fff"/>
    </g>
    <g id="Group_66" data-name="Group 66">
      <path id="Path_181" data-name="Path 181" d="M715.466,543.5l-.092,0a2.54,2.54,0,0,1-2.477-2.595c.04-1.174,1.05-1.784,2.84-1.724,1.009.035,2.344.27,2.288,1.9h0A2.539,2.539,0,0,1,715.466,543.5Zm.008-3.913c-1.406,0-2.134.447-2.164,1.33a2.153,2.153,0,0,0,4.3.149c.034-1.013-.495-1.426-1.889-1.474C715.638,539.592,715.555,539.59,715.474,539.59Z" fill="#75434c"/>
    </g>
    <g id="Group_67" data-name="Group 67">
      <path id="Path_182" data-name="Path 182" d="M723.182,543.5l-.092,0a2.54,2.54,0,0,1-2.477-2.595c.04-1.174,1.049-1.784,2.84-1.724,1.009.035,2.344.27,2.288,1.9h0A2.539,2.539,0,0,1,723.182,543.5Zm.008-3.913c-1.406,0-2.134.447-2.164,1.33a2.153,2.153,0,0,0,4.3.149c.035-1.013-.495-1.426-1.889-1.474C723.354,539.592,723.271,539.59,723.19,539.59Z" fill="#75434c"/>
    </g>
    <g id="Group_68" data-name="Group 68">
      <path id="Path_183" data-name="Path 183" d="M717.288,543.372c-.143-.759,1.313-2.017,1.886-2.438l-.2-.268c-.229.167-2.223,1.667-2.016,2.768.116.614,1.009.768,1.872.768a10.7,10.7,0,0,0,1.657-.147l-.057-.328C719.281,543.925,717.408,544,717.288,543.372Z" fill="#ec685d"/>
    </g>
    <g id="Group_69" data-name="Group 69">
      <path id="Path_184" data-name="Path 184" d="M718,541.062l-.366-.191a1.761,1.761,0,0,1,1.655-.759,1.981,1.981,0,0,1,1.7.687l-.345.227a1.61,1.61,0,0,0-1.356-.5C718.307,540.525,718.014,541.04,718,541.062Z" fill="#75434c"/>
    </g>
    <g id="Group_70" data-name="Group 70">
      <path id="Path_185" data-name="Path 185" d="M711.662,540.633l-.1-.4c.529-.134.586-.124.628-.117.057.006.667.037,1.036.054l-.02.413c-.6-.028-.96-.048-1.061-.057C712.082,540.532,711.85,540.585,711.662,540.633Z" fill="#75434c"/>
    </g>
    <g id="Group_71" data-name="Group 71">
      <path id="Path_186" data-name="Path 186" d="M728.64,540.908l-2.241-.257h-1.153v-.488l1.093,0,2.3.315Z" fill="#75434c"/>
    </g>
    <path id="Path_187" data-name="Path 187" d="M720.376,552.178a8.98,8.98,0,0,0,4.922-1.915l-.036-.434a9.539,9.539,0,0,1-9.528,1.261l-.162.321A10.406,10.406,0,0,0,720.376,552.178Z" fill="#e8685d"/>
    <path id="Path_188" data-name="Path 188" d="M717.378,537.858a6.518,6.518,0,0,0-2.586.128c-.445.1-.235.765.2.675a9.1,9.1,0,0,1,2.307-.118A.349.349,0,0,0,717.378,537.858Z" fill="#ea5c54"/>
    <path id="Path_189" data-name="Path 189" d="M724.45,537.849a7.587,7.587,0,0,0-3.217.074.333.333,0,0,0,.105.649,22.773,22.773,0,0,1,3.036-.026C724.771,538.57,724.839,537.925,724.45,537.849Z" fill="#ea5c54"/>
  </g>
</svg>
