<svg xmlns="http://www.w3.org/2000/svg" width="35.347" height="58.826" viewBox="0 0 35.347 58.826">
  <g id="Group_571" data-name="Group 571" transform="translate(-777.588 -602.789)">
    <path id="Path_658" data-name="Path 658" d="M780.4,636.2l-.114,15.16s-.473,2.611-1.088,6.018a30.8,30.8,0,0,0,4.824,2.29c.863-10.254,1.652-20.208,1.479-20.38C785.14,638.938,780.4,636.2,780.4,636.2Z" fill="#fe9e76"/>
    <g id="Group_552" data-name="Group 552">
      <path id="Path_659" data-name="Path 659" d="M784.517,631.989s-1.087-19.125,2.454-24.205a11.988,11.988,0,0,1,10.789-4.908,10.19,10.19,0,0,1,7.444,7.31c1.227,4.2-.451,24.338-.451,24.338Z" fill="#75434c"/>
    </g>
    <g id="Group_553" data-name="Group 553">
      <path id="Path_660" data-name="Path 660" d="M778.908,655.211c.608.4,3.974,1.846,4.528,1.539s2.785-7.508,2.839-8-.993-10.3-1.239-10.656-5.8-1.89-5.8-1.89l.791,10.884s-2.5,6.954-2.442,7.2S778.908,655.211,778.908,655.211Z" fill="#cbe8f0"/>
    </g>
    <g id="Group_554" data-name="Group 554">
      <path id="Path_661" data-name="Path 661" d="M787.98,620.8c0,.014,0,.075-.008.178-.092,1.29-.885,9.054.253,9.519,1.229.5,13.037.185,13.037.185s.552-8.727,0-9.31S787.98,620.8,787.98,620.8Z" fill="#633841"/>
    </g>
    <g id="Group_556" data-name="Group 556">
      <g id="Group_555" data-name="Group 555">
        <path id="Path_662" data-name="Path 662" d="M798.44,621.338l-7.2.03a11.575,11.575,0,0,1-.153,6.212c-.153.465-1.637,1.278-1.928,1.607l5.892,2.723,5.329-2.342C797.684,628.319,798.44,621.338,798.44,621.338Z" fill="#fe9e76"/>
      </g>
    </g>
    <g id="Group_557" data-name="Group 557">
      <path id="Path_663" data-name="Path 663" d="M802.826,609.539c-.72-1.606-4.482-4.519-7.227-4.72s-7.122,1.406-7.823,4.715a55.381,55.381,0,0,0-.564,7.6,9.085,9.085,0,0,0,.878,4.594,8.184,8.184,0,0,0,8.928,3.775,7.632,7.632,0,0,0,2.931-1.578,7.242,7.242,0,0,0,2.424-4.313c.23-1.347.37-2.713.483-4.077.122-1.478.208-2.962.214-4.448a2.31,2.31,0,0,0-.21-1.469A.849.849,0,0,0,802.826,609.539Z" fill="#fe9e76"/>
    </g>
    <g id="Group_558" data-name="Group 558">
      <path id="Path_664" data-name="Path 664" d="M791.583,624.887c-.007.159-.019.32-.034.485a9.732,9.732,0,0,0,3.816.852,8.028,8.028,0,0,0,3.083-.69c-.006-.177-.051-.386-.052-.563C795.929,626.315,792.639,625.354,791.583,624.887Z" fill="#ee685d"/>
    </g>
    <g id="Group_559" data-name="Group 559">
      <path id="Path_665" data-name="Path 665" d="M799.106,614.321a.87.87,0,0,0-.988.754.756.756,0,0,0,.1.425,4.2,4.2,0,0,0,1.776-.333A.922.922,0,0,0,799.106,614.321Z" fill="#49263e"/>
    </g>
    <g id="Group_560" data-name="Group 560">
      <path id="Path_666" data-name="Path 666" d="M791.066,613.811a.872.872,0,0,0-1.006.657,4.839,4.839,0,0,0,1.673.677.662.662,0,0,0,.259-.48A.92.92,0,0,0,791.066,613.811Z" fill="#49263e"/>
    </g>
    <path id="Path_667" data-name="Path 667" d="M799.775,628.664a6.211,6.211,0,0,1-4.539,1.891c-3.876.132-5.363-2.137-5.363-2.137-.656.881-7.839,2.31-8.756,3.06-1.788,1.463-1.9,5.061-1.9,5.061l5.466,4.011a82.564,82.564,0,0,1-.224,9.2c-.334,2.28-2.458,4.157-4.07,8.3a31.082,31.082,0,0,0,27,.927c-1.477-2.876-3.03-4.918-3.239-5.751-.467-1.859,1.389-12.92,1.389-12.92l5.1-1.5a15.337,15.337,0,0,0-1.4-6.657C808.418,630.451,801.956,630.29,799.775,628.664Z" fill="#cbe8f0"/>
    <g id="Group_561" data-name="Group 561">
      <path id="Path_668" data-name="Path 668" d="M794.807,619.384c-1.572-.026-3.065.078-3.065.078l-.261.352a3.359,3.359,0,0,0,3.308,3.022,3.774,3.774,0,0,0,3.527-2.653l-.223-.4A19.445,19.445,0,0,0,794.807,619.384Z" fill="#ee685d"/>
    </g>
    <path id="Path_669" data-name="Path 669" d="M794.846,661.615a30.931,30.931,0,0,0,12.122-2.457c-.264-.85-.5-1.6-.69-2.2-.28-.479-.55-.921-.8-1.325a7.677,7.677,0,0,1-1.634.118c-.6-.076-1.032-18.218-1.032-18.218l-.278-.117s-.98,5.225-1.483,5.6-15.4.4-15.982-.226-.012-5.6-.012-5.6-.8,1.161-.818,1.237A55.237,55.237,0,0,0,783.1,644.1c.113.436,1.363,1.5,1.61,2.122.207.525-2.869,7.647-3.851,9.9.107.042.214.084.321.124-.271.552-.539,1.151-.793,1.806A30.885,30.885,0,0,0,794.846,661.615Z" fill="#c5e3ea"/>
    <g id="Group_562" data-name="Group 562">
      <path id="Path_670" data-name="Path 670" d="M791.8,619.608l-.149.247a3.4,3.4,0,0,0,3.091,2.135,4.331,4.331,0,0,0,3.443-1.733l-.15-.368A9.561,9.561,0,0,1,791.8,619.608Z" fill="#49263e"/>
    </g>
    <g id="Group_563" data-name="Group 563">
      <path id="Path_671" data-name="Path 671" d="M792.333,619.81a2.638,2.638,0,0,1-.054.279,3.635,3.635,0,0,0,2.469,1.086,3.528,3.528,0,0,0,2.631-.747,2.426,2.426,0,0,1-.032-.37A9.836,9.836,0,0,1,792.333,619.81Z" fill="#fff"/>
    </g>
    <g id="Group_564" data-name="Group 564">
      <path id="Path_672" data-name="Path 672" d="M796,618.04c-.885,0-2.76-.054-3.153-.5-.19-.217-.237-.606.7-1.975.475-.7.987-1.33,1.009-1.356l.4.326a8.959,8.959,0,0,0-1.7,2.679,8.375,8.375,0,0,0,2.836.31l0,.518Z" fill="#ed675c"/>
    </g>
    <g id="Group_565" data-name="Group 565">
      <path id="Path_673" data-name="Path 673" d="M787.7,624.306s-.506-13.858,1.474-15.662,10.141-1.508,11.99-.051.58,14.552.58,14.552,3.133-5.4,2.041-14.128c-.22-1.762-3.858-5.155-6.31-5.2s-9.022.328-10.433,5.214C784.988,616.157,787.7,624.306,787.7,624.306Z" fill="#75434c"/>
    </g>
    <g id="Group_566" data-name="Group 566">
      <path id="Path_674" data-name="Path 674" d="M796.838,606.646c-7.124-.244-7.6.893-7.6.893h-.192a21.7,21.7,0,0,0-1.335,3.583c-.011.151.539.292,1.432.414a4.834,4.834,0,0,1,.71-2.04,7.486,7.486,0,0,0-.095,2.118c.461.051.982.1,1.544.143.138-.355.148-.766.246-1.09a9.438,9.438,0,0,1,.133,1.119c.622.046,1.461.083,2.143.12a11.2,11.2,0,0,1,.52-2.167,12.393,12.393,0,0,1-.1,2.2c.873.042,1.765.076,2.627.1.121-.576.331-1.065.433-1.66.1.59.131,1.171.193,1.723.755.018,1.764-.071,2.416-.068a8.439,8.439,0,0,0-.2-2.712,7.953,7.953,0,0,1,.656,2.768,7.991,7.991,0,0,0,2.4-.169C802.883,611.492,803.962,606.891,796.838,606.646Z" fill="#75434c"/>
    </g>
    <path id="Path_675" data-name="Path 675" d="M810.508,653.2c-.007-.282-.269-14.364-.626-14.788S805,640.2,805,640.2s.268,13.176.35,13.971c.03.282.461,2.5,1,5.242a30.945,30.945,0,0,0,4.678-2.347C810.729,654.874,810.51,653.281,810.508,653.2Z" fill="#fe9e76"/>
    <g id="Group_567" data-name="Group 567">
      <path id="Path_676" data-name="Path 676" d="M803.682,638.354c.185.549-1.292,16.857,0,17.042s9.565-.985,9.244-1.539a18.241,18.241,0,0,0-1.172-1.6s-.848-15.092-1.168-15.023S803.682,638.354,803.682,638.354Z" fill="#cbe8f0"/>
    </g>
    <path id="Path_677" data-name="Path 677" d="M785.071,646.064l-.149-.153a11.289,11.289,0,0,1-1.514-1.863c-.154-.474.719-3.854,1.651-6.847l-.617-.193c-.005.016-.5,1.62-.953,3.289-.938,3.482-.753,3.852-.664,4.03a10.684,10.684,0,0,0,1.486,1.882c-.56,1.359-3.307,8.534-3.743,9.788.2.083.409.166.617.244.285-.877,3.765-9.884,3.8-9.98Z" fill="#b8d9e0"/>
    <path id="Path_678" data-name="Path 678" d="M805.3,655.315a5.513,5.513,0,0,1-1.288.089c-.329-.672-.518-5.663-.512-6.3,0-.092-.1-3.213-.2-6.109-.128-3.487-.193-4.994-.245-5.668l-.641.078c.126,2.013.442,11.085.443,11.682,0,.1.038,1.731.135,3.283.209,3.359.474,3.491.687,3.6a9.34,9.34,0,0,0,1.964-.1C805.512,655.654,805.423,655.51,805.3,655.315Z" fill="#b8d9e0"/>
    <g id="Group_568" data-name="Group 568">
      <path id="Path_679" data-name="Path 679" d="M792.475,612.482a4.066,4.066,0,0,0-2.492.146.219.219,0,0,0,.128.419,5.041,5.041,0,0,1,2.258-.135A.222.222,0,0,0,792.475,612.482Z" fill="#75434c"/>
    </g>
    <g id="Group_569" data-name="Group 569">
      <path id="Path_680" data-name="Path 680" d="M800.29,612.964a2.9,2.9,0,0,0-2.48-.2.214.214,0,0,0,.125.41,3.749,3.749,0,0,1,2.2.2C800.376,613.463,800.493,613.09,800.29,612.964Z" fill="#75434c"/>
    </g>
    <path id="Path_681" data-name="Path 681" d="M798.925,634.3a1.748,1.748,0,0,0,.681-.137c1.561-.657,2-3.12,2.128-4.6-.219-.068-.43-.14-.631-.216-.109,1.484-.531,3.709-1.748,4.221-1.294.545-3.108-1.671-4-3.013l-.12.006a8.885,8.885,0,0,1-1.136-.033c-.815.916-2.678,2.774-4.211,2.551a1.173,1.173,0,0,1-.811-.5c-.678-.926-.549-2.778-.467-3.5-.207.076-.434.153-.674.231a5.969,5.969,0,0,0,.618,3.654,1.815,1.815,0,0,0,1.241.756c1.965.286,4.157-2.019,4.939-2.931C795.4,631.808,797.182,634.3,798.925,634.3Z" fill="#b8d9e0"/>
    <g id="Group_570" data-name="Group 570" opacity="0.11">
      <path id="Path_682" data-name="Path 682" d="M791.515,607.046a11.453,11.453,0,0,0,4.58,1.228,12.893,12.893,0,0,0,7.181-1.909,10.175,10.175,0,0,0-1.545-1.563,10.89,10.89,0,0,1-5.639.685,6.723,6.723,0,0,1-3.015-1.014,3.087,3.087,0,0,1-.79-.845,12.024,12.024,0,0,0-2.945,1.647A5.852,5.852,0,0,0,791.515,607.046Z" fill="#fff"/>
    </g>
    <path id="Path_683" data-name="Path 683" d="M791.372,615.524a9.4,9.4,0,0,1-1.282-.5.241.241,0,0,0-.232.422,3.315,3.315,0,0,0,1.465.528C791.6,615.994,791.6,615.606,791.372,615.524Z" fill="#ffab8d"/>
    <path id="Path_684" data-name="Path 684" d="M799.84,615.725a5.622,5.622,0,0,1-1.314.192c-.258-.011-.31.42-.05.456a2.351,2.351,0,0,0,1.559-.216A.24.24,0,0,0,799.84,615.725Z" fill="#ffab8d"/>
    <path id="Path_685" data-name="Path 685" d="M795.484,616.487a3.671,3.671,0,0,0-1.21-.093.225.225,0,0,0,.011.45,6.362,6.362,0,0,0,1.152.07A.218.218,0,0,0,795.484,616.487Z" fill="#ffab8d"/>
    <path id="Path_686" data-name="Path 686" d="M795.017,623.236c-.264-.04-.532-.034-.8-.075-.291-.045-.409.385-.112.451a2.183,2.183,0,0,0,.92.048A.221.221,0,0,0,795.017,623.236Z" fill="#ffab8d"/>
  </g>
</svg>
