<svg xmlns="http://www.w3.org/2000/svg" width="40.167" height="58.041" viewBox="0 0 40.167 58.041">
  <g id="Group_288" data-name="Group 288" transform="translate(-549.523 -527.603)">
    <g id="Group_240" data-name="Group 240">
      <path id="Path_392" data-name="Path 392" d="M580.984,562.475l.083-7.553c-1.9-.762-3.8-.688-4.064-1.047-1.289-1.778-.541-5.631-.541-5.631l-9.812-.363c.2,2.988.748,4.146-.577,5.055a7.051,7.051,0,0,1-2.929,1.113l-.131,8.426Z" fill="#fc9c76"/>
    </g>
    <g id="Group_242" data-name="Group 242">
      <g id="Group_241" data-name="Group 241">
        <path id="Path_393" data-name="Path 393" d="M563.582,538.976s2.272,9.249,3.61,10.488,4.972,2.162,6.261,1.815,4.749-2.738,5.1-4.076a58.614,58.614,0,0,0,0-11.8c-.446-1.982-4.064-4.757-8.029-4.41S563.185,535.655,563.582,538.976Z" fill="#fc9c76"/>
      </g>
    </g>
    <g id="Group_244" data-name="Group 244">
      <g id="Group_243" data-name="Group 243">
        <ellipse id="Ellipse_105" data-name="Ellipse 105" cx="1.683" cy="2.441" rx="1.683" ry="2.441" transform="translate(561.646 541.744) rotate(-19.334)" fill="#fc9c76"/>
      </g>
    </g>
    <g id="Group_246" data-name="Group 246">
      <g id="Group_245" data-name="Group 245">
        <ellipse id="Ellipse_106" data-name="Ellipse 106" cx="2.619" cy="1.6" rx="2.619" ry="1.6" transform="translate(577.559 544.462) rotate(-81.483)" fill="#fc9c76"/>
      </g>
    </g>
    <g id="Group_248" data-name="Group 248">
      <g id="Group_247" data-name="Group 247">
        <path id="Path_394" data-name="Path 394" d="M564.648,544.468c-.1-.371-.3-1.09-.733-2.527l-.452.136c.238.791.595,2,.734,2.524C564.349,544.564,564.5,544.52,564.648,544.468Z" fill="#ec685d"/>
      </g>
    </g>
    <g id="Group_250" data-name="Group 250">
      <g id="Group_249" data-name="Group 249">
        <path id="Path_395" data-name="Path 395" d="M564.013,543.869c-.074-.072-.594-.406-1.032-.674l.246-.4c1.147.7,1.166.765,1.194.863l-.454.131A.219.219,0,0,0,564.013,543.869Z" fill="#ec685d"/>
      </g>
    </g>
    <g id="Group_252" data-name="Group 252">
      <g id="Group_251" data-name="Group 251">
        <path id="Path_396" data-name="Path 396" d="M579.662,543.3c.123-1.11.294-2.555.342-2.717l-.452-.135c-.069.228-.27,1.992-.365,2.856A2.518,2.518,0,0,1,579.662,543.3Z" fill="#ec685d"/>
      </g>
    </g>
    <g id="Group_254" data-name="Group 254">
      <g id="Group_253" data-name="Group 253">
        <rect id="Rectangle_27" data-name="Rectangle 27" width="1.495" height="0.472" transform="translate(579.361 542.218) rotate(-45.523)" fill="#ec685d"/>
      </g>
    </g>
    <g id="Group_256" data-name="Group 256">
      <g id="Group_255" data-name="Group 255">
        <path id="Path_397" data-name="Path 397" d="M571.549,546.968a4.72,4.72,0,0,1-2.681-.746l.281-.379a4.616,4.616,0,0,0,3.221.592,3.24,3.24,0,0,0,2.6-1.714l.436.18a3.7,3.7,0,0,1-2.965,2A6.024,6.024,0,0,1,571.549,546.968Z" fill="#ec685d"/>
      </g>
    </g>
    <g id="Group_258" data-name="Group 258">
      <g id="Group_257" data-name="Group 257">
        <path id="Path_398" data-name="Path 398" d="M572.042,548.048l-.125-.456a5.246,5.246,0,0,1,1.107-.227l-.054.469A8.01,8.01,0,0,0,572.042,548.048Z" fill="#ec685d"/>
      </g>
    </g>
    <g id="Group_259" data-name="Group 259">
      <path id="Path_399" data-name="Path 399" d="M578.976,533.387c.14.233.375.526.6.365.264-.187-.651-1.9-2.006-2.95-.038-.578-.221-1.215-.844-1.215a1.557,1.557,0,0,0-.835.247c-.126-.964-.739-2.778-3.616-2.03a8.559,8.559,0,0,0-1.079-.176c-3.38-.331-6.493,2.716-6.162,2.915s.928-.166.928-.166-2.981,2.484-3.345,4.239.931-.3.931-.3-1.526,3.662-1.261,4.225.628-.549.628-.549l1.209,3.337s.948,3.179,1.191,3.157-1.109-6.9-1.109-6.9,2.526-3.65,3.49-4.2-1.962,2.648-1.274,3.1,4.163-3.544,4.163-3.544-.826,1.926,0,1.961,3.1-1.962,3.1-1.962-.241,1.755.378,1.617,1.548-1.445,1.548-1.445.1,2.258.793,2.258.53-.979.53-.979.549,2.936.968,2.773a.411.411,0,0,0,.226-.3c.031,2.022.136,7,.4,6.867.326-.162.541-3.987.541-3.987l.452-.225V536.98s.183.916.5.63C580.3,537.358,579.378,534.3,578.976,533.387Zm-6.01-5.392a1.946,1.946,0,0,1,1.48.291,2.154,2.154,0,0,1,.577.77A7.094,7.094,0,0,0,572.966,527.995Zm3.552,2.189a.707.707,0,0,1,.412-.064c.219.04.323.241.366.482A4.041,4.041,0,0,0,576.518,530.184Z" fill="#f9c164"/>
    </g>
    <g id="Group_260" data-name="Group 260">
      <path id="Path_400" data-name="Path 400" d="M578.976,533.387c.14.233.375.526.6.365.145-.1-.066-.664-.508-1.323a.473.473,0,0,1-.293.129.615.615,0,0,1-.359.507c-.323.11-.707-.16-.945-.342a2.372,2.372,0,0,1-.547-.729c-.107-.156,0-.14-.2-.055a1.365,1.365,0,0,0-.261.2c-.134.106-.263.221-.4.32-.4.286-1.287.775-1.487,0a1.145,1.145,0,0,1,.046-.538c.069-.338.03-.285-.248-.141a4.657,4.657,0,0,0-.709.517,3.686,3.686,0,0,1-1.694.949.84.84,0,0,1-.717-.207.689.689,0,0,1-.167-.329c-.01-.042,0-.25-.01-.316-.009.04-.17.075-.245.13-.127.093-1.476,1.463-1.84,1.774a9.31,9.31,0,0,1-1.308.892,1.121,1.121,0,0,1-.881.239,1.231,1.231,0,0,1-.153-.054c-.29.512-.457.959-.23,1.107.688.447,4.163-3.544,4.163-3.544s-.826,1.926,0,1.961,3.1-1.962,3.1-1.962-.241,1.755.378,1.617,1.548-1.445,1.548-1.445.1,2.258.793,2.258.53-.979.53-.979.549,2.936.968,2.773a.411.411,0,0,0,.226-.3c.031,2.022.136,7,.4,6.867.326-.162.578-3.987.578-3.987l.488-.225V536.98s.147.916.465.63C580.333,537.358,579.378,534.3,578.976,533.387Z" fill="#edb35f"/>
    </g>
    <g id="Group_261" data-name="Group 261">
      <path id="Path_401" data-name="Path 401" d="M566.233,534.876a2.317,2.317,0,0,1,.338-1.312c-.325.33-.618.7-.911,1.032a11.778,11.778,0,0,1-1.627,1.669,1.123,1.123,0,0,1-1.229.225.629.629,0,0,1-.062-.047,5.041,5.041,0,0,0-.453,2.1c.265.563.628-.549.628-.549l1.209,3.337s.948,3.179,1.191,3.157-1.109-6.9-1.109-6.9S565.238,536.095,566.233,534.876Z" fill="#edb35f"/>
    </g>
    <g id="Group_263" data-name="Group 263">
      <g id="Group_262" data-name="Group 262">
        <path id="Path_402" data-name="Path 402" d="M568.418,537.506a3.5,3.5,0,0,0-2.382,1.135c-.123.169.1.429.284.351.347-.143.641-.391.98-.554a9.155,9.155,0,0,1,1.2-.408A.269.269,0,0,0,568.418,537.506Z" fill="#cc7a65"/>
      </g>
    </g>
    <g id="Group_265" data-name="Group 265">
      <g id="Group_264" data-name="Group 264">
        <path id="Path_403" data-name="Path 403" d="M575.6,536.884a4.257,4.257,0,0,0-2.691-.037c-.316.091-.167.55.147.484a6.02,6.02,0,0,1,2.421.047A.255.255,0,0,0,575.6,536.884Z" fill="#cc7a65"/>
      </g>
    </g>
    <g id="Group_267" data-name="Group 267">
      <g id="Group_266" data-name="Group 266">
        <rect id="Rectangle_28" data-name="Rectangle 28" width="2.385" height="0.472" transform="translate(570.758 542.365) rotate(-85.505)" fill="#ec685d"/>
      </g>
    </g>
    <g id="Group_269" data-name="Group 269">
      <g id="Group_268" data-name="Group 268">
        <path id="Path_404" data-name="Path 404" d="M571.247,544.532a1.667,1.667,0,0,1-.894-.243,1.177,1.177,0,0,1-.518-1.329c.263-1.005,1.95-.99,2.021-.989l-.008.472c-.387-.007-1.416.1-1.556.637a.7.7,0,0,0,.314.811,1.683,1.683,0,0,0,1.93-.352l.3.363A2.507,2.507,0,0,1,571.247,544.532Z" fill="#ec685d"/>
      </g>
    </g>
    <g id="Group_271" data-name="Group 271">
      <g id="Group_270" data-name="Group 270">
        <path id="Path_405" data-name="Path 405" d="M568.493,541.027a.671.671,0,0,0,.206-.645c-.1-.444-.392-.544-.914-.5s-1.074.211-.977.655a.83.83,0,0,0,.222.4C567.519,540.984,568.006,541.012,568.493,541.027Z" fill="#49263e"/>
      </g>
    </g>
    <g id="Group_273" data-name="Group 273">
      <g id="Group_272" data-name="Group 272">
        <path id="Path_406" data-name="Path 406" d="M574.325,540.527a.734.734,0,0,1-.318-.624c0-.483.322-.606.821-.769.47-.154.949.023.948.506a.964.964,0,0,1-.125.465C575.212,540.264,574.769,540.4,574.325,540.527Z" fill="#49263e"/>
      </g>
    </g>
    <g id="Group_275" data-name="Group 275">
      <g id="Group_274" data-name="Group 274">
        <path id="Path_407" data-name="Path 407" d="M568.686,541.43c-.595.01-1.2.069-1.792.089-.275.009-.346.458-.055.5a4.765,4.765,0,0,0,1.928-.09A.256.256,0,0,0,568.686,541.43Z" fill="#ffac8f"/>
      </g>
    </g>
    <g id="Group_277" data-name="Group 277">
      <g id="Group_276" data-name="Group 276">
        <path id="Path_408" data-name="Path 408" d="M575.9,540.527c-.244.1-.482.215-.735.3s-.512.126-.763.208a.247.247,0,0,0,.077.482,3.446,3.446,0,0,0,1.645-.491C576.388,540.871,576.192,540.4,575.9,540.527Z" fill="#ffac8f"/>
      </g>
    </g>
    <g id="Group_278" data-name="Group 278">
      <path id="Path_409" data-name="Path 409" d="M572.941,545.2a7.167,7.167,0,0,0-1.793.419c-.235.1-.213.481.076.469a7.164,7.164,0,0,0,1.8-.372C573.295,545.624,573.248,545.159,572.941,545.2Z" fill="#ffac8f"/>
    </g>
    <g id="Group_279" data-name="Group 279" opacity="0.33">
      <path id="Path_410" data-name="Path 410" d="M575.434,528.546a5,5,0,0,1-.473.384c.022.042.043.084.062.126-.037-.028-.078-.057-.118-.086a9.714,9.714,0,0,1-4.656,1.436,15.2,15.2,0,0,1-2.963-.02,4.8,4.8,0,0,1-1.828-.5c-.349.345-.511.606-.422.66.331.2.928-.166.928-.166s-.313.261-.746.671a12.858,12.858,0,0,0,10.651-1.367A2.9,2.9,0,0,0,575.434,528.546Z" fill="#fff"/>
    </g>
    <g id="Group_280" data-name="Group 280">
      <path id="Path_411" data-name="Path 411" d="M564.2,545.549s-.6,5.143-.155,5.208a1.2,1.2,0,0,0,.742-.108l-.364-5.1Z" fill="#f9c164"/>
    </g>
    <g id="Group_281" data-name="Group 281" opacity="0.33">
      <path id="Path_412" data-name="Path 412" d="M564.646,548.632l-.128-1.8c-.157.025-.313.054-.469.085-.052.562-.106,1.216-.14,1.821C564.153,548.692,564.4,548.659,564.646,548.632Z" fill="#fff"/>
    </g>
    <g id="Group_282" data-name="Group 282">
      <path id="Path_413" data-name="Path 413" d="M579.595,544.324s-.563,4.886-.234,4.959a3.263,3.263,0,0,0,.742.051l-.317-5.01Z" fill="#f9c164"/>
    </g>
    <g id="Group_283" data-name="Group 283">
      <path id="Path_414" data-name="Path 414" d="M571.867,542.552a1.68,1.68,0,0,0-1.169.19.37.37,0,0,0,.2.679,3.8,3.8,0,0,0,.437-.066c.148-.021.3-.013.446-.032a.4.4,0,0,0,.375-.349A.388.388,0,0,0,571.867,542.552Z" fill="#ffac8f"/>
    </g>
    <g id="Group_284" data-name="Group 284" opacity="0.33">
      <path id="Path_415" data-name="Path 415" d="M579.29,547.587l.715.069-.123-1.944-.453.094C579.376,546.377,579.323,547.017,579.29,547.587Z" fill="#fff"/>
    </g>
    <g id="Group_285" data-name="Group 285">
      <path id="Path_416" data-name="Path 416" d="M572.182,551.606a9.909,9.909,0,0,0,4.083-1.362c.011-.216.021-.4.037-.592a10.192,10.192,0,0,1-4.135,1.448c-2.486.074-4.74-1.71-5.448-2.317.022.254.051.547.07.763a9.092,9.092,0,0,0,5.224,2.063Z" fill="#ec685d"/>
    </g>
    <path id="Path_417" data-name="Path 417" d="M588.552,557.25c-1.063-.894-11.585-3.876-11.585-3.876s-1.611,3.921-5.665,3.991c-3.646.063-5.983-3.991-5.983-3.991s-8.324,1.774-10.426,3.238c-.315.219-2.43,8.45-2.43,8.45s6.649-1.144,6.754-.685a36.37,36.37,0,0,1,1.108,6.985c-.187,1.334-.6,8.69-.6,11.136a31.123,31.123,0,0,0,22.786.34c-.021-2.372-.793-10.683-.7-12.047a40.25,40.25,0,0,1,.826-6.1c.366-1.538,6.7-.453,6.7-.453S589.614,558.143,588.552,557.25Z" fill="#cbe8f0"/>
    <path id="Path_418" data-name="Path 418" d="M559.725,582.5a31.134,31.134,0,0,0,22.405.482c-.013-1.859-.04-4.541-.071-7.367-.158-2.227-.288-4.214-.246-4.822.011-.16.057-.947.168-2.009-.045-3.795-.083-6.73-.083-6.73l-.317.071s-1.436,7.386-1.767,7.787-17.32-.023-18.028-.613-1.168-6.766-1.168-6.766a1.931,1.931,0,0,1-.253.194c-.037.012-.524,2.469-.737,3.553a25.34,25.34,0,0,1,.7,5.084C560.138,572.7,559.728,580.052,559.725,582.5Z" fill="#c5e3ea"/>
    <path id="Path_419" data-name="Path 419" d="M560.535,561.408c-.309-.3-6.446-1.678-6.446-1.678s-3.524,11.29-4.566,15.927a31.1,31.1,0,0,0,8.708,6.178c-.972-2.675-1.971-5.275-1.971-5.275S560.845,561.713,560.535,561.408Z" fill="#cbe8f0"/>
    <g id="Group_286" data-name="Group 286">
      <path id="Path_420" data-name="Path 420" d="M564.331,553.778a8.63,8.63,0,0,1,1.674-1.817,1.5,1.5,0,0,1,.839-.031s2.054,4.452,4.879,4.441,4.579-4.638,4.579-4.638a.7.7,0,0,1,.668,0,3.655,3.655,0,0,1,1.144,2.024c.307,1.383-1.012,5.048-6.7,5.232S564.331,553.778,564.331,553.778Z" fill="#cbe8f0"/>
    </g>
    <path id="Path_421" data-name="Path 421" d="M553.923,576.045a.138.138,0,0,1,.028.007l-.163.491a4.113,4.113,0,0,0,.722.061c.505.03,1.5.09,1.824.149l-.074-.193.1-.326c-.288-.045-.814-.086-1.82-.147C554.262,576.07,553.974,576.053,553.923,576.045Z" fill="#abd3dd"/>
    <g id="Group_287" data-name="Group 287">
      <path id="Path_422" data-name="Path 422" d="M578.1,553.7a4.134,4.134,0,0,0-.132-.442l-.065.014c.47,2.179-2.722,5.254-3.29,5.639a8.614,8.614,0,0,1-1.725-1.7c-.308-.353-.562-.64-.778-.87a2.6,2.6,0,0,1-.387.034,2.764,2.764,0,0,1-.328-.021c.313.293.768.814,1.1,1.2,1.016,1.164,1.671,1.885,2.138,1.885a.416.416,0,0,0,.221-.063c.565-.346,3.54-3.148,3.606-5.564Z" fill="#abd3dd"/>
      <path id="Path_423" data-name="Path 423" d="M569.883,566.95c-.212,2.124-.379,3.8-.394,4.3-.047,1.544.68,13.848.712,14.4l.519,0c-.008-.134-.759-12.856-.713-14.376.014-.479.189-2.232.391-4.263.685-6.88.9-9.586.849-10.672a3.065,3.065,0,0,1-.514-.136C570.825,557.489,570.242,563.344,569.883,566.95Z" fill="#abd3dd"/>
      <path id="Path_424" data-name="Path 424" d="M566.945,559.317a.477.477,0,0,0,.478-.143l.151-.156a22.167,22.167,0,0,1,3.08-2.855,3.677,3.677,0,0,1-.529-.256,26.264,26.264,0,0,0-2.922,2.751l-.147.15c-.366-.167-1.209-2.157-2.146-5.718l-.012-.046c-.157.194-.3.376-.4.51C565.477,557.209,566.3,559.148,566.945,559.317Z" fill="#abd3dd"/>
    </g>
    <path id="Path_425" data-name="Path 425" d="M589.286,562.451l-7.38.216.228,18.127.049,2.168a30.911,30.911,0,0,0,7.507-3.986Z" fill="#cbe8f0"/>
    <path id="Path_426" data-name="Path 426" d="M582.153,562.15h-.518c0,2.041.248,16.348.329,20.936.148-.053.3-.083.443-.138C582.337,577.733,582.156,563.918,582.153,562.15Z" fill="#abd3dd"/>
    <path id="Path_427" data-name="Path 427" d="M560.112,562.419l-.979,4.562h0c.129-.445.253-.879.372-1.3.067.319.134.645.2.973l.915-4.126Z" fill="#abd3dd"/>
  </g>
</svg>
