<svg xmlns="http://www.w3.org/2000/svg" width="42.634" height="56.761" viewBox="0 0 42.634 56.761">
  <g id="Group_181" data-name="Group 181" transform="translate(-627.335 -453.538)">
    <g id="Group_146" data-name="Group 146">
      <path id="Path_288" data-name="Path 288" d="M655,461.4a8.668,8.668,0,0,0-3.549-4.784s-1.053-2.383-4.9-2.925c-6.578-.927-9.356,2.489-10.88,5.959q-.184.344-.364.681a24.078,24.078,0,0,1-3.415,5.244c-2.235,2.443-5.007,5.477-3.6,8.659a4.855,4.855,0,0,0,1.238,3.49,9.33,9.33,0,0,0,2.522,2.074,4.2,4.2,0,0,1-.127-2.469,4.346,4.346,0,0,0,1.261,3.016c5.782,2.34,13.122-.862,13.369-1.027a14.39,14.39,0,0,0,5.236-2.2,4.822,4.822,0,0,0,.648-2.292,4.129,4.129,0,0,1-.248,1.985,10.113,10.113,0,0,0,1.715-1.778,6.074,6.074,0,0,0,2.988-3.842C657.761,467.72,656.056,463.532,655,461.4Zm-21.7,4.321c-1.429,1.573-3.893,4.191-4.729,6.945-.119-2.143,1.655-4.3,3.8-6.647a17.532,17.532,0,0,0,1.958-2.615A7.107,7.107,0,0,1,633.3,465.722Zm22.954,5.314a5.462,5.462,0,0,1-1.49,2.637,15.134,15.134,0,0,0,1.168-8.043A10.854,10.854,0,0,1,656.254,471.036Z" fill="#dbcac2"/>
    </g>
    <g id="Group_149" data-name="Group 149" opacity="0.22">
      <g id="Group_147" data-name="Group 147">
        <path id="Path_289" data-name="Path 289" d="M655.073,470.048a2.35,2.35,0,0,0-1.784,1.054,3.583,3.583,0,0,1-.323.465,3.969,3.969,0,0,1-.1.95c.512-.136.793-.611,1.139-1.057a1.513,1.513,0,0,1,1.271-.618,1.414,1.414,0,0,1,.415.087c.053-.253.1-.512.138-.774A2.081,2.081,0,0,0,655.073,470.048Z" fill="#fff"/>
      </g>
      <g id="Group_148" data-name="Group 148">
        <path id="Path_290" data-name="Path 290" d="M656.912,471.143a7.967,7.967,0,0,0,.171-1.034.8.8,0,0,1-.691.243,6.868,6.868,0,0,1-.138.718c-.007.028-.016.054-.023.082a1.19,1.19,0,0,0,.344.044A1.422,1.422,0,0,0,656.912,471.143Z" fill="#fff"/>
      </g>
    </g>
    <g id="Group_152" data-name="Group 152" opacity="0.22">
      <g id="Group_150" data-name="Group 150">
        <path id="Path_291" data-name="Path 291" d="M629.043,469.115q-.234.372-.429.753a4.1,4.1,0,0,1,.7.1c.128-.232.27-.465.424-.7A4.191,4.191,0,0,0,629.043,469.115Z" fill="#fff"/>
      </g>
      <g id="Group_151" data-name="Group 151">
        <path id="Path_292" data-name="Path 292" d="M634.44,473.324c.046-.17.113-.338.168-.508-.646,0-1.317.266-1.855-.189-.673-.568-.841-1.527-1.343-2.222a3.072,3.072,0,0,0-1.185-.977q-.227.328-.438.667a2.342,2.342,0,0,1,.574.352c.7.583.87,1.524,1.379,2.243a2.222,2.222,0,0,0,1.542,1.022,6.248,6.248,0,0,0,1.083-.063C634.388,473.54,634.412,473.432,634.44,473.324Z" fill="#fff"/>
      </g>
    </g>
    <g id="Group_153" data-name="Group 153">
      <path id="Path_293" data-name="Path 293" d="M646.553,479.353a15.759,15.759,0,0,0,4.441-1.665c.969-1.125,2.394-6.313,1.239-8.7s-15.69-.269-15.69-.269-5.706,11.612-.341,12.41A21.636,21.636,0,0,0,646.553,479.353Z" fill="#c9b4ab"/>
    </g>
    <g id="Group_154" data-name="Group 154">
      <path id="Path_294" data-name="Path 294" d="M650.993,480.527a1.408,1.408,0,0,1-1-.366,6.441,6.441,0,0,1-.692-2.832c-.241-2.121-.347-4.733-.347-4.733l-7.765,1.767s.592,5.132-1.053,6.054a14.9,14.9,0,0,1-1.638.7v5.673h12.495Z" fill="#fe9e76"/>
    </g>
    <path id="Path_295" data-name="Path 295" d="M659.969,480.557a3.83,3.83,0,0,0-2.056-.5,20.935,20.935,0,0,0-2.8.137c-.917.089-1.833.2-2.753.25a4.3,4.3,0,0,1-1.918-.163,1.044,1.044,0,0,1-.363-.227.705.705,0,0,1-.1-.211l-.1-.288a3.086,3.086,0,0,1-.2-.72,1.011,1.011,0,0,1,.169-.71c.136-.18.36-.313.4-.535a.482.482,0,0,0-.243-.462c-.156-.1-.741-.209-.74-.149s.033.328.042.388a12.867,12.867,0,0,1-2.91,1.547,5.558,5.558,0,0,1-1.072.188c-.05,0-.1.007-.15.009a10.607,10.607,0,0,1-3.908-.739.138.138,0,0,1-.052-.028c-.036-.035-.023-.094-.011-.142a1.239,1.239,0,0,0,.039-.284.1.1,0,0,0-.011-.06.1.1,0,0,0-.091-.027,1.217,1.217,0,0,0-1.086.926.241.241,0,0,0,.035.227c.039.039.1.049.142.081.118.086.07.233.077.353.026.438-.307.7-.661.9a9.49,9.49,0,0,1-1.116.506c-.836.352-1.68.686-2.52,1.029-1.424.581-2.848,1.172-4.221,1.865a6.986,6.986,0,0,0-2.7,1.868c-.332.489-1.157,10.763-1.746,18.489a31,31,0,0,0,7.32,4.094c.139-4.024.069-10.452.186-11.273-.027.856.827,3.931,1.839,9.366a8.977,8.977,0,0,1-.815,2.351,31.124,31.124,0,0,0,23.03-1.12,40.716,40.716,0,0,1-1.472-4.378,36.607,36.607,0,0,0,1.5-3.52,9.86,9.86,0,0,0-2.015-6.844A66.746,66.746,0,0,0,661,498.2a29.581,29.581,0,0,0,5.482-4.08C664.86,489.249,662.186,482.118,659.969,480.557Z" fill="#75434c"/>
    <g id="Group_155" data-name="Group 155">
      <path id="Path_296" data-name="Path 296" d="M638.388,458.052s-4.244,10.7-1.449,13.971,5.571,4.27,7.451,4.349c1.315.055,6.295-2.313,7.379-4.789s.279-12.214-.691-14.149S640.9,454.79,638.388,458.052Z" fill="#fe9e76"/>
    </g>
    <g id="Group_156" data-name="Group 156">
      <path id="Path_297" data-name="Path 297" d="M649.056,474.494a11.686,11.686,0,0,1-4.26,1.768,7.283,7.283,0,0,1-3.523-.713c.01.223.017.469.019.728a8.124,8.124,0,0,0,3.02.667,5.4,5.4,0,0,0,.552-.028,11.573,11.573,0,0,0,4.244-1.678C649.089,474.98,649.071,474.73,649.056,474.494Z" fill="#ee685d"/>
    </g>
    <g id="Group_157" data-name="Group 157">
      <path id="Path_298" data-name="Path 298" d="M660.382,474.929c0,.136.672,27.211,4.435,27.256s5.307-1.076,4.971-2.486-5.912-24.77-5.912-24.77Z" fill="#fe9e76"/>
    </g>
    <g id="Group_158" data-name="Group 158">
      <path id="Path_299" data-name="Path 299" d="M650.4,456.3c-4.017-2.287-9.443-1.885-11.272-.278s-4.055,9.8-4.024,10.016a45.859,45.859,0,0,0,.4,5.053,17.437,17.437,0,0,0,1.2-4.223c.664-3.056.929-5.668,4.779-7.488,3.032-1.433,6.53.073,8.322-1.6,0,0,.527,4.48,1.639,6.087a7.674,7.674,0,0,1,.988,4.1S654.414,458.588,650.4,456.3Z" fill="#dbcac2"/>
    </g>
    <g id="Group_160" data-name="Group 160">
      <g id="Group_159" data-name="Group 159">
        <path id="Path_300" data-name="Path 300" d="M636.548,467.559l-.657-.032a9.434,9.434,0,0,1,3.943-6.686,12.7,12.7,0,0,1,5.867-2.218,4.477,4.477,0,0,0,2.234-.708l.456.473a4.8,4.8,0,0,1-2.583.884,11.961,11.961,0,0,0-5.587,2.1A8.94,8.94,0,0,0,636.548,467.559Z" fill="#dbcac2"/>
      </g>
    </g>
    <g id="Group_162" data-name="Group 162">
      <g id="Group_161" data-name="Group 161">
        <path id="Path_301" data-name="Path 301" d="M642.938,468.442a1.192,1.192,0,0,1-.67-.16.621.621,0,0,1-.267-.535c0-1.1,1.644-3.429,1.714-3.527l.322.228c-.457.643-1.641,2.489-1.641,3.3a.226.226,0,0,0,.1.211c.355.245,1.487-.041,2.117-.279l.139.369A6.1,6.1,0,0,1,642.938,468.442Z" fill="#ee685d"/>
      </g>
    </g>
    <g id="Group_163" data-name="Group 163">
      <path id="Path_302" data-name="Path 302" d="M660.683,487.289l6.4-1.473s4.61,14.583,2.174,16-3.736,1.7-4.554.714S661,498.2,661,498.2Z" fill="#75434c"/>
    </g>
    <g id="Group_164" data-name="Group 164">
      <path id="Path_303" data-name="Path 303" d="M660.382,475.972c-.2-1.4-2.605-3.915-2.756-4.82a18.194,18.194,0,0,1,0-2.934c.068-1.092-.227-1.84-.058-2.02.213-.226.877.586,1.138,1.686a12.053,12.053,0,0,0,.533,1.85l.678-2.385a44.484,44.484,0,0,1,1.956-4.554c.442-.615.707-.239.757-.142s-1.329,4.591-1.329,4.591,1.689-5.454,2.5-5.716c.432-.139.771.524.771.524s.67-.348.751,0a31.832,31.832,0,0,1-.449,5.48,32.715,32.715,0,0,1,1.067-3.869.374.374,0,0,1,.662.252c.009.9-.532,5.065-.532,5.065s-.5,2.311-.683,2.87c-.412,1.233-1.495,2.812-1.333,3.778C664.209,476.529,660.5,476.81,660.382,475.972Z" fill="#fe9e76"/>
    </g>
    <g id="Group_165" data-name="Group 165">
      <path id="Path_304" data-name="Path 304" d="M640.868,470.213c.293-.568,1.288.409,3.109.248,1.354-.119,2.228-1.673,3.29-1.226s-.3,3.426-2.931,3.6C641.263,473.045,640.421,471.079,640.868,470.213Z" fill="#49263e"/>
    </g>
    <g id="Group_166" data-name="Group 166">
      <path id="Path_305" data-name="Path 305" d="M646.745,470.191a5.013,5.013,0,0,0-.007-1.027c-.844.112-1.637,1.2-2.761,1.3a8,8,0,0,1-2.7-.421.854.854,0,0,0,.285.861,4.192,4.192,0,0,0,2.513.454C645.317,471.329,646.675,470.674,646.745,470.191Z" fill="#fff"/>
    </g>
    <g id="Group_167" data-name="Group 167" opacity="0.33">
      <path id="Path_306" data-name="Path 306" d="M642.912,471.292a4.616,4.616,0,0,0-.481-.071A4.172,4.172,0,0,0,642.912,471.292Z" fill="#c9c0b1"/>
    </g>
    <g id="Group_168" data-name="Group 168" opacity="0.33">
      <path id="Path_307" data-name="Path 307" d="M646.738,469.131c-.844.111-1.637,1.2-2.761,1.3a7.968,7.968,0,0,1-2.7-.422.854.854,0,0,0,.285.861.521.521,0,0,0,.05.032.881.881,0,0,1,.828-.321c.8.042,1.57.382,2.339-.066.333-.194,1.206-.9,1.392-.153a.842.842,0,0,1,.011.381c.323-.19.536-.4.563-.583A5,5,0,0,0,646.738,469.131Z" fill="#c9c0b1"/>
    </g>
    <g id="Group_169" data-name="Group 169">
      <path id="Path_308" data-name="Path 308" d="M640.054,466.548a5.235,5.235,0,0,0-1.523-.559c-.446-.126-.6.548-.172.691a10.407,10.407,0,0,0,1.442.513A.351.351,0,0,0,640.054,466.548Z" fill="#ffab8d"/>
    </g>
    <g id="Group_170" data-name="Group 170">
      <path id="Path_309" data-name="Path 309" d="M649.585,465.4a10,10,0,0,0-1.777.537.356.356,0,0,0,.207.681,5.9,5.9,0,0,0,1.767-.56C650.063,465.881,649.95,465.359,649.585,465.4Z" fill="#ffab8d"/>
    </g>
    <g id="Group_171" data-name="Group 171">
      <path id="Path_310" data-name="Path 310" d="M645.455,473.646a.356.356,0,0,0-.352-.295,6.391,6.391,0,0,0-1.087.072c-.457.042-.448.746.019.72a6.846,6.846,0,0,0,1.179-.106A.348.348,0,0,0,645.455,473.646Z" fill="#ee685d"/>
    </g>
    <g id="Group_172" data-name="Group 172">
      <path id="Path_311" data-name="Path 311" d="M646.4,472.015a1.394,1.394,0,0,0-.5-.4,1.613,1.613,0,0,0-1.522.151c-.837-.491-1.925.344-2.334.706a4.511,4.511,0,0,0,2.3.364A3.642,3.642,0,0,0,646.4,472.015Z" fill="#89425c"/>
    </g>
    <g id="Group_173" data-name="Group 173" opacity="0.22">
      <path id="Path_312" data-name="Path 312" d="M652.97,457.883l-.02.009c-.277.107-.757.324-1.052.188-.371-.17-.362-.7-.6-.985a.959.959,0,0,0-.537-.329c-.263-.06-.378.021-.634-.215-.1-.091-.185-.263-.282-.362a2.349,2.349,0,0,0-.669-.469,3.352,3.352,0,0,0-2.089-.165c-.87.171-1.9.74-2.649,0a5.53,5.53,0,0,0-1.527-1.336,4.094,4.094,0,0,0-1.1-.332,8.231,8.231,0,0,0-2.187.9c1.442-.277,2.891-.285,3.951.964a2.186,2.186,0,0,0,1.68.963c.871.02,1.669-.427,2.532-.469a2.031,2.031,0,0,1,1.28.314c.282.195.382.5.626.718.26.232.508.139.8.238.382.132.354.587.569.889.54.758,1.568.547,2.449.14A8.114,8.114,0,0,0,652.97,457.883Z" fill="#fff"/>
    </g>
    <g id="Group_174" data-name="Group 174">
      <path id="Path_313" data-name="Path 313" d="M661.057,486.843a5.267,5.267,0,0,0-.8.163l.891,9.15h.491l-.829-8.567.321-.374Z" fill="#663943"/>
    </g>
    <g id="Group_175" data-name="Group 175">
      <path id="Path_314" data-name="Path 314" d="M650.242,477.586a.482.482,0,0,0-.243-.462c-.156-.1-.741-.209-.74-.149s.033.328.042.388a12.867,12.867,0,0,1-2.91,1.547,5.558,5.558,0,0,1-1.072.188c-.05,0-.1.007-.15.009a10.607,10.607,0,0,1-3.908-.739.138.138,0,0,1-.052-.028c-.036-.035-.023-.094-.011-.142a1.239,1.239,0,0,0,.039-.284.1.1,0,0,0-.011-.06.1.1,0,0,0-.091-.027,1.217,1.217,0,0,0-1.086.926.311.311,0,0,0,0,.174,9.98,9.98,0,0,0,5.034.913,9.682,9.682,0,0,0,4.9-1.874A.743.743,0,0,0,650.242,477.586Z" fill="#844e5a"/>
    </g>
    <g id="Group_176" data-name="Group 176">
      <path id="Path_315" data-name="Path 315" d="M664.575,462.052a1.6,1.6,0,0,0-.16-.24c-.366.919-1.583,5.409-1.583,5.409l.366.091a50.605,50.605,0,0,1,1.53-5.328A1.664,1.664,0,0,0,664.575,462.052Z" fill="#ee685d"/>
    </g>
    <g id="Group_177" data-name="Group 177">
      <path id="Path_316" data-name="Path 316" d="M663.685,475.32c-.148.047-1.346.2-1.346.2s.17.325.347.3,1.1-.148,1.1-.148l.26-.249a.327.327,0,1,0-.358-.1Z" fill="#ee685d"/>
    </g>
    <g id="Group_178" data-name="Group 178">
      <path id="Path_317" data-name="Path 317" d="M660.382,467.657a11.662,11.662,0,0,1,2.559,0,8.3,8.3,0,0,1,2.269,1.045C665.194,468.865,660.093,467.984,660.382,467.657Z" fill="#ffab8d"/>
    </g>
    <g id="Group_179" data-name="Group 179">
      <path id="Path_318" data-name="Path 318" d="M638.656,464.855s1.744-1.162,2.1,1.06C640.756,465.915,638.811,466.2,638.656,464.855Z" fill="#49263e"/>
    </g>
    <g id="Group_180" data-name="Group 180">
      <path id="Path_319" data-name="Path 319" d="M648.994,464.209s-1.744-1.307-2.1,1.192C646.894,465.4,648.839,465.72,648.994,464.209Z" fill="#49263e"/>
    </g>
    <path id="Path_320" data-name="Path 320" d="M657.98,494.3a33.019,33.019,0,0,0-2.554-3.666s1.7,5.57,1.239,6.253-16.207,2.484-18.412,1.46-2.873-6.805-2.887-7l-.311.072.28,8.273c.339,1.568.821,3.749,1.345,6.564a8.977,8.977,0,0,1-.815,2.351,31.124,31.124,0,0,0,23.03-1.12,40.716,40.716,0,0,1-1.472-4.378,36.607,36.607,0,0,0,1.5-3.52,9.86,9.86,0,0,0-2.015-6.844C657.222,493.232,657.585,493.756,657.98,494.3Z" fill="#633942" opacity="0.35"/>
    <path id="Path_321" data-name="Path 321" d="M634.853,491.329c.013.5.011,3.148,0,5.843.055.516.241,1.392.51,2.637.024-6.389.013-8.043,0-8.492C635.2,491.318,635.023,491.32,634.853,491.329Z" fill="#633942"/>
    <path id="Path_322" data-name="Path 322" d="M659.484,496.306l-3.619-5.942-.439.274,3.011,4.977S659.463,496.271,659.484,496.306Z" fill="#633942"/>
    <path id="Path_323" data-name="Path 323" d="M641.349,462.45a4.723,4.723,0,0,0-2.5.8.282.282,0,0,0,.3.479,6.909,6.909,0,0,1,2.222-.7C641.72,462.973,641.73,462.442,641.349,462.45Z" fill="#49263e"/>
    <path id="Path_324" data-name="Path 324" d="M648.917,461.8a6.22,6.22,0,0,0-3.205.021c-.308.076-.232.613.09.561a11.382,11.382,0,0,1,3.052-.01C649.192,462.406,649.216,461.887,648.917,461.8Z" fill="#49263e"/>
  </g>
</svg>
