<svg xmlns="http://www.w3.org/2000/svg" width="47.758" height="58.783" viewBox="0 0 47.758 58.783">
  <g id="Group_425" data-name="Group 425" transform="translate(-769.453 -377.01)">
    <g id="Group_377" data-name="Group 377">
      <path id="Path_476" data-name="Path 476" d="M809.138,400.615c-.567-.653-1.485-.97-1.925-1.714a1.76,1.76,0,0,1-.162-1.4,4.538,4.538,0,0,0,.47-1.344c-.014-.935-1.243-1.383-1.542-2.268a4.171,4.171,0,0,1-.017-1.45,3.681,3.681,0,0,0-1.357-2.7,6.861,6.861,0,0,1-1.447-2.379.753.753,0,0,0-.171-.354.7.7,0,0,0-.643-.06c-.7.165-1.42.175-2.128.346a14.563,14.563,0,0,1-2.069.458l-5.385.481c-.906.081-1.819.135-2.722.244a2.073,2.073,0,0,1-1.764-.755c-.3-.336-.595-.774-1.047-.81a.523.523,0,0,1-.164.53c-.138.138-.315.232-.459.364a1.179,1.179,0,0,0-.374.967c.005.049.013.1.019.147a.7.7,0,0,1,0,.255c-.059.245-.3.347-.507.448a2.031,2.031,0,0,0-.551.391,4.014,4.014,0,0,0-1.132,1.36,5.851,5.851,0,0,0-.3,3.2,3.946,3.946,0,0,1,.008,2.21c-.377.838-1.354,1.179-2.187,1.566s-1.716,1.121-1.56,2.026c.132.762.985,1.364.817,2.118-.079.352-.38.686-.26,1.026.187.527.979.359,1.393.5a7.473,7.473,0,0,1,1.2.629c.17-1.437-.647-3.078.858-3.971-.859,1.549.045,2.959.28,4.46a19.933,19.933,0,0,0,2.294.652c.027-1.071-.2-2.165.757-2.986a3.969,3.969,0,0,0,.34,2.983c.016.083.026.164.034.243a42.843,42.843,0,0,0,4.823.688l6.087-.41c.7-.007,1.4-.042,2.094-.093a.493.493,0,0,1,.033-.086,7.861,7.861,0,0,0,1.09-3.348c.357,1.133-.171,2.252-.4,3.376.295-.026.59-.056.883-.088.571-.062,1.611-.19,2.715-.377.162-.9,1.106-1.786.55-2.591-.378-.654-1.014-1.311-1-2.088,1.015,1.311,2.808,2.506,1.482,4.426-.021.02-.049.047-.079.079a17.616,17.616,0,0,0,1.858-.458c.729-.233,1.022-1.42.972-2.06a3.679,3.679,0,0,1-.107-.56c.032-.392.535-.575.672-.944A.921.921,0,0,0,809.138,400.615Z" fill="#cc7a64"/>
    </g>
    <g id="Group_379" data-name="Group 379">
      <g id="Group_378" data-name="Group 378">
        <path id="Path_477" data-name="Path 477" d="M801.549,405.691c-1.237-.347-1.8-.6-1.948-.856-.5-.872-.385-5.581-.385-5.581l-8.71.229s-.031,5.059-1.247,5.452c0,0-.6.223-1.513.569v5.635h13.8Z" fill="#fc9c76"/>
      </g>
    </g>
    <g id="Group_381" data-name="Group 381">
      <g id="Group_380" data-name="Group 380">
        <path id="Path_478" data-name="Path 478" d="M801.816,386.059c-.794-1.456-4.6-3.891-7.25-3.851s-6.641,3.282-7.109,6.466a49.491,49.491,0,0,0,.175,8.821,7.825,7.825,0,0,0,7.208,5.812c3.46-.051,6.776-2.894,7.1-5.836.143-1.291.378-3.094.4-4.392.026-1.406.015-2.815-.072-4.219a8.044,8.044,0,0,0-.418-2.725C801.842,386.109,801.829,386.084,801.816,386.059Z" fill="#fc9c76"/>
      </g>
    </g>
    <g id="Group_382" data-name="Group 382">
      <path id="Path_479" data-name="Path 479" d="M791.743,393.238a.761.761,0,0,0,.173-.512c-.014-.439-1.649-.861-1.546-.032a1.162,1.162,0,0,0,.061.28Q791.089,393.087,791.743,393.238Z" fill="#49263e"/>
    </g>
    <g id="Group_384" data-name="Group 384">
      <g id="Group_383" data-name="Group 383">
        <path id="Path_480" data-name="Path 480" d="M802.071,393.852l-.194,3.126s.019.425,1.028.267c1.5-.235,1.532-4.043.837-4.583S802.071,393.852,802.071,393.852Z" fill="#fc9c76"/>
      </g>
    </g>
    <g id="Group_385" data-name="Group 385">
      <path id="Path_481" data-name="Path 481" d="M798.811,392.957a1.38,1.38,0,0,0,.024-.217c.055-.869-1.612-.341-1.6.111a.8.8,0,0,0,.194.493C797.9,393.227,798.352,393.083,798.811,392.957Z" fill="#49263e"/>
    </g>
    <g id="Group_387" data-name="Group 387">
      <g id="Group_386" data-name="Group 386">
        <path id="Path_482" data-name="Path 482" d="M787.5,393.584l.407,3.1s.01.426-1.008.337c-1.509-.133-1.8-3.93-1.146-4.517S787.5,393.584,787.5,393.584Z" fill="#fc9c76"/>
      </g>
    </g>
    <g id="Group_389" data-name="Group 389">
      <g id="Group_388" data-name="Group 388">
        <path id="Path_483" data-name="Path 483" d="M787.052,393.073s.238,2.328.462,2.342a.464.464,0,0,0,.343-.1l.265-3.98a15.058,15.058,0,0,0,1.067-2.021c.05-.34.076-4.7,5.824-4.946,6.312-.271,5.573,5.337,5.669,5.457a10.128,10.128,0,0,1,.961,1.582c.039.242-.064,3.355.034,3.533s.3-.01.428-.014a13.962,13.962,0,0,0,.459-2.189l.638-.723c.072-.081.051-.418.06-.519.042-.45.062-.9.063-1.354a14.416,14.416,0,0,0-.12-1.926,3.577,3.577,0,0,1-.1-.908c.041-.3-.1-.495-.15-.791a4.674,4.674,0,0,1,.052-.654,1.48,1.48,0,0,0-.8-1.1.554.554,0,0,1-.16-.136.623.623,0,0,1-.074-.208,1.978,1.978,0,0,0-.238-.567c-.314-.513-.8-.67-1.248-1.012a6.016,6.016,0,0,0-1.276-.745,8.458,8.458,0,0,0-3.56-.607,12.954,12.954,0,0,0-3.553.538,8.23,8.23,0,0,0-2.611,1.335,7.1,7.1,0,0,0-.947.887,4.473,4.473,0,0,0-.9,1.352,5.676,5.676,0,0,1-.276.783c-.124.23-.312.416-.458.632a2.067,2.067,0,0,0-.337,1.286,10.241,10.241,0,0,1-.162,1.468c-.044.49-.063.982-.063,1.474q0,.34.011.681c0,.086-.035.495.024.547Z" fill="#cc7a64"/>
      </g>
    </g>
    <g id="Group_390" data-name="Group 390">
      <path id="Path_484" data-name="Path 484" d="M791.506,393.477a3.627,3.627,0,0,0-.59-.153,3.263,3.263,0,0,0-.6-.1.288.288,0,0,0-.1.56,3.364,3.364,0,0,0,.589.157,3.634,3.634,0,0,0,.595.105A.292.292,0,0,0,791.506,393.477Z" fill="#ffb69c"/>
    </g>
    <g id="Group_391" data-name="Group 391">
      <path id="Path_485" data-name="Path 485" d="M799.006,393.332a7.309,7.309,0,0,0-1.4.377c-.3.1-.224.615.112.567a4.9,4.9,0,0,0,1.47-.415C799.44,393.733,799.278,393.3,799.006,393.332Z" fill="#ffb69c"/>
    </g>
    <g id="Group_393" data-name="Group 393">
      <g id="Group_392" data-name="Group 392">
        <path id="Path_486" data-name="Path 486" d="M791.329,382.673a6.324,6.324,0,0,1-.391-.851,1.623,1.623,0,0,1,.145-1.38.418.418,0,0,0,.077-.157.505.505,0,0,0-.039-.218,1.2,1.2,0,0,1,.139-.887,3.06,3.06,0,0,1,.59-.7,1.956,1.956,0,0,1,.7-.483c.107-.034.219-.052.322-.1a1.777,1.777,0,0,0,.353-.232,2.273,2.273,0,0,1,1.2-.48c.109-.006.22,0,.329-.012a3.493,3.493,0,0,0,.365-.064,3.827,3.827,0,0,1,2.675.314,1.191,1.191,0,0,1,.247.206,1.54,1.54,0,0,0,.108.12.775.775,0,0,0,.244.126,2.914,2.914,0,0,1,.94.551,1.537,1.537,0,0,1,.505.947,5.529,5.529,0,0,0,.034.646c.051.227.193.426.234.655a.783.783,0,0,1-.183.651.963.963,0,0,0-.231.285.983.983,0,0,0-.023.287c-.024.49-.505.5-.643.881-1.157-.014-2.316-.051-3.473-.052-1.375,0-2.751-.053-4.126-.053Z" fill="#cc7a64"/>
      </g>
    </g>
    <g id="Group_394" data-name="Group 394">
      <path id="Path_487" data-name="Path 487" d="M799.673,381.855c-.107-.028-.247-.051-.343-.077-.069-.019-.154-.04-.224-.06a3,3,0,0,0-1.648-.149l-.044.011a.621.621,0,0,1-.133.029.58.58,0,0,1-.2-.07,2.495,2.495,0,0,0-1.91-.316c-.131.022-.255.043-.378.054a5.113,5.113,0,0,1-.632,0c-.148-.005-.3-.011-.453-.008a4.822,4.822,0,0,0-1.938.52,3.984,3.984,0,0,1-.672.208c-.032.008-.065-.019-.1-.011.047.118.1.244.155.388.012,0,.076-.007.088-.01a3.886,3.886,0,0,0,.714-.162,4.314,4.314,0,0,1,1.76-.48c.14,0,.28,0,.427.008a5.476,5.476,0,0,0,.689-.005c.141-.013.279-.036.413-.058a2.775,2.775,0,0,1,.637-.058,2.936,2.936,0,0,1,1.01.339.894.894,0,0,0,.388.111.921.921,0,0,0,.258-.047l.036-.01a2.605,2.605,0,0,1,1.392.148l.213.061c.1.026.259.005.364.029A.587.587,0,0,0,799.673,381.855Z" fill="#c16b5b"/>
    </g>
    <g id="Group_395" data-name="Group 395">
      <path id="Path_488" data-name="Path 488" d="M791.591,397.452c.5-.844,1.317.717,3.055.606s2.124-1.285,2.833-1.035.06,2.338-2.7,2.449S791.258,398.01,791.591,397.452Z" fill="#49263e"/>
    </g>
    <g id="Group_396" data-name="Group 396">
      <path id="Path_489" data-name="Path 489" d="M797.2,396.995c-.562.085-1.057.968-2.552,1.063-1.288.082-2.068-.753-2.591-.848-.068.3-.347,1.054,1.293,1.272a.414.414,0,0,0,.308.35,4.839,4.839,0,0,0,1.819-.092.883.883,0,0,0,.154-.285C797.254,398.182,797.271,397.336,797.2,396.995Z" fill="#fff"/>
    </g>
    <g id="Group_397" data-name="Group 397" opacity="0.33">
      <path id="Path_490" data-name="Path 490" d="M792.157,398.018a1.14,1.14,0,0,1,.821-.044,4.349,4.349,0,0,0,1.337.286,7.188,7.188,0,0,0,2.067-.385.322.322,0,0,1,.383.162,1,1,0,0,0,.433-1.042c-.562.085-1.057.968-2.552,1.063-1.288.082-2.068-.753-2.591-.848A.828.828,0,0,0,792.157,398.018Z" fill="#ddcbc3"/>
    </g>
    <g id="Group_398" data-name="Group 398" opacity="0.11">
      <path id="Path_491" data-name="Path 491" d="M800.489,382.834c-.086-.066-.174-.128-.264-.189a3.186,3.186,0,0,1-1.272.284,12.918,12.918,0,0,1-1.446-.236,2.459,2.459,0,0,0-1.216.1c-.241.093-.523.322-.789.275a3.666,3.666,0,0,1-.691-.341,4.816,4.816,0,0,0-2.638.121,2.934,2.934,0,0,1-1.8.038l-.121-.049a7.6,7.6,0,0,0-.641.428,5.814,5.814,0,0,0,.93.362,3.736,3.736,0,0,0,1.675-.134,5.188,5.188,0,0,1,2.243-.207c.5.143.824.519,1.383.4a4.7,4.7,0,0,0,.656-.284,2.062,2.062,0,0,1,1.094-.047,6.968,6.968,0,0,0,1.618.209,3.1,3.1,0,0,0,1.584-.518C800.691,382.978,800.589,382.91,800.489,382.834Z" fill="#fff"/>
    </g>
    <g id="Group_399" data-name="Group 399">
      <path id="Path_492" data-name="Path 492" d="M795.282,399.985a4.6,4.6,0,0,0-1.315.041c-.309.055-.422.557-.046.606a3.829,3.829,0,0,0,1.395-.075A.3.3,0,0,0,795.282,399.985Z" fill="#ec685d"/>
    </g>
    <path id="Path_493" data-name="Path 493" d="M812.357,409.584c-2.666-2-12-4.509-12-4.509a6.14,6.14,0,0,1-5.79,4.244,5.2,5.2,0,0,1-5.577-4.426s-8.922.74-10.58,3.338c-.85,1.332-2.025,5.772-3.722,10.612,1.5,1.463,4,2.282,5.789,3.393-.272,2.368-.814,5.745-1.376,9.268a31.048,31.048,0,0,0,30.969.3c-.188-3.768-.4-7.565-.6-10.392,1.937-1.131,4.672-1.388,6.287-2.919C813.76,413.6,814.079,410.878,812.357,409.584Z" fill="#9679bc"/>
    <g id="Group_400" data-name="Group 400" opacity="0.11">
      <path id="Path_494" data-name="Path 494" d="M799.833,379.323a1.434,1.434,0,0,0-.244-.605,5.664,5.664,0,0,1-.571.033c-.451-.006-.815-.54-1.262-.7a3.879,3.879,0,0,0-1.8-.072,7.242,7.242,0,0,0-1.525.42c-.595.215-1.143-.015-1.758.055a3.383,3.383,0,0,0-1.138.339,2.21,2.21,0,0,0-.279.387,1.3,1.3,0,0,0-.17.694,2.841,2.841,0,0,1,2-.791,6.17,6.17,0,0,0,1.086.118c.416-.066.77-.364,1.181-.469a5.009,5.009,0,0,1,1.828-.167,1.874,1.874,0,0,1,1.068.6C798.678,379.533,799.318,379.3,799.833,379.323Z" fill="#fff"/>
    </g>
    <g id="Group_401" data-name="Group 401">
      <path id="Path_495" data-name="Path 495" d="M792.436,389.892a5.845,5.845,0,0,0-2.334.365.285.285,0,0,0,.157.547c.728-.144,1.447-.234,2.183-.328A.292.292,0,0,0,792.436,389.892Z" fill="#b26354"/>
    </g>
    <g id="Group_402" data-name="Group 402">
      <path id="Path_496" data-name="Path 496" d="M799.6,390.315a6.368,6.368,0,0,0-2.605-.307c-.369.023-.369.591.006.58a11.068,11.068,0,0,1,2.453.277A.285.285,0,0,0,799.6,390.315Z" fill="#b26354"/>
    </g>
    <g id="Group_404" data-name="Group 404">
      <g id="Group_403" data-name="Group 403">
        <path id="Path_497" data-name="Path 497" d="M791.077,395.436a2.25,2.25,0,1,1,2.361-2.21A2.29,2.29,0,0,1,791.077,395.436Zm.067-4.108a1.862,1.862,0,1,0,1.905,1.891A1.9,1.9,0,0,0,791.144,391.328Z" fill="#fff"/>
      </g>
    </g>
    <g id="Group_406" data-name="Group 406">
      <g id="Group_405" data-name="Group 405">
        <path id="Path_498" data-name="Path 498" d="M798.2,395.552a2.25,2.25,0,1,1,2.36-2.21A2.29,2.29,0,0,1,798.2,395.552Zm.066-4.108a1.862,1.862,0,1,0,1.906,1.891A1.9,1.9,0,0,0,798.262,391.444Z" fill="#fff"/>
      </g>
    </g>
    <g id="Group_408" data-name="Group 408">
      <g id="Group_407" data-name="Group 407">
        <path id="Path_499" data-name="Path 499" d="M787.052,393.073l-.275-.25,1.325-.353.968,0,0,.388-.944,0Z" fill="#fff"/>
      </g>
    </g>
    <g id="Group_410" data-name="Group 410">
      <g id="Group_409" data-name="Group 409">
        <path id="Path_500" data-name="Path 500" d="M802.473,393.258l-1.1-.183-.947-.036.015-.388,1.007.042,1.264.286Z" fill="#fff"/>
      </g>
    </g>
    <g id="Group_412" data-name="Group 412">
      <g id="Group_411" data-name="Group 411">
        <path id="Path_501" data-name="Path 501" d="M793.368,393.278l-.251-.3a2.507,2.507,0,0,1,1.6-.486,2.626,2.626,0,0,1,1.521.427l-.24.3a2.312,2.312,0,0,0-1.287-.343A2.163,2.163,0,0,0,793.368,393.278Z" fill="#fff"/>
      </g>
    </g>
    <g id="Group_413" data-name="Group 413">
      <path id="Path_502" data-name="Path 502" d="M790.31,402.279a10.5,10.5,0,0,0,4.278,1.546,13.674,13.674,0,0,0,4.66-1.33c-.012-.252-.021-.508-.028-.761-.65.329-3.113,1.6-4.623,1.573a10.293,10.293,0,0,1-4.214-1.65C790.362,401.862,790.338,402.07,790.31,402.279Z" fill="#ed675c"/>
    </g>
    <g id="Group_415" data-name="Group 415">
      <g id="Group_414" data-name="Group 414">
        <rect id="Rectangle_30" data-name="Rectangle 30" width="0.388" height="2.657" transform="translate(786.318 393.596) rotate(-9.899)" fill="#ed675c"/>
      </g>
    </g>
    <g id="Group_417" data-name="Group 417">
      <g id="Group_416" data-name="Group 416">
        <rect id="Rectangle_31" data-name="Rectangle 31" width="0.388" height="0.912" transform="translate(785.935 394.877) rotate(-64.878)" fill="#ed675c"/>
      </g>
    </g>
    <g id="Group_419" data-name="Group 419">
      <g id="Group_418" data-name="Group 418">
        <rect id="Rectangle_32" data-name="Rectangle 32" width="2.657" height="0.388" transform="translate(802.36 396.394) rotate(-78.24)" fill="#ed675c"/>
      </g>
    </g>
    <g id="Group_421" data-name="Group 421">
      <g id="Group_420" data-name="Group 420">
        <rect id="Rectangle_33" data-name="Rectangle 33" width="0.912" height="0.388" transform="translate(802.632 395.168) rotate(-23.264)" fill="#ed675c"/>
      </g>
    </g>
    <g id="Group_423" data-name="Group 423">
      <g id="Group_422" data-name="Group 422">
        <path id="Path_503" data-name="Path 503" d="M795.481,395.531a3.193,3.193,0,0,1-2.056-.029.734.734,0,0,1-.352-.508c-.094-.466.737-1.272,1.422-1.79-.047-.031-.095-.061-.141-.093-.065-.045-.128-.093-.19-.142-.593.462-1.618,1.377-1.471,2.1a1.118,1.118,0,0,0,.53.763,2.09,2.09,0,0,0,1.037.248,5.033,5.033,0,0,0,1.328-.178Z" fill="#ec685d"/>
      </g>
    </g>
    <path id="Path_504" data-name="Path 504" d="M817.211,426.27a104.686,104.686,0,0,0-2.86-13.719c-.9-2.857-2.806-3.4-2.806-3.4L805.5,418.9s.939,6.617,2.076,14.168A31.093,31.093,0,0,0,817.211,426.27Z" fill="#9679bc"/>
    <path id="Path_505" data-name="Path 505" d="M779.131,407.491c-3.318,2.277-7.019,8.833-9.678,15.106a31.194,31.194,0,0,0,7.933,7.819l5.739-9.451S781.555,405.827,779.131,407.491Z" fill="#9679bc"/>
    <path id="Path_506" data-name="Path 506" d="M806.405,417.14l1.523,15.766c.166-.077.332-.155.5-.236l-1.505-15.58Z" fill="#8067a8"/>
    <path id="Path_507" data-name="Path 507" d="M781.423,417.371l-.18.017c-.034.281-1.312,6.606-1.991,9.944l.794-1.323c.784-3.841,1.713-8.366,1.713-8.638Z" fill="#8067a8"/>
    <path id="Path_508" data-name="Path 508" d="M801.039,408.3a9.576,9.576,0,0,0,1.332-2.656l-.5-.147a9.1,9.1,0,0,1-1.265,2.517,7.569,7.569,0,0,1-6.5,3.137,6.721,6.721,0,0,1-6.146-3.121,8.113,8.113,0,0,1-1.071-2.894c-.165.023-.336.049-.513.076a8.515,8.515,0,0,0,1.133,3.073,7.239,7.239,0,0,0,6.6,3.384A8.124,8.124,0,0,0,801.039,408.3Z" fill="#8067a8"/>
    <g id="Group_424" data-name="Group 424">
      <path id="Path_509" data-name="Path 509" d="M784.578,418.838c-1.505,2.778-1.727,12.306-1.217,13.218s18.808,1.211,19.27.722,1.513-12.96.772-13.547S785.118,417.841,784.578,418.838Z" fill="#eae6e4"/>
    </g>
    <path id="Path_510" data-name="Path 510" d="M790.523,425.24a6.333,6.333,0,0,0-7.295.687c-.2,2.927-.128,5.661.133,6.129.244.437,4.574.733,9.069.869C793.01,431.118,793.818,427.139,790.523,425.24Z" fill="#ffbbc8"/>
    <path id="Path_511" data-name="Path 511" d="M803.4,419.231c-.308-.244-3.525-.526-7.216-.7-.184,1.923-.664,6.4-.445,6.71.2.279,5.074.657,7.723.842C803.7,422.817,803.775,419.526,803.4,419.231Z" fill="#80c7a7"/>
    <path id="Path_512" data-name="Path 512" d="M785.691,419.821a14.335,14.335,0,0,0-.239,2.566c.136.192,8.09.129,8.09.129l.251-2.695Z" fill="#fff"/>
    <path id="Path_513" data-name="Path 513" d="M794.443,428.517s-.616,2.769-.411,2.837,7.282,0,7.282,0a19.561,19.561,0,0,0,.137-2.243C801.382,428.824,794.443,428.517,794.443,428.517Z" fill="#ffd79c"/>
  </g>
</svg>
