<svg xmlns="http://www.w3.org/2000/svg" width="44.515" height="57.385" viewBox="0 0 44.515 57.385">
  <g id="Group_461" data-name="Group 461" transform="translate(-623.119 -528.26)">
    <g id="Group_427" data-name="Group 427">
      <path id="Path_514" data-name="Path 514" d="M652.074,530.516a4.058,4.058,0,0,0-3.213-2.217c-2.327-.222-8.316.5-9.806,2.217-2.638,3.038-3.434,9.86-4.044,13.073s-4.653,7.738-4.1,13.592a12.74,12.74,0,0,0,4.487,8.734l6.969-7.751,8.751-7.868s5.664-1.509,5.886-7.072S654.069,530.295,652.074,530.516Z" fill="#75434c"/>
    </g>
    <g id="Group_428" data-name="Group 428">
      <path id="Path_515" data-name="Path 515" d="M652.074,530.516a4.058,4.058,0,0,0-3.213-2.217c-2.327-.222-8.316.5-9.806,2.217-2.638,3.038-3.434,9.86-4.044,13.073s-4.653,7.738-4.1,13.592a12.74,12.74,0,0,0,4.487,8.734l6.969-7.751,8.751-7.868s5.664-1.509,5.886-7.072S654.069,530.295,652.074,530.516Z" fill="#75434c"/>
    </g>
    <g id="Group_429" data-name="Group 429">
      <path id="Path_516" data-name="Path 516" d="M637.773,541c-.918-.025-1.591.949-1.5,2.175a2.255,2.255,0,0,0,1.819,2.266c.917.025,1.59-.95,1.5-2.176A2.254,2.254,0,0,0,637.773,541Z" fill="#fc9c76"/>
    </g>
    <g id="Group_430" data-name="Group 430">
      <path id="Path_517" data-name="Path 517" d="M638.129,542.452c-.012-.044-.137-.368-.176-.461a2.86,2.86,0,0,0-.292.032c.037.32.2.65.255.967.005.026.008.052.012.078q-.087-.091-.177-.177a2.061,2.061,0,0,0-.7-.488c-.045.1-.091.21-.139.314l.008.009.6.444c.167.149.31.327.464.49.011.277.007.554.011.839,0,.191.258.259.294.056a4.452,4.452,0,0,0,0-1.294A5.644,5.644,0,0,0,638.129,542.452Z" fill="#ec685d"/>
    </g>
    <g id="Group_431" data-name="Group 431">
      <path id="Path_518" data-name="Path 518" d="M650.84,552.845a37.587,37.587,0,0,1-.425-4.3l-9.1.207s.423,5.8-2.15,6.228c-1.141.19,7.219,3.551,7.219,3.551l7.343-4.1S651.263,553.918,650.84,552.845Z" fill="#fc9c76"/>
    </g>
    <g id="Group_432" data-name="Group 432">
      <path id="Path_519" data-name="Path 519" d="M639.134,534.34c-1.6,2.776-.821,11.314.347,13.264,1.455,2.429,4.477,3.2,6.116,3.247a7.257,7.257,0,0,0,6.1-3.105c1.139-1.773,2.182-12.071.766-14.045C650.238,530.595,642.073,529.257,639.134,534.34Z" fill="#fc9c76"/>
    </g>
    <g id="Group_433" data-name="Group 433">
      <path id="Path_520" data-name="Path 520" d="M645.75,550.618a14.7,14.7,0,0,1-4.411-1.158c0,.227,0,.5-.01.8a11.719,11.719,0,0,0,4.564,1.258,12.9,12.9,0,0,0,4.625-1.439c-.028-.367-.051-.707-.068-.972A12.428,12.428,0,0,1,645.75,550.618Z" fill="#ec685d"/>
    </g>
    <g id="Group_434" data-name="Group 434">
      <path id="Path_521" data-name="Path 521" d="M654.4,541a2.29,2.29,0,0,0-1.915,2.265c-.092,1.226.617,2.2,1.582,2.176a2.292,2.292,0,0,0,1.915-2.266C656.07,541.953,655.362,540.979,654.4,541Z" fill="#fc9c76"/>
    </g>
    <g id="Group_435" data-name="Group 435">
      <path id="Path_522" data-name="Path 522" d="M654.42,542.891c-.063.057-.126.116-.187.177.005-.026.008-.052.013-.078.06-.317.229-.647.269-.967-.1-.016-.205-.026-.307-.032-.042.093-.173.417-.186.462a5.25,5.25,0,0,0-.167.808,4.189,4.189,0,0,0,0,1.294c.037.2.3.135.309-.056.005-.285,0-.562.011-.839.163-.163.313-.341.489-.49.2-.168.429-.279.628-.443l.008-.01c-.051-.1-.1-.209-.147-.314A2.178,2.178,0,0,0,654.42,542.891Z" fill="#ec685d"/>
    </g>
    <g id="Group_436" data-name="Group 436">
      <path id="Path_523" data-name="Path 523" d="M643.436,535.8a4.95,4.95,0,0,0-2.539.609c-.288.158-.071.592.231.51a22.823,22.823,0,0,1,2.409-.495C643.914,536.366,643.768,535.823,643.436,535.8Z" fill="#75434c"/>
    </g>
    <g id="Group_437" data-name="Group 437">
      <path id="Path_524" data-name="Path 524" d="M650.621,536.14a7.444,7.444,0,0,0-3.126-.217c-.341.059-.2.527.089.553.971.09,1.915.138,2.881.295A.325.325,0,0,0,650.621,536.14Z" fill="#75434c"/>
    </g>
    <path id="Path_525" data-name="Path 525" d="M653.224,554.2s-3.333,3.449-7.535,3.449-7.559-2.541-7.758-2.541c0,0-7.628,2.7-8.126,2.541s-3.677,6.178-3.677,6.178l7.767,2.089s-.3,8.795-.494,17.07a31.109,31.109,0,0,0,24.431.313c.093-8.543.1-17.842.1-17.842l7.477-1.85a47.15,47.15,0,0,0-2.208-4.971C662.689,558,653.224,554.2,653.224,554.2Z" fill="#f4f0ed"/>
    <g id="Group_439" data-name="Group 439">
      <g id="Group_438" data-name="Group 438">
        <path id="Path_526" data-name="Path 526" d="M643.784,542.038a.4.4,0,0,1-.107-.314c.037-.809,1.505-2.243,2.068-2.728l-.257-.3c-.22.189-2.153,1.888-2.2,3.012a.8.8,0,0,0,.217.613c.624.643,2.448.685,2.774.685h.03l0-.406A4.723,4.723,0,0,1,643.784,542.038Z" fill="#ec685d"/>
      </g>
    </g>
    <path id="Path_527" data-name="Path 527" d="M652.439,572.412c-.605.416-14.881,1.072-15.637.662s-.661-5.841-.661-5.841l-2.058,1.391s-.2,2.644-.468,6.238c-.073,2.535-.15,5.358-.214,8.124a31.216,31.216,0,0,0,22.192,1.151c.685-7.863,1.4-17.361,1.4-17.361h-1.832S653.044,572,652.439,572.412Z" fill="#eae4e1"/>
    <g id="Group_441" data-name="Group 441">
      <g id="Group_440" data-name="Group 440">
        <path id="Path_528" data-name="Path 528" d="M644.872,546.372l-.007.393h.1a5.476,5.476,0,0,0,1.359-.138l-.124-.373A5.6,5.6,0,0,1,644.872,546.372Z" fill="#ec685d"/>
      </g>
    </g>
    <g id="Group_442" data-name="Group 442">
      <path id="Path_529" data-name="Path 529" d="M642.215,538.266a.947.947,0,0,0-.9.987,1.048,1.048,0,0,0,.139.522,3.607,3.607,0,0,0,1.3.269,1.017,1.017,0,0,0,.367-.791A.947.947,0,0,0,642.215,538.266Z" fill="#49263e"/>
    </g>
    <g id="Group_443" data-name="Group 443">
      <path id="Path_530" data-name="Path 530" d="M649.337,538.266a.947.947,0,0,0-.9.987,1.014,1.014,0,0,0,.367.791,3.606,3.606,0,0,0,1.295-.269,1.048,1.048,0,0,0,.139-.522A.947.947,0,0,0,649.337,538.266Z" fill="#49263e"/>
    </g>
    <g id="Group_446" data-name="Group 446">
      <g id="Group_444" data-name="Group 444">
        <path id="Path_531" data-name="Path 531" d="M642.52,544.616l.151-.177h0Z" fill="#ec685d"/>
      </g>
      <g id="Group_445" data-name="Group 445">
        <path id="Path_532" data-name="Path 532" d="M645.42,545.188a4.5,4.5,0,0,1-2.749-.749l-.151.177-.152.177a4.855,4.855,0,0,0,3.052.861,4.515,4.515,0,0,0,3.062-.945l-.321-.337A4.163,4.163,0,0,1,645.42,545.188Z" fill="#ec685d"/>
      </g>
    </g>
    <path id="Path_533" data-name="Path 533" d="M639.289,584.918c-.146-14.461-.577-30.718-.577-30.718s-10.165,3.255-12.176,5.2c-.92.889-1.829,8.265-2.282,11.275-.192,1.27,4.529,5.3,4.871,5.355a34.718,34.718,0,0,1-.323,4.426A30.848,30.848,0,0,0,639.289,584.918Z" fill="#80c7a7"/>
    <g id="Group_447" data-name="Group 447">
      <path id="Path_534" data-name="Path 534" d="M647.555,530.717c-2.562-.213-5.187-.878-7.955,2.4-1.054,1.248-1.782,6.115-1.782,6.115l.315,1.768a7.226,7.226,0,0,0,.442,2.064c.244.152.517-4.989.487-5.232s1.521-4.593,2.859-5.567,6.894-.861,8-.158,2.156,4.838,2.553,5.205-.12,6.482.245,6.269.943-3.529.943-3.529-.141-5.235-.377-6.053S650.117,530.93,647.555,530.717Z" fill="#75434c"/>
    </g>
    <g id="Group_448" data-name="Group 448">
      <path id="Path_535" data-name="Path 535" d="M641.158,552.261c0-.073-.007-.146-.007-.22,0-2.539-9.166,1.087-9.166,1.087l-.871.454a20.228,20.228,0,0,0-.187,5.48c-1.495-2.7-.285-6.873,1.534-10.159a52.986,52.986,0,0,0,3.868-10.142l-.449-.122a52.54,52.54,0,0,1-3.826,10.038c-2.071,3.741-3.353,8.617-.974,11.417a7.587,7.587,0,0,0,3.53,5.569,8.259,8.259,0,0,0,3.608,1.029,7.215,7.215,0,0,1-.772-3.936,8.448,8.448,0,0,0,2.844,3.784,9.683,9.683,0,0,0,2.3-.767,8.967,8.967,0,0,1-.957-2.319,6.741,6.741,0,0,0,1.848,1.84,5.255,5.255,0,0,0,2.216-2.158c.367-1.166-2.6-4.089-3.927-7.793a13.784,13.784,0,0,0,4.454,5.131l.268-.381A13.059,13.059,0,0,1,641.158,552.261Z" fill="#75434c"/>
    </g>
    <g id="Group_450" data-name="Group 450">
      <g id="Group_449" data-name="Group 449">
        <path id="Path_536" data-name="Path 536" d="M655.87,536.579l-.148.239-.147.114c.266.342,2.5,4.476,1.722,7.653a4.491,4.491,0,0,1-2.648,3.1l.2.423a4.993,4.993,0,0,0,3.068-4.507A13.184,13.184,0,0,0,655.87,536.579Z" fill="#75434c"/>
      </g>
    </g>
    <g id="Group_452" data-name="Group 452">
      <g id="Group_451" data-name="Group 451">
        <path id="Path_537" data-name="Path 537" d="M641.471,533.325a32.821,32.821,0,0,0-1.493,3.147,15.667,15.667,0,0,1-1.554,3.1l.288.366a12.592,12.592,0,0,0,1.692-3.277,32.441,32.441,0,0,1,1.466-3.094c.9-1.5,3.576-2.073,3.6-2.079l-.094-.456C645.26,531.055,642.477,531.649,641.471,533.325Z" fill="#75434c"/>
      </g>
    </g>
    <g id="Group_456" data-name="Group 456" opacity="0.11">
      <g id="Group_453" data-name="Group 453">
        <path id="Path_538" data-name="Path 538" d="M642.2,556.777c.132-.015-.257-.3-.269-.3a2.847,2.847,0,0,0-2.536-.14c-.915.37-1.969,1.606-2.912.863-1.689-1.33-3.182-1.95-5.333-1.265-.1.033-.2.067-.3.1a19.854,19.854,0,0,0,.01,2.2,4.033,4.033,0,0,1,2.458-.508c1.583.259,2.241,2.075,4.017,1.909a4.831,4.831,0,0,0,2.108-.933,2.712,2.712,0,0,1,1.02-.534c.472-.021.85.417,1.272.566a1.736,1.736,0,0,0,1.606-.2c-.352-.59-.7-1.219-1.014-1.881C642.272,556.725,642.226,556.774,642.2,556.777Z" fill="#fff"/>
      </g>
      <g id="Group_454" data-name="Group 454">
        <path id="Path_539" data-name="Path 539" d="M642.6,556.266c-.026.03-.093.136-.166.244a13.676,13.676,0,0,0,1.269,1.7c.091-.107.189-.235.292-.371a13.3,13.3,0,0,1-1.261-1.723C642.688,556.167,642.641,556.216,642.6,556.266Z" fill="#fff"/>
      </g>
      <g id="Group_455" data-name="Group 455">
        <path id="Path_540" data-name="Path 540" d="M629.8,556.5a6.656,6.656,0,0,0,.415,2.139c.126-.094.26-.18.4-.262a6.383,6.383,0,0,1-.36-2.1C630.1,556.344,629.951,556.418,629.8,556.5Z" fill="#fff"/>
      </g>
    </g>
    <g id="Group_457" data-name="Group 457" opacity="0.11">
      <path id="Path_541" data-name="Path 541" d="M650.557,528.864a19.748,19.748,0,0,1-4.063.486,11.783,11.783,0,0,1-3.208-.6,13.582,13.582,0,0,0-3.028.932,11.673,11.673,0,0,0,6.1,1.347,14.14,14.14,0,0,0,5.359-1.091A4.193,4.193,0,0,0,650.557,528.864Z" fill="#fff"/>
    </g>
    <g id="Group_458" data-name="Group 458">
      <path id="Path_542" data-name="Path 542" d="M642.529,540.473c-.238-.046-.48-.058-.716-.11s-.461-.148-.7-.2a.268.268,0,0,0-.248.451,1.791,1.791,0,0,0,1.677.393A.281.281,0,0,0,642.529,540.473Z" fill="#ffac8f"/>
    </g>
    <g id="Group_459" data-name="Group 459">
      <path id="Path_543" data-name="Path 543" d="M650.376,540.507a6.521,6.521,0,0,0-.811.067,5.487,5.487,0,0,0-.78.067c-.287.066-.21.435.013.519a2.354,2.354,0,0,0,1.723-.166A.265.265,0,0,0,650.376,540.507Z" fill="#ffac8f"/>
    </g>
    <g id="Group_460" data-name="Group 460">
      <path id="Path_544" data-name="Path 544" d="M646.087,547.6a2.419,2.419,0,0,0-.721,0,.926.926,0,0,0-.668.254.269.269,0,0,0,.2.448c.222,0,.446-.022.669-.026a.811.811,0,0,0,.657-.211A.284.284,0,0,0,646.087,547.6Z" fill="#ffac8f"/>
    </g>
    <path id="Path_545" data-name="Path 545" d="M663.677,558.419c-1.1-.965-11.611-4.687-11.611-4.687s-.958-.665-.967-.5c0,.051.922,1,.918,1.065-.142,2.721-.924,17.778-1.484,31.01a30.809,30.809,0,0,0,11.136-3.922c-.306-3.907-.542-6.733-.542-6.733s5.456-4.578,5.456-6.166S664.776,559.385,663.677,558.419Z" fill="#80c7a7"/>
    <path id="Path_546" data-name="Path 546" d="M624.928,565.916s-1.026,5.28-1.809,9.676a31.074,31.074,0,0,0,12.073,8.124c-1.431-3.99-2.628-7.385-2.628-7.385s-1.371-6.766-2.354-6.938S624.928,565.916,624.928,565.916Z" fill="#80c7a7"/>
    <path id="Path_547" data-name="Path 547" d="M667.634,576.837c-.365-4.087-1.092-8.8-1.092-8.8l-7.937,2.321-4.331,14.166A31,31,0,0,0,667.634,576.837Z" fill="#80c7a7"/>
    <path id="Path_548" data-name="Path 548" d="M631.493,565.324c-.29,5.054-.851,14.7-.89,15.011-.012.088-.024.185.866,1.711.283.15.57.3.859.438-.677-1.138-1.126-1.925-1.207-2.134.084-1.011.856-14.412.889-15Z" fill="#72b796"/>
    <path id="Path_549" data-name="Path 549" d="M659.089,579.1c-.111.228-1.458,2.46-2.886,4.822.261-.091.519-.185.776-.283,1.564-2.588,2.508-4.157,2.587-4.335.214-.482.841-11.055,1.028-14.284l-.517-.03C659.765,570.367,659.246,578.544,659.089,579.1Z" fill="#72b796"/>
  </g>
</svg>
