<svg xmlns="http://www.w3.org/2000/svg" width="51.18" height="57.079" viewBox="0 0 51.18 57.079">
  <g id="Group_144" data-name="Group 144" transform="translate(-696.949 -604.536)">
    <g id="Group_106" data-name="Group 106">
      <path id="Path_241" data-name="Path 241" d="M724.366,612.276c.087.029,5.981,2.131,5.285,4.082s-14.523,2.882-14.523,2.882-3.239-6.989-3.152-7.121S724.366,612.276,724.366,612.276Z" fill="#f85453"/>
    </g>
    <g id="Group_107" data-name="Group 107">
      <path id="Path_242" data-name="Path 242" d="M724,612.64c.087.029,6.149,2.2,5.285,4.082-.594,1.3-14.523,2.882-14.523,2.882s-3.239-6.989-3.152-7.121S724,612.64,724,612.64Z" fill="#ea4747"/>
    </g>
    <path id="Path_243" data-name="Path 243" d="M702.441,638.436c-1.521,1.21-4.239,8.33-5.492,12.453a31.255,31.255,0,0,0,4.869,4.539c.688.13,1.169.217,1.211.239C703.029,655.667,704.538,636.769,702.441,638.436Z" fill="#80c7a7"/>
    <g id="Group_108" data-name="Group 108">
      <path id="Path_244" data-name="Path 244" d="M728.014,655.076a.036.036,0,0,0,.02.018l-.016-.019Z" fill="#ee685d"/>
    </g>
    <g id="Group_110" data-name="Group 110">
      <g id="Group_109" data-name="Group 109">
        <path id="Path_245" data-name="Path 245" d="M721.1,628.9a32.114,32.114,0,0,0-8.827,2.07l1.589,16.023,17.025-2.34-1.758-15.731A40.788,40.788,0,0,0,721.1,628.9Z" fill="#fb9b76"/>
      </g>
    </g>
    <g id="Group_111" data-name="Group 111">
      <ellipse id="Ellipse_98" data-name="Ellipse 98" cx="1.58" cy="2.082" rx="1.58" ry="2.082" transform="matrix(0.986, -0.166, 0.166, 0.986, 706.356, 619.245)" fill="#fb9b76"/>
    </g>
    <g id="Group_112" data-name="Group 112">
      <path id="Path_246" data-name="Path 246" d="M708.227,618.971a1.229,1.229,0,0,0-.314.012c-.022,0-.044.01-.066.015a26.245,26.245,0,0,0,.226,4.061,1.292,1.292,0,0,0,.391.044A26.371,26.371,0,0,1,708.227,618.971Z" fill="#eb685d"/>
    </g>
    <g id="Group_113" data-name="Group 113">
      <path id="Path_247" data-name="Path 247" d="M726.648,616.167a2.512,2.512,0,0,0-1.858,2.388c-.092,1.21.592,2.1,1.527,1.993a2.513,2.513,0,0,0,1.858-2.388C728.267,616.95,727.583,616.058,726.648,616.167Z" fill="#fb9b76"/>
    </g>
    <g id="Group_114" data-name="Group 114">
      <path id="Path_248" data-name="Path 248" d="M710.554,610.082a12.835,12.835,0,0,0-2.256,5.269,32.375,32.375,0,0,0-.136,4.462c-.144,5.347,1.881,9.829,9.428,9.032,13.536-1.428,6.212-16.956,6.212-16.956C720.35,606.878,713.485,606.075,710.554,610.082Z" fill="#fb9b76"/>
    </g>
    <g id="Group_116" data-name="Group 116">
      <g id="Group_115" data-name="Group 115">
        <path id="Path_249" data-name="Path 249" d="M726.483,628.938c-2.26-.535-1.407-4.983-1.407-4.983l-10.6,3.5.786,5.281,4,1.1S728.591,629.436,726.483,628.938Z" fill="#fb9b76"/>
      </g>
    </g>
    <g id="Group_117" data-name="Group 117">
      <path id="Path_250" data-name="Path 250" d="M715.224,605.824c-5.034.807-6.385,5.564-7.1,9.028a20.325,20.325,0,0,0-.243,6.121s.284-.064.314-.029a36.909,36.909,0,0,1,.149-4.195c.081-.751.551-5.27,3.723-6.438a16.258,16.258,0,0,1,3.224-.719,20.084,20.084,0,0,1,3.206-.234,6.11,6.11,0,0,1,1.4.116c2.09.509,2.1,2,2.886,3.671a5.534,5.534,0,0,0,.832,1.383c.4.477.356,3.795,1.035,4.943.08.136.762.247.676-1.965a1.491,1.491,0,0,1,.469-.955C725.184,612.67,723.151,604.554,715.224,605.824Z" fill="#49263e"/>
    </g>
    <g id="Group_118" data-name="Group 118">
      <path id="Path_251" data-name="Path 251" d="M714.7,629l.052.344a11.115,11.115,0,0,0,2.689-.05,10.168,10.168,0,0,0,4.352-1.618l-.06-.4A9.9,9.9,0,0,1,714.7,629Z" fill="#eb685d"/>
    </g>
    <g id="Group_121" data-name="Group 121">
      <g id="Group_119" data-name="Group 119">
        <path id="Path_252" data-name="Path 252" d="M726.545,617.225l-.008.032C726.61,617.236,726.663,617.209,726.545,617.225Z" fill="#eb685d"/>
      </g>
      <g id="Group_120" data-name="Group 120">
        <path id="Path_253" data-name="Path 253" d="M726.973,617.287l-.114-.311a1.7,1.7,0,0,0-.9,1.353.641.641,0,0,0-.039.246h.01a4.153,4.153,0,0,0,.1,1.2l.326-.085a3.555,3.555,0,0,1-.07-1.287.06.06,0,0,1,.03-.026c.274-.061.426-.09.505-.1l.067-.3a1.292,1.292,0,0,0-.493.008A1.217,1.217,0,0,1,726.973,617.287Z" fill="#eb685d"/>
      </g>
    </g>
    <path id="Path_254" data-name="Path 254" d="M726.108,628.722c-.008.107,1.392.268,1.371.431a7.061,7.061,0,0,1-6.353,6.406c-6.152.846-7.185-2.854-7.413-4.616-.056-.435,1.026-.645,1.023-.782-.005-.212-2.68.764-2.68.764a30.024,30.024,0,0,0-6.227,3.189l-.135,23.793a31.049,31.049,0,0,0,32.4-1.824l.37-25.238a32.646,32.646,0,0,0-10.7-2.546S726.119,628.562,726.108,628.722Z" fill="#80c7a7"/>
    <g id="Group_122" data-name="Group 122">
      <path id="Path_255" data-name="Path 255" d="M717.621,624.547a4.972,4.972,0,0,1-.865.207.218.218,0,0,0,.027.435,1.827,1.827,0,0,0,1.028-.259A.217.217,0,0,0,717.621,624.547Z" fill="#eb685d"/>
    </g>
    <g id="Group_123" data-name="Group 123">
      <path id="Path_256" data-name="Path 256" d="M727.969,634.58a10.711,10.711,0,0,0,1.681-6.076l-.388-.049a10.44,10.44,0,0,1-1.607,5.913,9.57,9.57,0,0,1-6.444,3.861c-2.861.549-5.176.13-6.881-1.245a9.359,9.359,0,0,1-2.966-5.79l-.368.151a9.581,9.581,0,0,0,3.094,5.933,7.8,7.8,0,0,0,5.726,1.527,13.786,13.786,0,0,0,1.467-.2A9.932,9.932,0,0,0,727.969,634.58Z" fill="#71b594"/>
    </g>
    <g id="Group_124" data-name="Group 124">
      <path id="Path_257" data-name="Path 257" d="M711.049,617.228a9.094,9.094,0,0,1-1.27-.305c-.244-.084-.352.261-.132.369a3.188,3.188,0,0,0,1.368.349A.207.207,0,0,0,711.049,617.228Z" fill="#ffbba3"/>
    </g>
    <g id="Group_125" data-name="Group 125">
      <path id="Path_258" data-name="Path 258" d="M721.043,616.148c-.532.218-1.077.413-1.623.594-.222.073-.1.442.129.389a7.356,7.356,0,0,0,1.673-.617A.2.2,0,0,0,721.043,616.148Z" fill="#ffbba3"/>
    </g>
    <g id="Group_126" data-name="Group 126">
      <path id="Path_259" data-name="Path 259" d="M719.912,620.049c-1.057-.327-1.632,1.229-3.387,1.465s-3.1-.8-3.672.075c-.509.776.463,3.248,4.1,2.634S720.969,620.376,719.912,620.049Z" fill="#49263e"/>
    </g>
    <g id="Group_127" data-name="Group 127">
      <path id="Path_260" data-name="Path 260" d="M716.525,621.514c-1.276.171-2.332-.33-3.035-.28-.051.373-.079,1.077.4,1.222.653.2,5.1-.494,5.422-1.059a1.983,1.983,0,0,0,.036-1.351C718.59,620.271,717.943,621.323,716.525,621.514Z" fill="#fff"/>
    </g>
    <g id="Group_128" data-name="Group 128" opacity="0.22">
      <path id="Path_261" data-name="Path 261" d="M716.525,621.48c-1.276.172-2.332-.33-3.035-.28-.051.373-.079,1.077.4,1.222l.019.005c.128-.539.817-.676,1.382-.685a4.075,4.075,0,0,0,1.432-.16c.519-.185,1.005-.466,1.531-.632.575-.182.9.191.829.593a.576.576,0,0,0,.229-.18,1.98,1.98,0,0,0,.036-1.35C718.59,620.237,717.943,621.289,716.525,621.48Z" fill="#c0ac99"/>
    </g>
    <g id="Group_129" data-name="Group 129">
      <path id="Path_262" data-name="Path 262" d="M716.952,623.2c-1.038-.539-2.146.495-2.52.9a5.032,5.032,0,0,0,2.524.13,4.828,4.828,0,0,0,2.267-.961,2.939,2.939,0,0,0-.95-.5A1.625,1.625,0,0,0,716.952,623.2Z" fill="#8b3b5a"/>
    </g>
    <g id="Group_130" data-name="Group 130">
      <path id="Path_263" data-name="Path 263" d="M711.311,615.288a.785.785,0,0,0-.867.787.973.973,0,0,0,1.009.786.784.784,0,0,0,.866-.787A.97.97,0,0,0,711.311,615.288Z" fill="#49263e"/>
    </g>
    <g id="Group_131" data-name="Group 131">
      <path id="Path_264" data-name="Path 264" d="M719.725,614.229a1.067,1.067,0,0,0-.966.983.806.806,0,0,0,.985.732,1.066,1.066,0,0,0,.966-.983A.806.806,0,0,0,719.725,614.229Z" fill="#49263e"/>
    </g>
    <g id="Group_133" data-name="Group 133">
      <g id="Group_132" data-name="Group 132">
        <path id="Path_265" data-name="Path 265" d="M713.454,618.449c-.581-1.06,1.3-2.523,2.074-3l-.207-.337c-.126.077-3.095,1.918-2.214,3.524a1.882,1.882,0,0,0,1.785.877,6.987,6.987,0,0,0,2.42-.55l-.158-.363C717.125,618.616,714.228,619.86,713.454,618.449Z" fill="#eb685d"/>
      </g>
    </g>
    <path id="Path_266" data-name="Path 266" d="M712.027,630.11a20.248,20.248,0,0,0-10.01,7.774c-.33.455-.1,12.719-.1,12.719s-.077,1.872-.184,4.759a30.9,30.9,0,0,0,11.349,5.38c-.566-13.6-1.1-27.7-.358-29.708a8.11,8.11,0,0,1,2.147-.865c.21-.032-.157-1.055-.174-1.17A24.954,24.954,0,0,0,712.027,630.11Z" fill="#f85453"/>
    <path id="Path_267" data-name="Path 267" d="M741.143,649.03s4.847-10.211,4.311-11.147c-4.721-8.232-13.689-9.993-14.318-10.167-.7-.2-6.169-1.04-6.169-1.04a1.786,1.786,0,0,0,.07.846c.386,1.081.842,1.241,1,1.341s1.548.1,1.282.539c-1.192,1.948-1.786,17.358-1.785,31.791a30.924,30.924,0,0,0,15.84-7.729C741.235,650.761,741.143,649.03,741.143,649.03Z" fill="#f85453"/>
    <g id="Group_134" data-name="Group 134">
      <path id="Path_268" data-name="Path 268" d="M714.936,604.788c-8.046,1.57-6.783,9.947-6.783,9.947s1.315-1.651,6.544-2.616a22.218,22.218,0,0,1,10.324.889S725.016,602.822,714.936,604.788Zm2.844,5.645a16.3,16.3,0,0,0-6.15.721s-1.059-3.587,3.019-4.338C718.854,606.042,717.78,610.433,717.78,610.433Z" fill="#f85453"/>
    </g>
    <g id="Group_135" data-name="Group 135">
      <path id="Path_269" data-name="Path 269" d="M710.891,611.388a11.318,11.318,0,0,0,.25,1.71,26.9,26.9,0,0,1,6.632-1.208.879.879,0,0,0,.849-.837h0a.879.879,0,0,0-.907-.919C716.056,610.192,712.641,610.427,710.891,611.388Z" fill="#f4f0ed"/>
    </g>
    <g id="Group_136" data-name="Group 136">
      <path id="Path_270" data-name="Path 270" d="M712.426,613.74a2.92,2.92,0,0,0-1.951.513c-.162.119-.06.43.156.346a6.175,6.175,0,0,1,1.8-.447A.206.206,0,0,0,712.426,613.74Z" fill="#49263e"/>
    </g>
    <g id="Group_137" data-name="Group 137">
      <path id="Path_271" data-name="Path 271" d="M720.449,612.782a6.441,6.441,0,0,0-2.3-.046c-.25.037-.257.418.01.4a19.942,19.942,0,0,1,2.241.051C720.64,613.207,720.675,612.833,720.449,612.782Z" fill="#49263e"/>
    </g>
    <g id="Group_138" data-name="Group 138">
      <path id="Path_272" data-name="Path 272" d="M712.031,611.967a.285.285,0,0,1-.263.3.277.277,0,0,1-.259-.3.286.286,0,0,1,.263-.3A.277.277,0,0,1,712.031,611.967Z" fill="#e2dad5"/>
    </g>
    <g id="Group_139" data-name="Group 139">
      <path id="Path_273" data-name="Path 273" d="M713.366,611.588a.279.279,0,0,1-.264.286.268.268,0,0,1-.258-.282.278.278,0,0,1,.263-.286A.269.269,0,0,1,713.366,611.588Z" fill="#e2dad5"/>
    </g>
    <g id="Group_140" data-name="Group 140">
      <path id="Path_274" data-name="Path 274" d="M714.7,611.319a.277.277,0,0,1-.263.285.269.269,0,0,1-.259-.282.279.279,0,0,1,.264-.285A.267.267,0,0,1,714.7,611.319Z" fill="#e2dad5"/>
    </g>
    <g id="Group_141" data-name="Group 141">
      <path id="Path_275" data-name="Path 275" d="M716.278,611.117a.287.287,0,0,1-.264.3.276.276,0,0,1-.258-.3.286.286,0,0,1,.263-.3A.277.277,0,0,1,716.278,611.117Z" fill="#e2dad5"/>
    </g>
    <g id="Group_142" data-name="Group 142">
      <path id="Path_276" data-name="Path 276" d="M717.734,611a.287.287,0,0,1-.264.3.277.277,0,0,1-.258-.3.285.285,0,0,1,.263-.3A.276.276,0,0,1,717.734,611Z" fill="#e2dad5"/>
    </g>
    <path id="Path_277" data-name="Path 277" d="M740.6,639.013l.2-.572a57.542,57.542,0,0,0-14.537-2.436c-.016.2-.031.4-.046.6A56.976,56.976,0,0,1,740.6,639.013Z" fill="#dd4545"/>
    <path id="Path_278" data-name="Path 278" d="M739.813,646.233l.081-.6a110.6,110.6,0,0,0-14.1-.624q-.011.3-.02.606A109.861,109.861,0,0,1,739.813,646.233Z" fill="#dd4545"/>
    <path id="Path_279" data-name="Path 279" d="M725.566,655.251c5.7-.082,11.03-.225,14.275-.472q.414-.333.816-.677c-3.079.29-8.863.454-15.084.543Q725.569,654.948,725.566,655.251Z" fill="#dd4545"/>
    <path id="Path_280" data-name="Path 280" d="M712.36,636.777a43.332,43.332,0,0,0-10.494,3.1c0,.213-.009.437-.012.673a42.054,42.054,0,0,1,10.506-3.154C712.359,637.183,712.359,636.977,712.36,636.777Z" fill="#dd4545"/>
    <path id="Path_281" data-name="Path 281" d="M712.508,645.37c-4.707.212-8.636.465-10.653.6,0,.206,0,.409.006.608,2-.138,5.941-.392,10.665-.6Q712.517,645.67,712.508,645.37Z" fill="#dd4545"/>
    <path id="Path_282" data-name="Path 282" d="M709.4,655.352c1.09,0,2.251,0,3.463,0l-.024-.606c-5.139.012-9.374-.006-11.081-.015-.008.2-.015.4-.023.606C703.034,655.34,705.834,655.352,709.4,655.352Z" fill="#dd4545"/>
    <g id="Group_143" data-name="Group 143">
      <path id="Path_283" data-name="Path 283" d="M703.494,648.273s-.391,3.915.217,4.193,6.425.07,6.6,0,.39-4.193,0-4.41S703.494,648.273,703.494,648.273Z" fill="#ff7171"/>
    </g>
    <path id="Path_284" data-name="Path 284" d="M709.979,609.931a6.557,6.557,0,0,1,5.407-5.1l-.026-.121c-.139.024-.28.048-.424.076a8.882,8.882,0,0,0-3.722,1.583,7.45,7.45,0,0,0-1.824,3.415,11.109,11.109,0,0,0-.181,4.148c.166-.1.355-.2.57-.308A10.63,10.63,0,0,1,709.979,609.931Z" fill="#ea4747"/>
    <path id="Path_285" data-name="Path 285" d="M719.077,604.7a8.577,8.577,0,0,0-1.241-.147c2.329.919,2.491,6.169,2.495,7.436q.311.035.608.077C720.945,611.017,720.861,606.608,719.077,604.7Z" fill="#ea4747"/>
    <path id="Path_286" data-name="Path 286" d="M746.289,647.713a80.6,80.6,0,0,0-8.33,3.277s.08,2.3.175,5.068A31.174,31.174,0,0,0,746.289,647.713Z" fill="#fb9b76"/>
    <path id="Path_287" data-name="Path 287" d="M748.129,644.548c-1.86-4.806-5.54-11.326-8.05-10.691-3.828.969-4.219,18.557-4.219,18.557,1.083.248,4.6-.43,7.757-1.231A31.08,31.08,0,0,0,748.129,644.548Z" fill="#80c7a7"/>
  </g>
</svg>
