<svg xmlns="http://www.w3.org/2000/svg" width="38.617" height="57.888" viewBox="0 0 38.617 57.888">
  <g id="Group_524" data-name="Group 524" transform="translate(-776.35 -452.411)">
    <g id="Group_523" data-name="Group 523">
      <path id="Path_586" data-name="Path 586" d="M813.251,494.71l-4.993,1.66s.745,6.933,1.052,10.356a31.021,31.021,0,0,0,4.917-3.225C813.806,499.525,813.251,494.71,813.251,494.71Z" fill="#cc7a64"/>
      <path id="Path_587" data-name="Path 587" d="M777.551,505.035a30.993,30.993,0,0,0,4.878,2.678c.144-2.079,1.224-10.253,1.224-10.253l-5.209-.778S777.944,501.013,777.551,505.035Z" fill="#cc7a64"/>
      <g id="Group_491" data-name="Group 491">
        <path id="Path_588" data-name="Path 588" d="M810.616,474.024c-.418-.278-.814-.566-.745-1.129a3.876,3.876,0,0,1,.3-.915c.176-.437.291-.771-.046-1.159a9.464,9.464,0,0,0-2.058-1.21,2.247,2.247,0,0,1-.716-.859,1.567,1.567,0,0,1-.071-.475c0-.028,0-.056.007-.086a.206.206,0,0,0,0-.056,1.951,1.951,0,0,0-.6-2.888,1.352,1.352,0,0,1-.249-.148.907.907,0,0,1-.226-.842,3.978,3.978,0,0,0,.122-.9c-.057-.685-.74-1.141-1.392-1.36a5.394,5.394,0,0,1-1.895-.777,1.394,1.394,0,0,1-.172-.18,1.691,1.691,0,0,0,1.485-.018c.214-.12.151-.5-.127-.445a2.309,2.309,0,0,1-.939.057c-.416-.089-.488-.355-.467-.752a.23.23,0,0,0-.047-.155,1.2,1.2,0,0,0-.414-.7,3.875,3.875,0,0,0-1.421-.8,3.822,3.822,0,0,0,.048-1.015,4.544,4.544,0,0,0-.749-2.268,4.248,4.248,0,0,0-3.356-1.732,1.176,1.176,0,0,0-1.148-.8,3.5,3.5,0,0,0-2.319.946,2.083,2.083,0,0,0-.739.29c-.248.164-.446.4-.7.557a.985.985,0,0,1-.12.066,5.042,5.042,0,0,0-2.565-.386,1.091,1.091,0,0,0-.668.425c-.166.284-.034.511-.029.812.016,1.017-1.649.451-2.269.809a.857.857,0,0,0-.451.9,13.975,13.975,0,0,0-2.149,1.554c-1,.842-.376,2.151-.759,3.2a6.855,6.855,0,0,1-1.672,1.022c-.639.313-1.236.583-1.329,1.37a4.6,4.6,0,0,0,.119.875c.124.165.093.324-.092.475a1.428,1.428,0,0,0-.215.1,2.9,2.9,0,0,0-.4.29,1.546,1.546,0,0,0-.382,1.572c.089.264.48.126.454-.13a1.2,1.2,0,0,1,.751-1.351c.187-.1.4-.175.495-.38.123-.257-.006-.457-.093-.7a1.048,1.048,0,0,1,.572-1.469,1.072,1.072,0,0,0-.267.619,2.353,2.353,0,0,0,.235.9,1.009,1.009,0,0,1-.018.9,1.414,1.414,0,0,1-.787.409c-.287.091-.6.276-.625.576s.058.41-.087.683a7.592,7.592,0,0,1-.456.64,12.048,12.048,0,0,0-.813,1.359,3.391,3.391,0,0,0-.466,2.575c.036.1.077.2.119.3a3.612,3.612,0,0,0,.135.815c.128.446.329.946-.014,1.347a1.991,1.991,0,0,1-1.028.506c-.8.266-.912,1.033-.614,1.758a.21.21,0,0,0,.069.091.71.71,0,0,0-.062.621c.077.173.239.3.315.471a1.437,1.437,0,0,1-.066.871c-.192.869,1.287,2.035,1.9,2.53.255.208.508.417.772.613.228.169.48.491.749.565a3.019,3.019,0,0,0,.61.049,1.99,1.99,0,0,1,.741.2.334.334,0,0,1,.154.125c.08.149-.071.313-.1.478-.061.311.322.541.637.514s.6-.2.92-.231c.647-.067,1.267.461,1.9.322a2.758,2.758,0,0,1,.643-.176c.283.012.358.19.588.305a2.652,2.652,0,0,0,1.36.193,1.953,1.953,0,0,0,.228.866c.184.231.692.214.509-.176-.05-.107-.149-.184-.2-.289a.554.554,0,0,1,.34-.708,1.531,1.531,0,0,1,.872,0,11,11,0,0,0,4.572.431,12.755,12.755,0,0,0,2.786-1.264,4.453,4.453,0,0,1,2.947-.594,7.923,7.923,0,0,1,2,1.007c.195.11.456.207.627.061a.935.935,0,0,0,.181-.326c.231-.471.852-.56,1.376-.588l1.346-.073c.36-.02.795-.089.932-.423.25-.607-.8-1.2-.524-1.8a.765.765,0,0,1,.6-.373,12.065,12.065,0,0,1,1.807.087c.6-.01,1.3-.368,1.322-.972.011-.366-.238-.7-.242-1.066-.007-.585.495-.8.757-1.226a1.32,1.32,0,0,0-.1-1.312c-.257-.439-.649-.787-.917-1.219a1.957,1.957,0,0,1-.276-1.524c.139-.5.531-.934.553-1.456a1.294,1.294,0,0,0-.184-.691,2.553,2.553,0,0,1,.494.328c.614.535.273.84.078,1.423a2.518,2.518,0,0,0-.2.969,1.558,1.558,0,0,0,1.069,1.157C810.628,474.538,810.843,474.174,810.616,474.024Zm-33.382,2.1c-.112.079-.225.158-.331.244a1.261,1.261,0,0,1,0-.692c.145-.309.686-.317.973-.442a1.891,1.891,0,0,0,.511-.331A3.69,3.69,0,0,1,777.234,476.124Zm10.16-19.851a3.469,3.469,0,0,0-.7.18l.154-.2.336-.021c.118,0,.236.01.353.02Zm2.034-1.207a2.481,2.481,0,0,0-.318.367c.032-.229-.1-.446-.07-.661.085-.715,1.187-.482,2-.24A3.174,3.174,0,0,0,789.428,455.066Zm5.067-1.831a3.22,3.22,0,0,1,.905-.271.883.883,0,0,1,.882.208A17.291,17.291,0,0,0,794.495,453.235Zm12.428,13.555a2.6,2.6,0,0,1,.135-.339,3.2,3.2,0,0,1,.07.432,1.367,1.367,0,0,1-.028.475C806.981,467.183,806.839,467.092,806.923,466.79Z" fill="#49263e"/>
      </g>
      <g id="Group_492" data-name="Group 492">
        <ellipse id="Ellipse_114" data-name="Ellipse 114" cx="1.868" cy="2.466" rx="1.868" ry="2.466" transform="translate(784.291 469.052) rotate(-10.146)" fill="#cc7a64"/>
      </g>
      <g id="Group_493" data-name="Group 493">
        <path id="Path_589" data-name="Path 589" d="M802.845,482.519a7.084,7.084,0,0,1-2.531-.742c-.207-.365-.476-8.406-.576-8.492s-8.63,1.679-8.63,1.679c.362.054.627,2.5.692,2.914s-.266,3.791-.736,3.944a9.873,9.873,0,0,1-2.069.509l-.046,7.176c4.421-.011,9.455-.026,13.852-.048Z" fill="#cc7a64"/>
      </g>
      <g id="Group_494" data-name="Group 494">
        <ellipse id="Ellipse_115" data-name="Ellipse 115" cx="1.559" cy="2.055" rx="1.559" ry="2.055" transform="translate(801.363 467.084) rotate(-0.832)" fill="#cc7a64"/>
      </g>
      <g id="Group_495" data-name="Group 495">
        <path id="Path_590" data-name="Path 590" d="M786.7,463.531s.648,8.185,1.874,11.188,5.221,4.495,7.15,4.265c2.151-.257,5.817-4.1,5.953-5.256s.934-10.2-.386-12.407S788.4,458.939,786.7,463.531Z" fill="#cc7a64"/>
      </g>
      <g id="Group_496" data-name="Group 496">
        <path id="Path_591" data-name="Path 591" d="M791.774,473.194a9.39,9.39,0,0,1,3.165-.835,9.119,9.119,0,0,1,3.286.028c.4.238-.589,2.724-2.989,3.061C792.813,475.789,791.266,474.027,791.774,473.194Z" fill="#ff7d7d"/>
      </g>
      <g id="Group_497" data-name="Group 497">
        <path id="Path_592" data-name="Path 592" d="M792.078,473.2a9.855,9.855,0,0,0,5.828-.74l.273.123s-.459,1.391-3.054,1.776-3.262-.85-3.262-.85Z" fill="#49263e"/>
      </g>
      <g id="Group_498" data-name="Group 498">
        <path id="Path_593" data-name="Path 593" d="M797.653,472.533a10.124,10.124,0,0,1-5.382.677c0,.009,0,.018,0,.027a3.164,3.164,0,0,1-.173.513,3.528,3.528,0,0,0,3.031.578,4.178,4.178,0,0,0,2.793-1.342A3.286,3.286,0,0,1,797.653,472.533Z" fill="#fff"/>
      </g>
      <g id="Group_499" data-name="Group 499" opacity="0.22">
        <path id="Path_594" data-name="Path 594" d="M797.653,472.533a10.124,10.124,0,0,1-5.382.677c0,.009,0,.018,0,.027a3.164,3.164,0,0,1-.173.513,2.07,2.07,0,0,0,.4.284c.465-.65,1.08-.583,1.809-.437a2.512,2.512,0,0,0,1.457-.1c.334-.131.608-.453.964-.527a.574.574,0,0,1,.725.467,2.739,2.739,0,0,0,.466-.454A3.286,3.286,0,0,1,797.653,472.533Z" fill="#bcae95"/>
      </g>
      <g id="Group_500" data-name="Group 500">
        <path id="Path_595" data-name="Path 595" d="M794.022,471.371a1.6,1.6,0,0,1-1.168-.355c-.629-.691.718-3.315.994-3.834l.343.183c-.734,1.378-1.344,3.066-1.05,3.39.357.391,1.745.2,2.535-.007l.1.375A7.462,7.462,0,0,1,794.022,471.371Z" fill="#49263e"/>
      </g>
      <g id="Group_501" data-name="Group 501">
        <path id="Path_596" data-name="Path 596" d="M791.223,468.907a6.854,6.854,0,0,0-1.723.034c-.3.033-.228.5.07.48.552-.038,1.108-.012,1.659-.056C791.485,469.344,791.466,468.944,791.223,468.907Z" fill="#e28674"/>
      </g>
      <g id="Group_502" data-name="Group 502">
        <path id="Path_597" data-name="Path 597" d="M799.455,467.709a5.115,5.115,0,0,0-2.032.621.226.226,0,0,0,.177.414c.655-.22,1.32-.388,1.98-.588C799.839,468.078,799.691,467.694,799.455,467.709Z" fill="#e28674"/>
      </g>
      <g id="Group_503" data-name="Group 503">
        <path id="Path_598" data-name="Path 598" d="M795.286,469.651a3.193,3.193,0,0,0-1.634.221.22.22,0,0,0,.12.416,10.785,10.785,0,0,0,1.519-.172A.236.236,0,0,0,795.286,469.651Z" fill="#e28674"/>
      </g>
      <g id="Group_504" data-name="Group 504">
        <path id="Path_599" data-name="Path 599" d="M795.946,475.788c-.361.047-.711.144-1.075.178-.329.031-.251.526.073.505a2.987,2.987,0,0,0,1.128-.245A.231.231,0,0,0,795.946,475.788Z" fill="#b76656"/>
      </g>
      <g id="Group_505" data-name="Group 505">
        <path id="Path_600" data-name="Path 600" d="M799.421,464.518a5.4,5.4,0,0,0-3.24.825c-.227.14,0,.493.237.392a10.3,10.3,0,0,1,3.008-.753A.235.235,0,0,0,799.421,464.518Z" fill="#49263e"/>
      </g>
      <g id="Group_506" data-name="Group 506">
        <path id="Path_601" data-name="Path 601" d="M791.869,466.144a4.99,4.99,0,0,0-2.847-.192.225.225,0,0,0,.065.444,7.867,7.867,0,0,1,2.665.2C792.016,466.65,792.109,466.242,791.869,466.144Z" fill="#49263e"/>
      </g>
      <g id="Group_507" data-name="Group 507">
        <path id="Path_602" data-name="Path 602" d="M786.407,469.62a.225.225,0,0,0-.444.065c.058.417.12.846.2,1.272-.2-.132-.406-.259-.592-.407s-.485.134-.3.316a3.217,3.217,0,0,0,1.051.8,7.453,7.453,0,0,0,.3.946.226.226,0,0,0,.428-.123C786.9,471.525,786.608,470.573,786.407,469.62Z" fill="#49263e"/>
      </g>
      <g id="Group_508" data-name="Group 508">
        <path id="Path_603" data-name="Path 603" d="M803.662,468.258a5.7,5.7,0,0,0-.579.445c.007-.342.038-.687.074-1.047a.185.185,0,0,0-.366-.046,4.174,4.174,0,0,0,.066,2.633c.088.2.443.115.382-.11a4.636,4.636,0,0,1-.142-.851c.282-.218.526-.5.8-.731A.187.187,0,0,0,803.662,468.258Z" fill="#49263e"/>
      </g>
      <g id="Group_509" data-name="Group 509">
        <path id="Path_604" data-name="Path 604" d="M801.692,460.022c-.508-.632-6.707-2.045-9.26-1.356s-6.57,3.32-6.792,4.73-2.36,9.767-2.36,9.767,5.246,1.476,5.122,1.091a35.383,35.383,0,0,1-.765-4.385,17.636,17.636,0,0,1,1.557-3.5,26.025,26.025,0,0,1,5.708-4.928l-.006.016c-.107.316,0,.607-.081.917-.109.438-.432.487-.847.6-.226.059-.455.11-.682.17a1.828,1.828,0,0,0-1.363.907.9.9,0,0,0,.446,1.181c.239.121.451-.26.23-.409-.75-.5.208-.99.519-1.1.335-.118.7-.179,1.04-.269a1.946,1.946,0,0,0,.923-.42.951.951,0,0,0,.29-.782,1.21,1.21,0,0,1,.355-1.138,2.555,2.555,0,0,1,.665-.4,4.734,4.734,0,0,0,3.9.606,2.869,2.869,0,0,0,.614,3.579c.295,1.8.646,3.613.879,3.71a.5.5,0,0,0,.667-.213l-.033-1.382S802.2,460.653,801.692,460.022Zm-1.215,2.027c.062.438.148,1.033.248,1.686A2.3,2.3,0,0,1,800.477,462.049Z" fill="#49263e"/>
      </g>
      <path id="Path_605" data-name="Path 605" d="M795.254,479.182a4.461,4.461,0,0,0,.8-.062,9.607,9.607,0,0,0,3.9-2.375l-.026-.508c-.69.65-2.509,2.25-3.94,2.5a8.371,8.371,0,0,1-4.178-.75c0,.092,0,.234-.009.412A10.116,10.116,0,0,0,795.254,479.182Z" fill="#49263e"/>
      <g id="Group_510" data-name="Group 510">
        <path id="Path_606" data-name="Path 606" d="M795.9,474.514c-.4.024-.768.216-1.172.22-.249,0-.308.4-.052.445a2.32,2.32,0,0,0,1.349-.239A.232.232,0,0,0,795.9,474.514Z" fill="#ff9292"/>
      </g>
      <g id="Group_511" data-name="Group 511">
        <path id="Path_607" data-name="Path 607" d="M789.69,481.957s-.242,3.548,4.87,3.68a7.753,7.753,0,0,0,7.093-3.6s9.422,2.092,10.379,2.945,2.935,10.38,2.935,10.38l-7.259,2.1-.991-2.784-.361,12.157-22.476.3,1.143-12.834-.844,4.074-6.589-1.213s1.506-11.542,2.556-12.233S789.69,481.957,789.69,481.957Z" fill="#f9c164"/>
      </g>
      <path id="Path_608" data-name="Path 608" d="M794.846,510.3a30.9,30.9,0,0,0,13.271-2.975c-1.012-4.67-1.934-8.753-1.984-9.109-.357-2.546-.844-5.146-.844-5.146l-19.544-.022s-.2,1.774-.469,3.989c-.049.4-1.226,5.288-2.469,10.841A30.93,30.93,0,0,0,794.846,510.3Z" fill="#cbe8f0"/>
      <g id="Group_512" data-name="Group 512">
        <path id="Path_609" data-name="Path 609" d="M787.554,493.669a6.144,6.144,0,0,1-1.327-.1c-.129-.065-.264-.134-.01-1.564l0-.028.179.024.207,0a.5.5,0,0,1-.008.065,6.48,6.48,0,0,0-.137,1.159,15.419,15.419,0,0,0,1.953.03c.006-.229,0-.8,0-1.31l.388-.006a13.051,13.051,0,0,1-.017,1.524.213.213,0,0,1-.126.137A5.082,5.082,0,0,1,787.554,493.669Z" fill="#e8eeef"/>
      </g>
      <g id="Group_513" data-name="Group 513">
        <path id="Path_610" data-name="Path 610" d="M791.486,468.386s.007-.773-.981-.868a1.334,1.334,0,0,0-1.412.853A6.863,6.863,0,0,0,791.486,468.386Z" fill="#49263e"/>
      </g>
      <g id="Group_514" data-name="Group 514">
        <path id="Path_611" data-name="Path 611" d="M797.05,467.7a1.148,1.148,0,0,1,.795-1.172,1.126,1.126,0,0,1,1.481.432A6.046,6.046,0,0,1,797.05,467.7Z" fill="#49263e"/>
      </g>
      <path id="Path_612" data-name="Path 612" d="M784.843,496.48l1.345-7.75-.51-.089-1.255,7.229-6.474-1.264-.075.512,6.707,1.311.442-2.135-.194,2.183Z" fill="#ffd18d"/>
      <path id="Path_613" data-name="Path 613" d="M803.069,482.356a6.791,6.791,0,0,1-1.058,1.625,8.567,8.567,0,0,1-6.512,2.666c-6.191.168-6.967-3.623-7.059-4.35l-.5.139a5.145,5.145,0,0,0,1.054,2.349c.866,1.091,2.609,2.363,6.035,2.385.158,0,.32,0,.486-.005,3.735-.1,5.817-1.613,6.906-2.864a7.3,7.3,0,0,0,1.167-1.824Z" fill="#ffd18d"/>
      <path id="Path_614" data-name="Path 614" d="M814.581,493.579c-.036-.162-.074-.333-.114-.51-.581.169-2.247.7-7.39,2.361l-1-5.2-.509.1,1.1,5.781.007,0,.043-1.432.453,1.273C809.833,495.081,813.557,493.887,814.581,493.579Z" fill="#ffd18d"/>
      <g id="Group_515" data-name="Group 515">
        <path id="Path_615" data-name="Path 615" d="M795.986,506.748a32.313,32.313,0,0,1-4.893-.311c-.581-.119-.863-.261-.942-.477-.329-.892,0-7.126.037-7.833l.01-.177.176-.007c6.463-.251,9.815-.349,9.962-.289a.254.254,0,0,1,.141.2c.091.42.136,2.589.131,4.416-.009,3.907-.19,4.1-.258,4.172A15.512,15.512,0,0,1,795.986,506.748Zm-5.42-8.424c-.1,2.022-.3,6.831-.051,7.5.1.157,1.218.476,4.717.527a31.219,31.219,0,0,0,4.831-.189,65.466,65.466,0,0,0,.048-8.146h-.052C799.06,498.011,794.052,498.189,790.566,498.324Z" fill="#afd2db"/>
      </g>
      <g id="Group_516" data-name="Group 516">
        <path id="Path_616" data-name="Path 616" d="M800.272,499.858h-9.945l0-.388h9.945Z" fill="#afd2db"/>
      </g>
      <path id="Path_617" data-name="Path 617" d="M785.45,495.6l20.338.351c-.022-.133-.043-.263-.064-.39l-20.228-.348C785.482,495.334,785.466,495.463,785.45,495.6Z" fill="#afd2db"/>
      <g id="Group_517" data-name="Group 517">
        <path id="Path_618" data-name="Path 618" d="M803.29,493.636c-.512,0-1.025-.04-1.12-.169-.043-.057-.131-.176-.028-1.757l.388.025a14.488,14.488,0,0,0-.039,1.468,11.459,11.459,0,0,0,1.9.012c.028-.246.071-.9.1-1.487l.388.02a8.551,8.551,0,0,1-.142,1.7c-.051.118-.174.141-.33.158C804.4,493.6,803.846,493.639,803.29,493.636Z" fill="#e8eeef"/>
      </g>
      <g id="Group_518" data-name="Group 518">
        <path id="Path_619" data-name="Path 619" d="M788.228,494.115a.795.795,0,1,1-.79-.8A.794.794,0,0,1,788.228,494.115Z" fill="#fff"/>
      </g>
      <g id="Group_519" data-name="Group 519">
        <path id="Path_620" data-name="Path 620" d="M804.279,494.217a.795.795,0,1,1-.789-.8A.794.794,0,0,1,804.279,494.217Z" fill="#fff"/>
      </g>
      <g id="Group_520" data-name="Group 520">
        <path id="Path_621" data-name="Path 621" d="M786.4,482.659s-.235,8.586-.382,9.5a17.346,17.346,0,0,0,2.914.067l-.064-10.21Z" fill="#cbe8f0"/>
      </g>
      <path id="Path_622" data-name="Path 622" d="M787.764,492.253l.388-.005.064-10.06-.389.1Z" fill="#afd2db"/>
      <g id="Group_521" data-name="Group 521">
        <path id="Path_623" data-name="Path 623" d="M802.258,481.783s-.392,9.16-.259,10.042c.068.453,2.946.325,2.948.03,0-.563.511-9.137.238-9.276S802.258,481.783,802.258,481.783Z" fill="#cbe8f0"/>
      </g>
      <path id="Path_624" data-name="Path 624" d="M804.66,492.005c.188-6.209.252-8.593.272-9.515-.106-.032-.237-.07-.384-.112-.034,1.5-.185,6.6-.279,9.692A3.6,3.6,0,0,0,804.66,492.005Z" fill="#afd2db"/>
      <g id="Group_522" data-name="Group 522" opacity="0.11">
        <path id="Path_625" data-name="Path 625" d="M784.879,457.443a9.547,9.547,0,0,1,2.211.063,4.692,4.692,0,0,1,1.942.609,1.6,1.6,0,0,1,.634.71c.174.409.045.854.562,1.018a4.019,4.019,0,0,0,2.262-.415,7.434,7.434,0,0,1,2.151-.408,6.68,6.68,0,0,1,2.507.383c.928.336,1.75,1.06,2.79.812a4.854,4.854,0,0,0,2.227-1.387,3.646,3.646,0,0,0-1.187-.633,3.867,3.867,0,0,1-1.157.255,2.693,2.693,0,0,1-1.675-.424,2,2,0,0,1-.626-.767,1.4,1.4,0,0,0-1.23-.742,3.89,3.89,0,0,0-2.288.455,7.718,7.718,0,0,1-1.878.87,1.13,1.13,0,0,1-1.279-.41,3.68,3.68,0,0,1-.211-1.588c-.06-.576-.507-.842-1.076-.912a1.378,1.378,0,0,0-.13.1,2.426,2.426,0,0,0-.318.366,1.623,1.623,0,0,0-.062-.482,4.066,4.066,0,0,0-.45.05c0,.039.007.08.008.121.016,1.017-1.649.451-2.269.809a.858.858,0,0,0-.451.9A9.865,9.865,0,0,0,784.879,457.443Zm1.969-1.221.336-.021c.118,0,.236.011.353.02l-.143.018a3.471,3.471,0,0,0-.7.181Z" fill="#fff"/>
      </g>
    </g>
  </g>
</svg>
