<svg xmlns="http://www.w3.org/2000/svg" width="46.44" height="60.066" viewBox="0 0 46.44 60.066">
  <g id="Group_375" data-name="Group 375" transform="translate(-548.25 -450.233)">
    <g id="Group_292" data-name="Group 292">
      <g id="Group_291" data-name="Group 291">
        <g id="Group_290" data-name="Group 290">
          <path id="Path_428" data-name="Path 428" d="M580.873,462.521a2.564,2.564,0,0,0-2.143,2.139c-.253,1.178.3,2.13,1.227,2.126a2.567,2.567,0,0,0,2.143-2.14C582.353,463.469,581.8,462.517,580.873,462.521Z" fill="#f89876"/>
        </g>
      </g>
    </g>
    <g id="Group_295" data-name="Group 295">
      <g id="Group_294" data-name="Group 294">
        <g id="Group_293" data-name="Group 293">
          <path id="Path_429" data-name="Path 429" d="M562.025,462.429c-.931.011-1.6.973-1.489,2.148a2.149,2.149,0,0,0,1.883,2.107c.931-.011,1.6-.973,1.489-2.148A2.149,2.149,0,0,0,562.025,462.429Z" fill="#f89876"/>
        </g>
      </g>
    </g>
    <g id="Group_298" data-name="Group 298">
      <g id="Group_297" data-name="Group 297">
        <g id="Group_296" data-name="Group 296">
          <path id="Path_430" data-name="Path 430" d="M566.573,455.366c-3.285,3.617-7.989,18.85,4.437,18.911,12.913.064,7.586-16.424,7.586-16.424C576.014,452.557,569.858,451.748,566.573,455.366Z" fill="#f89876"/>
        </g>
      </g>
    </g>
    <g id="Group_301" data-name="Group 301">
      <g id="Group_300" data-name="Group 300">
        <g id="Group_299" data-name="Group 299">
          <path id="Path_431" data-name="Path 431" d="M579.783,465.832l.33-.047c-.145-1.944.888-2.273.932-2.287l-.07-.318C580.919,463.2,579.615,463.586,579.783,465.832Z" fill="#e8685d"/>
        </g>
      </g>
    </g>
    <g id="Group_304" data-name="Group 304">
      <g id="Group_303" data-name="Group 303">
        <g id="Group_302" data-name="Group 302">
          <path id="Path_432" data-name="Path 432" d="M580.07,464.317a.564.564,0,0,0-.24.425l.33.012c.011-.107.048-.163.083-.167.277-.03.43-.041.508-.043l.106-.286A1.021,1.021,0,0,0,580.07,464.317Z" fill="#e8685d"/>
        </g>
      </g>
    </g>
    <g id="Group_307" data-name="Group 307">
      <g id="Group_306" data-name="Group 306">
        <g id="Group_305" data-name="Group 305">
          <path id="Path_433" data-name="Path 433" d="M561.9,463.091l-.109.319c.042.013,1.036.326.652,2.274l.325.042C563.209,463.475,561.951,463.105,561.9,463.091Z" fill="#e8685d"/>
        </g>
      </g>
    </g>
    <g id="Group_310" data-name="Group 310">
      <g id="Group_309" data-name="Group 309">
        <g id="Group_308" data-name="Group 308">
          <path id="Path_434" data-name="Path 434" d="M562.664,464.214a1.009,1.009,0,0,0-.781-.047l.078.316c.089-.028.372-.087.5,0,.028.02.064.059.063.166l.331-.017A.482.482,0,0,0,562.664,464.214Z" fill="#e8685d"/>
        </g>
      </g>
    </g>
    <g id="Group_313" data-name="Group 313">
      <g id="Group_312" data-name="Group 312">
        <g id="Group_311" data-name="Group 311">
          <path id="Path_435" data-name="Path 435" d="M566.264,463.174c-.309.109-.274.658.092.607a1.753,1.753,0,0,1,.6,0,6.015,6.015,0,0,1,.565.213c.328.1.483-.312.3-.532A1.53,1.53,0,0,0,566.264,463.174Z" fill="#ffa88b"/>
        </g>
      </g>
    </g>
    <g id="Group_316" data-name="Group 316">
      <g id="Group_315" data-name="Group 315">
        <g id="Group_314" data-name="Group 314">
          <path id="Path_436" data-name="Path 436" d="M575.971,462.918a1.985,1.985,0,0,0-1.445.25c-.3.174-.088.7.253.572a3.2,3.2,0,0,1,.552-.161c.188-.032.378-.017.567-.039A.318.318,0,0,0,575.971,462.918Z" fill="#ffa88b"/>
        </g>
      </g>
    </g>
    <g id="Group_319" data-name="Group 319">
      <g id="Group_318" data-name="Group 318">
        <g id="Group_317" data-name="Group 317">
          <path id="Path_437" data-name="Path 437" d="M571.9,470.291a4.224,4.224,0,0,0-1.475.176c-.319.106-.272.642.093.61.467-.041.923-.092,1.394-.09C572.367,470.989,572.349,470.308,571.9,470.291Z" fill="#ffa88b"/>
        </g>
      </g>
    </g>
    <g id="Group_322" data-name="Group 322">
      <g id="Group_321" data-name="Group 321">
        <g id="Group_320" data-name="Group 320">
          <path id="Path_438" data-name="Path 438" d="M579.077,457.3a20.077,20.077,0,0,0-.667-3.805c-.049-.056-.366-.408-.424-.454l-13.1.117c-.152.1-1.105,3.95-.846,4.659a14.44,14.44,0,0,0-.882,5.036s-.033.323-.06.732l.492-.014c.188-1.039.386-2.261.521-2.719.211-.719.425-1.776,1.031-2.207a1.464,1.464,0,0,0,.586-.63c.136-.275.321-.343.375-.639a4.084,4.084,0,0,1,.4-1.413,2.243,2.243,0,0,1,1.247-.93,11.578,11.578,0,0,1,3.126-.356c.186-.008.974,0,1.159.007a11.578,11.578,0,0,1,3.119.4,2.228,2.228,0,0,1,1.227.946,4.088,4.088,0,0,1,.369,1.418,3.516,3.516,0,0,0,.933,1.282c.6.439.787,1.5.983,2.22.128.471.3,1.744.473,2.8l.484.022c-.019-.445-.048-.809-.048-.809A26.5,26.5,0,0,0,579.077,457.3Z" fill="#b06552"/>
        </g>
      </g>
    </g>
    <g id="Group_325" data-name="Group 325">
      <g id="Group_324" data-name="Group 324">
        <g id="Group_323" data-name="Group 323">
          <path id="Path_439" data-name="Path 439" d="M567.769,462.584a.744.744,0,0,0,.232-.5.726.726,0,1,0-1.449-.088.745.745,0,0,0,.121.455A3.878,3.878,0,0,0,567.769,462.584Z" fill="#51322b"/>
        </g>
      </g>
    </g>
    <g id="Group_328" data-name="Group 328">
      <g id="Group_327" data-name="Group 327">
        <g id="Group_326" data-name="Group 326">
          <path id="Path_440" data-name="Path 440" d="M574.656,462.682a7.807,7.807,0,0,0,.972-.262.815.815,0,0,0,.14-.564.641.641,0,0,0-.8-.554.834.834,0,0,0-.613.9A.656.656,0,0,0,574.656,462.682Z" fill="#51322b"/>
        </g>
      </g>
    </g>
    <g id="Group_331" data-name="Group 331">
      <g id="Group_330" data-name="Group 330">
        <g id="Group_329" data-name="Group 329">
          <path id="Path_441" data-name="Path 441" d="M572.272,469.045a10.353,10.353,0,0,1-1.935.094c-.175-.01-.232.273-.053.311a3.92,3.92,0,0,0,2.061-.1A.158.158,0,0,0,572.272,469.045Z" fill="#e8685d"/>
        </g>
      </g>
    </g>
    <g id="Group_333" data-name="Group 333">
      <g id="Group_332" data-name="Group 332">
        <path id="Path_442" data-name="Path 442" d="M575.705,467.249c-.226-.381-.6-1.01-.63-1.075l-.177.081-.179.075c.014.033.129.232.277.484-4.066,2.582-7.113.336-7.243.237l-.236.309a6.39,6.39,0,0,0,3.582,1.061,7.578,7.578,0,0,0,4.094-1.274l.179.3Z" fill="#e8685d"/>
      </g>
    </g>
    <g id="Group_336" data-name="Group 336">
      <g id="Group_335" data-name="Group 335">
        <g id="Group_334" data-name="Group 334">
          <path id="Path_443" data-name="Path 443" d="M565.835,471.763l-.291,5.269,3.933,2.066,7.593-1.367-.514-6.41Z" fill="#f89876"/>
        </g>
      </g>
    </g>
    <g id="Group_338" data-name="Group 338">
      <g id="Group_337" data-name="Group 337">
        <path id="Path_444" data-name="Path 444" d="M572.268,474.5a11.792,11.792,0,0,0,4.434-1.32l-.038-.478a10.279,10.279,0,0,1-9.035.7l-.163.321A10.406,10.406,0,0,0,572.268,474.5Z" fill="#e8685d"/>
      </g>
    </g>
    <g id="Group_342" data-name="Group 342">
      <g id="Group_341" data-name="Group 341">
        <g id="Group_340" data-name="Group 340">
          <g id="Group_339" data-name="Group 339">
            <path id="Path_445" data-name="Path 445" d="M572.092,476.546a36.4,36.4,0,0,0-9.843.839l-.633,14.3,18.509.015.451-13.962A43.479,43.479,0,0,0,572.092,476.546Z" fill="#f89876"/>
          </g>
        </g>
      </g>
    </g>
    <g id="Group_343" data-name="Group 343">
      <path id="Path_446" data-name="Path 446" d="M564.05,477.183s.359-2.1,1.638-2.735a6.989,6.989,0,0,0,5.543,2.3,7.89,7.89,0,0,0,5.55-2.589,3.9,3.9,0,0,1,1.445,3.02s-.491,6.3-6.919,5.985A7.35,7.35,0,0,1,564.05,477.183Z" fill="#f4f0ed"/>
    </g>
    <path id="Path_447" data-name="Path 447" d="M549.228,500.822l6.011.234s-.123,1.784-.247,4.46a31.051,31.051,0,0,0,31.64.874c-.073-3.32-.2-5.64-.2-6.253l7.879.22c.128-.139.255-.278.381-.419-.2-8.969-1.751-15.966-2.519-16.741-1.2-1.211-8.357-5.151-13.962-6.264,0,0-1.915,3.214-6.917,3.349-5.505.148-7.2-3.53-7.2-3.53s-2.317.689-2.954.932c-5.087,1.942-9.86,4.569-10.609,5.5-1.07,1.327-2.08,9.674-2.276,16.579Q548.727,500.3,549.228,500.822Z" fill="#f85453"/>
    <g id="Group_347" data-name="Group 347">
      <g id="Group_346" data-name="Group 346">
        <g id="Group_345" data-name="Group 345">
          <g id="Group_344" data-name="Group 344">
            <path id="Path_448" data-name="Path 448" d="M569.413,464.739a.818.818,0,0,1-.3-.75c.106-.843,1.307-1.853,1.744-2.158l-.078-.119a.24.24,0,0,1-.025-.029.179.179,0,0,1-.024-.048c-.028-.043-.056-.085-.083-.128a5.4,5.4,0,0,0-1.825,2.062,1.242,1.242,0,0,0,.333,1.46,2.472,2.472,0,0,0,1.63.5,7.11,7.11,0,0,0,1.921-.288l-.115-.371C572.568,464.874,570.331,465.555,569.413,464.739Z" fill="#e8685d"/>
          </g>
        </g>
      </g>
    </g>
    <g id="Group_349" data-name="Group 349">
      <g id="Group_348" data-name="Group 348">
        <path id="Path_449" data-name="Path 449" d="M564.036,457.846s-1.165-3.307.788-5.309c2.249-2.3,10.467-2.3,10.467-2.3s1.889,1.447,2.115,2.676c0,0,.762-.194.85-.058a6,6,0,0,1,.954,5.209l-4.425-3.682a38.525,38.525,0,0,0-6.38.039C566.9,454.769,564.036,457.846,564.036,457.846Z" fill="#b06552"/>
      </g>
    </g>
    <g id="Group_351" data-name="Group 351">
      <g id="Group_350" data-name="Group 350">
        <path id="Path_450" data-name="Path 450" d="M579.21,458.026h0a5.255,5.255,0,0,0,.032-3,1.411,1.411,0,0,1-.58.624,1.294,1.294,0,0,1-1.71-1.074,34.483,34.483,0,0,0-7.177-.629,7.2,7.2,0,0,0-2.565.7c-.9.439-1.808.98-2.778.4a1.544,1.544,0,0,1-.6-.682,6.935,6.935,0,0,0,.2,3.455,14.44,14.44,0,0,0-.882,5.036s-.033.323-.06.732l.492-.014c.188-1.039.386-2.261.521-2.719.211-.719.425-1.776,1.031-2.207.281-.2.524-.278.72-.582a1.6,1.6,0,0,0,.241-.687,4.084,4.084,0,0,1,.4-1.413,2.243,2.243,0,0,1,1.247-.93,11.578,11.578,0,0,1,3.126-.356c.186-.008.974,0,1.159.007a11.578,11.578,0,0,1,3.119.4,2.228,2.228,0,0,1,1.227.946,4.088,4.088,0,0,1,.369,1.418,3.516,3.516,0,0,0,.933,1.282c.6.439.787,1.5.983,2.22.128.471.3,1.744.473,2.8l.484.022-.01-.676A29.985,29.985,0,0,0,579.21,458.026Z" fill="#a25d4f"/>
      </g>
    </g>
    <g id="Group_353" data-name="Group 353" opacity="0.11">
      <g id="Group_352" data-name="Group 352">
        <path id="Path_451" data-name="Path 451" d="M578.41,453.1c-.143.016-.286.036-.43.065a3.121,3.121,0,0,1-.436.109c-.275.008-.286-.045-.476-.21a7.246,7.246,0,0,0-.793-.615,8.371,8.371,0,0,0-4.054-.916,25.764,25.764,0,0,0-4.7.12,18.28,18.28,0,0,0-1.944.311,3.667,3.667,0,0,0-.757.576,3.721,3.721,0,0,0-.673.957,12.576,12.576,0,0,1,3.893-.868,25.934,25.934,0,0,1,4.45-.044,6.1,6.1,0,0,1,3.857,1.235,1.381,1.381,0,0,0,1.258.509c.468-.076.887-.166,1.323-.2A7.687,7.687,0,0,0,578.41,453.1Z" fill="#fff"/>
      </g>
    </g>
    <path id="Path_452" data-name="Path 452" d="M579.739,477.294a5.772,5.772,0,0,1-1.341,1.968c-1.6,1.565-4.127,2.392-7.3,2.392s-5.63-.824-7.112-2.384a5.137,5.137,0,0,1-1.236-2.111c-.164.05-.332.1-.5.154a5.612,5.612,0,0,0,1.332,2.287c1.1,1.173,3.3,2.572,7.512,2.572s6.5-1.395,7.69-2.565a6.217,6.217,0,0,0,1.456-2.172Q579.99,477.361,579.739,477.294Z" fill="#e54848"/>
    <g id="Group_354" data-name="Group 354">
      <path id="Path_453" data-name="Path 453" d="M564.089,476.752s2.238,3.944,3.609,4.283c.827.2,3.609-3.382,3.609-3.382l-.38-.578Z" fill="#f4f0ed"/>
    </g>
    <g id="Group_355" data-name="Group 355">
      <path id="Path_454" data-name="Path 454" d="M578.209,476.933s-2.523,3.932-3.292,4.11c-.919.214-3.744-3.39-3.744-3.39l.38-.578Z" fill="#f4f0ed"/>
    </g>
    <g id="Group_356" data-name="Group 356">
      <path id="Path_455" data-name="Path 455" d="M571.335,480.247v-.241c0-.95,0-2.719.031-3.206l-.387-.023c-.029.5-.031,2.208-.032,3.229v.241Z" fill="#ddd4ce"/>
    </g>
    <g id="Group_357" data-name="Group 357">
      <path id="Path_456" data-name="Path 456" d="M570.923,476.758a33.545,33.545,0,0,0-1.795,3.369l.376.061c.749-1.486,1.368-2.647,1.684-3.143.319.47.879,1.63,1.6,3.1l.513-.1a17.5,17.5,0,0,0-1.874-3.3c-.066,0-.132.01-.2.012C571.127,476.757,571.024,476.758,570.923,476.758Z" fill="#ddd4ce"/>
    </g>
    <g id="Group_358" data-name="Group 358">
      <path id="Path_457" data-name="Path 457" d="M556.654,502.843l-.515-.053,1.482-14.031.515.053Z" fill="#e54848"/>
    </g>
    <g id="Group_359" data-name="Group 359">
      <path id="Path_458" data-name="Path 458" d="M585.991,501.645l-1.523-13.892.515-.058,1.523,13.892Z" fill="#e54848"/>
    </g>
    <g id="Group_373" data-name="Group 373">
      <path id="Path_459" data-name="Path 459" d="M562.948,500.6l-13.027-6.652-1.257.058s-.316,3.024-.414,5.755a30.952,30.952,0,0,0,23.3,10.539q.773,0,1.536-.038c2.409-.24,3.995-.485,3.988-.643a35.862,35.862,0,0,1,.6-3.651Z" fill="#f85453"/>
      <g id="Group_361" data-name="Group 361">
        <g id="Group_360" data-name="Group 360">
          <rect id="Rectangle_29" data-name="Rectangle 29" width="4.298" height="0.556" transform="translate(553.905 502.158) rotate(-19.5)" fill="#e54848"/>
        </g>
      </g>
      <g id="Group_362" data-name="Group 362">
        <path id="Path_460" data-name="Path 460" d="M557.613,492.619a22.778,22.778,0,0,0-4.917.362c-.552.211-3.9,2.009-3.835,2.789a.568.568,0,0,0,.5.571s-.738.774-.495,1.3a1.869,1.869,0,0,0,.349.39s-.308.674-.164,1.017c.115.274.633.4.633.4-.173.524.278.942.82.981a10.234,10.234,0,0,0,1.7-.274c.261-.04,1.654-.038,1.654-.038a39.229,39.229,0,0,0,4.27,1.566,25.865,25.865,0,0,0,3.423.188l1.573.143.854-5.745-1.85-.552S558.132,492.859,557.613,492.619Z" fill="#fd9d76"/>
      </g>
      <g id="Group_363" data-name="Group 363">
        <path id="Path_461" data-name="Path 461" d="M563.364,495.83s-1.174,6.237-1.1,6.386,4.018.84,4.018.84l-.063-7.038Z" fill="#f4f0ed"/>
      </g>
      <g id="Group_364" data-name="Group 364">
        <path id="Path_462" data-name="Path 462" d="M588.867,492.291a.873.873,0,0,0,.022-1.185,14.3,14.3,0,0,0-2.372.059,1.439,1.439,0,0,0,.176-.354c.17-.461-.229-1.023-.515-1.007s-4.088,2.056-4.417,2.152-2.888,4.791-2.888,4.791l7.352-.846a3.2,3.2,0,0,0,1.157-.633,1,1,0,0,0,.036-.878,14.61,14.61,0,0,0,1.829-.518,1.161,1.161,0,0,0,.368-1.1A1.737,1.737,0,0,0,588.867,492.291Z" fill="#fd9d76"/>
      </g>
      <path id="Path_463" data-name="Path 463" d="M594.689,499.939a28.507,28.507,0,0,0-.239-4.178c-.227-.135-9.253.057-9.352.055l-19.247-.506s-1.264,10.094-.274,10.332a164.043,164.043,0,0,0,16.44,2.845A31.066,31.066,0,0,0,594.689,499.939Z" fill="#f85453"/>
      <g id="Group_366" data-name="Group 366">
        <g id="Group_365" data-name="Group 365">
          <path id="Path_464" data-name="Path 464" d="M586.525,495.79l4.514,3.181.307-.463-4.334-2.949Z" fill="#e54848"/>
        </g>
      </g>
      <g id="Group_367" data-name="Group 367">
        <path id="Path_465" data-name="Path 465" d="M586.693,490.811a.71.71,0,0,0,.039-.185c-.152.043-.586.2-2.056.727a19.6,19.6,0,0,0-2.206.846c-.056.038-.228.152-1.947,3.051l.452.268c.639-1.079,1.6-2.656,1.793-2.885.357-.166,3.636-1.353,4.086-1.495l-.337.027A1.439,1.439,0,0,0,586.693,490.811Z" fill="#ed685d"/>
      </g>
      <g id="Group_368" data-name="Group 368">
        <path id="Path_466" data-name="Path 466" d="M588.995,492.091c-1.037.175-4.35.819-4.527.89a19.9,19.9,0,0,0-2.347,2.352l.389.354a30.522,30.522,0,0,1,2.158-2.221c.332-.1,4.08-.832,4.685-.939a2.356,2.356,0,0,0-.486-.236A1.069,1.069,0,0,0,588.995,492.091Z" fill="#ed685d"/>
      </g>
      <g id="Group_369" data-name="Group 369">
        <path id="Path_467" data-name="Path 467" d="M587.127,493.678c-.08-.019-.322-.078-2.591.79l-.074.029-.726,1.011.427.307.634-.884a18.064,18.064,0,0,1,2.22-.737,1.751,1.751,0,0,1,.433.445l.034-.024a1.337,1.337,0,0,0-.066-.225s.18-.041.426-.1A1.688,1.688,0,0,0,587.127,493.678Z" fill="#ed685d"/>
      </g>
      <g id="Group_370" data-name="Group 370">
        <path id="Path_468" data-name="Path 468" d="M557.058,498.31c-.448-.037-4.392-.359-4.769-.326a17.987,17.987,0,0,0-2.8,1.4,1.757,1.757,0,0,0,.19.063.658.658,0,0,0,0,.434,24.634,24.634,0,0,1,2.669-1.383c.277-.019,3.006.19,4.671.327Z" fill="#ed685d"/>
      </g>
      <g id="Group_371" data-name="Group 371">
        <path id="Path_469" data-name="Path 469" d="M556.5,494.536l-.021-.531c-.167.014-4.111.342-4.45.4a28.028,28.028,0,0,0-3.079,1.664.552.552,0,0,0,.411.273s-.064.068-.149.176c1.354-.791,2.674-1.53,2.884-1.589C552.386,494.882,555.367,494.63,556.5,494.536Z" fill="#ed685d"/>
      </g>
      <g id="Group_372" data-name="Group 372">
        <path id="Path_470" data-name="Path 470" d="M552.236,496.867c.233-.071,2.455-.255,4.428-.392l-.026-.526c-.984.068-4.22.3-4.563.42-.283.1-2.2,1.058-3.048,1.484.092.1.185.178.185.178a3.121,3.121,0,0,0-.125.342C550.315,497.761,552.026,496.94,552.236,496.867Z" fill="#ed685d"/>
      </g>
    </g>
    <path id="Path_471" data-name="Path 471" d="M580.792,508.309a2.617,2.617,0,0,1-.693.8c.334-.1.664-.2.993-.3a.983.983,0,0,0,.205-.386l-.51-.086A.071.071,0,0,1,580.792,508.309Z" fill="#e54848"/>
    <path id="Path_472" data-name="Path 472" d="M565.755,503.969a2.347,2.347,0,0,1-.547-1.106l-.475-.088a3.364,3.364,0,0,0,.706,1.605c.345.277,5.794,1.741,9.6,2.691,1.774.443,4.236,1.058,6.543,1.571.321-.11.638-.226.954-.345-1.977-.418-4.429-.994-7.234-1.694C570.054,505.3,566.1,504.158,565.755,503.969Z" fill="#e54848"/>
    <g id="Group_374" data-name="Group 374">
      <path id="Path_473" data-name="Path 473" d="M565.771,495.985l-.5-.029a1.114,1.114,0,0,1,.778-.877c.113-.044.335-.081,6.978-.016,3.269.031,6.652.177,6.684.179l-.249.445c-4.988-.2-12.549-.23-13.2-.134C566.038,495.606,565.79,495.812,565.771,495.985Z" fill="#e54848"/>
    </g>
    <path id="Path_474" data-name="Path 474" d="M568.308,459.311a4.2,4.2,0,0,0-2.191.487.281.281,0,0,0,.229.506,7.365,7.365,0,0,1,1.976-.439A.277.277,0,0,0,568.308,459.311Z" fill="#b06552"/>
    <path id="Path_475" data-name="Path 475" d="M576.44,459.87a4.935,4.935,0,0,0-2.183-.485c-.369-.005-.346.548.015.568a7.487,7.487,0,0,1,1.965.437C576.541,460.49,576.721,460.014,576.44,459.87Z" fill="#b06552"/>
  </g>
</svg>
