<svg id="Group_622" data-name="Group 622" xmlns="http://www.w3.org/2000/svg" width="42.714" height="58.325" viewBox="0 0 42.714 58.325">
  <g id="Group_598" data-name="Group 598" transform="translate(8.705)">
    <path id="Path_718" data-name="Path 718" d="M571.3,377.486c10.435-.681,12.81,17.909,11.235,19.5s-5.693,1.2-5.693,1.2H565.954s-5.406,1.459-6.583-1.309C557.662,392.859,560.848,378.168,571.3,377.486Z" transform="translate(-558.935 -377.468)" fill="#e5dfda"/>
  </g>
  <g id="Group_600" data-name="Group 600" transform="translate(10.698 21.187)">
    <g id="Group_599" data-name="Group 599">
      <path id="Path_719" data-name="Path 719" d="M576.316,400.587l-.1-1.932-9.994.388-.059,2.226-5.233,1.365,4.3,4.595h10.557l4.616-5.46Z" transform="translate(-560.928 -398.655)" fill="#fc9c76"/>
    </g>
  </g>
  <path id="Path_720" data-name="Path 720" d="M579.693,401.286c-.152.694-2.714,4.456-7.907,4.5a8.794,8.794,0,0,1-7.863-4.069c-2.461.569-7.943,2.5-9.24,4.2-1.008,1.325-2.457,9.536-3.591,16.387-.3,1.792-.611,3.536-.862,5.007a30.994,30.994,0,0,0,13.082,7.378c8.753-1.613,22.9-4.292,27.48-5.581q.871-.69,1.692-1.44c.44-4.011-1.049-19.584-3.069-22.023C587.63,403.488,581.521,401.883,579.693,401.286Z" transform="translate(-550.23 -377.468)" fill="#ffbbc8"/>
  <path id="Path_721" data-name="Path 721" d="M555.228,426.918s-.208,1.811-.433,3.967a31.066,31.066,0,0,0,30.927,1.489c-.206-2.991-.456-6.138-.456-6.138Z" transform="translate(-550.23 -377.468)" fill="#ffbbc8"/>
  <g id="Group_603" data-name="Group 603" transform="translate(5.52 38.473)">
    <g id="Group_601" data-name="Group 601" transform="translate(1.287 1.191)">
      <path id="Path_722" data-name="Path 722" d="M557.037,417.711l.2-.579A5.1,5.1,0,0,0,557.037,417.711Z" transform="translate(-557.037 -417.132)" fill="#f9b4c4"/>
    </g>
    <g id="Group_602" data-name="Group 602">
      <path id="Path_723" data-name="Path 723" d="M583.529,415.941s-2.423,4.365-3.034,4.524-22.418,1.27-23.289,0a4.868,4.868,0,0,1-.787-2.9l-.639,2.928,1.326,3.013s-.786,4.448-1.356,7.963a31.064,31.064,0,0,0,30.033.869,20.2,20.2,0,0,0-.075-3.123l.452-.013C585.042,423.139,583.529,415.941,583.529,415.941Z" transform="translate(-555.75 -415.941)" fill="#f9b4c4"/>
      <path id="Path_724" data-name="Path 724" d="M556.419,417.569l.032-.148A1.242,1.242,0,0,0,556.419,417.569Z" transform="translate(-555.75 -415.941)" fill="#f9b4c4"/>
    </g>
  </g>
  <path id="Path_725" data-name="Path 725" d="M592.462,422.647s-4.322-7.439-4.465-7.358-5.459-1.02-5.459-1.02c0,.1,1.019,9.166,1.019,9.166l.238,9.244s.077.213.189.519a31.084,31.084,0,0,0,8.96-5.961C592.815,424.822,592.462,422.647,592.462,422.647Z" transform="translate(-550.23 -377.468)" fill="#ffbbc8"/>
  <path id="Path_726" data-name="Path 726" d="M582.4,412.554l-.462.069,1.331,10.831c0,.23.025,2.963.054,5.676.022,2.1.049,3.445.073,4.317.175-.072.258-.146.431-.221-.037-2.32-.093-6.653-.229-9.8v-.015Z" transform="translate(-550.23 -377.468)" fill="#ef9caf"/>
  <path id="Path_727" data-name="Path 727" d="M557.85,412.267a24.235,24.235,0,0,0-2.256,8.342l0,.07,1.34,2.572-1.48,8.045c.176.107.354.211.532.315l1.5-8.453-1.356-2.6a24.574,24.574,0,0,1,2.2-8.071Z" transform="translate(-550.23 -377.468)" fill="#ef9caf"/>
  <g id="Group_604" data-name="Group 604" transform="translate(1.775 48.842)">
    <path id="Path_728" data-name="Path 728" d="M560.274,433.68l-4.457-6.376c-.807-.219-2.557.681-3.812,1.559A31.005,31.005,0,0,0,560.274,433.68Z" transform="translate(-552.005 -426.31)" fill="#fc9c76"/>
    <path id="Path_729" data-name="Path 729" d="M568.4,435.635a31.073,31.073,0,0,0,22.148-6.342,9.526,9.526,0,0,0-5.078-2.982C585.089,426.367,574.005,433.371,568.4,435.635Z" transform="translate(-552.005 -426.31)" fill="#fc9c76"/>
  </g>
  <g id="Group_605" data-name="Group 605" transform="translate(18.248 57.431)">
    <path id="Path_730" data-name="Path 730" d="M570.665,434.9l-2.187.743q1.378.135,2.793.148Z" transform="translate(-568.478 -434.899)" fill="#fc9c76"/>
  </g>
  <g id="Group_606" data-name="Group 606" transform="translate(12.156 1.559)">
    <path id="Path_731" data-name="Path 731" d="M564.972,382.431c0,.216-2.639,7.984-2.585,9.009s1.461,6.376,2.679,7.3A20.141,20.141,0,0,0,572.155,401a17.925,17.925,0,0,0,5.12-2.395c.539-.539,2.706-6.737,2.436-8.248a54.658,54.658,0,0,0-3.083-8.63,23.16,23.16,0,0,0-5.56-2.7C570.428,378.973,564.972,382.431,564.972,382.431Z" transform="translate(-562.386 -379.026)" fill="#fc9c76"/>
  </g>
  <path id="Path_732" data-name="Path 732" d="M576.246,399.266a13.394,13.394,0,0,1-4.764,1.632c-1.874.11-4.459-1.083-5.272-1.486l-.014.508a13.121,13.121,0,0,0,5.053,1.5c.089,0,.177,0,.264-.008a13.323,13.323,0,0,0,4.763-1.577Z" transform="translate(-550.23 -377.468)" fill="#eb685d"/>
  <g id="Group_607" data-name="Group 607" transform="translate(15.243 9.75)">
    <path id="Path_733" data-name="Path 733" d="M567.958,387.22a14.074,14.074,0,0,0-2.241.486c-.439.122-.234.781.205.675.712-.172,1.438-.292,2.146-.476C568.443,387.807,568.355,387.178,567.958,387.22Z" transform="translate(-565.473 -387.218)" fill="#f4f0ed"/>
  </g>
  <g id="Group_608" data-name="Group 608" transform="translate(22.923 9.726)">
    <path id="Path_734" data-name="Path 734" d="M576.227,387.614a5.97,5.97,0,0,0-2.741-.406.354.354,0,0,0,.018.708,11.587,11.587,0,0,1,2.467.351C576.345,388.343,576.609,387.785,576.227,387.614Z" transform="translate(-573.153 -387.194)" fill="#f4f0ed"/>
  </g>
  <g id="Group_609" data-name="Group 609" transform="translate(18.532 11.382)">
    <path id="Path_735" data-name="Path 735" d="M570.811,393.39a1.993,1.993,0,0,1-1.958-.9c-.562-1.277,1.641-3.406,1.894-3.645l.356.377c-.853.805-2.09,2.347-1.776,3.059.342.779,1.97.606,2.568.474l.112.505A6,6,0,0,1,570.811,393.39Z" transform="translate(-568.762 -388.85)" fill="#eb685d"/>
  </g>
  <g id="Group_610" data-name="Group 610" transform="translate(20.121 18.845)">
    <path id="Path_736" data-name="Path 736" d="M570.995,396.922a6.078,6.078,0,0,1-.644-.035l.06-.514a3.75,3.75,0,0,0,1.321-.06l.182.485A2.8,2.8,0,0,1,570.995,396.922Z" transform="translate(-570.351 -396.313)" fill="#eb685d"/>
  </g>
  <g id="Group_611" data-name="Group 611" transform="translate(10.22 1.033)">
    <path id="Path_737" data-name="Path 737" d="M564.244,397.566s-1.3-6.018.2-10.348,9.031-6.868,9.572-5.869,3.08,4.948,3.288,5.845.187,6.239,1.144,7.321a2.249,2.249,0,0,0,2.1.807s-.5-12.558-3.371-14.722-8.292-3.815-12.9,1.165c-3.086,3.334-3.829,11.248-3.829,11.248Z" transform="translate(-560.45 -378.5)" fill="#e5dfda"/>
  </g>
  <g id="Group_612" data-name="Group 612" transform="translate(15.844 11.574)">
    <path id="Path_738" data-name="Path 738" d="M566.3,390.282a1.536,1.536,0,0,1,1.014-.048.714.714,0,1,0-1.014.048Z" transform="translate(-566.074 -389.042)" fill="#49263e"/>
  </g>
  <g id="Group_613" data-name="Group 613" transform="translate(23.839 11.574)">
    <path id="Path_739" data-name="Path 739" d="M574.3,390.282a1.535,1.535,0,0,1,1.014-.048.714.714,0,1,0-1.014.048Z" transform="translate(-574.069 -389.042)" fill="#49263e"/>
  </g>
  <g id="Group_614" data-name="Group 614" transform="translate(17.715 16.978)">
    <path id="Path_740" data-name="Path 740" d="M570.8,395.918a3.574,3.574,0,0,1-2.851-1.066l.409-.318a3.171,3.171,0,0,0,2.578.865,3.488,3.488,0,0,0,2.595-.953l.4.328a3.97,3.97,0,0,1-2.983,1.142Z" transform="translate(-567.945 -394.446)" fill="#eb685d"/>
  </g>
  <g id="Group_615" data-name="Group 615" transform="translate(15.567 13.15)">
    <path id="Path_741" data-name="Path 741" d="M567.222,390.678a4.1,4.1,0,0,0-1.09-.048.354.354,0,0,0-.076.694,2.573,2.573,0,0,0,1.183.03A.353.353,0,0,0,567.222,390.678Z" transform="translate(-565.797 -390.617)" fill="#ffa383"/>
  </g>
  <g id="Group_616" data-name="Group 616" transform="translate(23.708 13.149)">
    <path id="Path_742" data-name="Path 742" d="M575.908,390.678a5.846,5.846,0,0,0-1.634,0,.358.358,0,0,0,.019.716,4.5,4.5,0,0,0,1.632-.024A.361.361,0,0,0,575.908,390.678Z" transform="translate(-573.938 -390.617)" fill="#ffa383"/>
  </g>
  <g id="Group_617" data-name="Group 617" transform="translate(19.566 13.77)">
    <path id="Path_743" data-name="Path 743" d="M570.886,391.276c-.224-.037-.454,0-.68-.033a.34.34,0,0,0-.164.659,1.3,1.3,0,0,0,.861.042.362.362,0,0,0,.246-.34A.351.351,0,0,0,570.886,391.276Z" transform="translate(-569.796 -391.238)" fill="#ffa383"/>
  </g>
  <g id="Group_618" data-name="Group 618" transform="translate(20.077 20.226)">
    <path id="Path_744" data-name="Path 744" d="M571.726,397.782a2.146,2.146,0,0,0-1.171-.012c-.4.077-.277.7.113.7.161,0,.322-.006.484-.006a1.787,1.787,0,0,0,.506-.034C571.927,398.352,572.017,397.9,571.726,397.782Z" transform="translate(-570.307 -397.694)" fill="#ffa383"/>
  </g>
  <g id="Group_619" data-name="Group 619" transform="translate(24.974 5.262)">
    <path id="Path_745" data-name="Path 745" d="M578.208,386.207V386.1l-.066-.086c-.622-.808-1.462-2.115-2.182-3.282-.252,0-.5.008-.755.01.743,1.214,1.66,2.659,2.358,3.581.017.934.222,7.1,2.676,8.567l.332-.555C578.28,392.961,578.209,386.274,578.208,386.207Z" transform="translate(-575.204 -382.73)" fill="#f4ebe6"/>
  </g>
  <g id="Group_620" data-name="Group 620" transform="translate(10.049 0.375)">
    <path id="Path_746" data-name="Path 746" d="M560.9,388.111l-.621-.182a18.512,18.512,0,0,1,2.475-4.942c2.312-3.274,5.341-5.052,8.759-5.142,2.839-.071,5.454,1.621,7.562,4.9a21.612,21.612,0,0,1,2.33,4.966l-.62.185c-.029-.1-2.88-9.408-9.092-9.408l-.163,0C563.755,378.7,560.928,388.017,560.9,388.111Z" transform="translate(-560.279 -377.843)" fill="#f4ebe6"/>
  </g>
  <g id="Group_621" data-name="Group 621" transform="translate(12.409 2.783)">
    <path id="Path_747" data-name="Path 747" d="M562.728,393.027a12.716,12.716,0,0,1,.592-5.589c.926-2.678,3.265-6.1,9.155-7.187l.118.637c-4.473.827-7.384,3.094-8.653,6.738a12.3,12.3,0,0,0-.573,5.3Z" transform="translate(-562.639 -380.251)" fill="#f4ebe6"/>
  </g>
  <path id="Path_748" data-name="Path 748" d="M581.293,395.737a19.319,19.319,0,0,1-2.5-.891c-.063.24-.177.483-.237.723a9.241,9.241,0,0,0,2.564.846A.35.35,0,0,0,581.293,395.737Z" transform="translate(-550.23 -377.468)" fill="#d3cbc7"/>
  <path id="Path_749" data-name="Path 749" d="M575.893,382.007c.371.066.634-.467.254-.65a3.862,3.862,0,0,0-2.678-.222c.284.013.478.082.549.214s.158.281.271.473A8.539,8.539,0,0,1,575.893,382.007Z" transform="translate(-550.23 -377.468)" fill="#d3cbc7"/>
  <path id="Path_750" data-name="Path 750" d="M563.982,395.987a4.386,4.386,0,0,1-1.978-.855.357.357,0,0,0-.491.517,4.5,4.5,0,0,0,2.585,1.115C564.062,396.543,564.022,396.282,563.982,395.987Z" transform="translate(-550.23 -377.468)" fill="#d3cbc7"/>
</svg>
