<svg xmlns="http://www.w3.org/2000/svg" width="34.32" height="57.314" viewBox="0 0 34.32 57.314">
  <g id="Group_596" data-name="Group 596" transform="translate(-702.802 -378.479)">
    <path id="Path_687" data-name="Path 687" d="M705.045,417.363l-.2,14.244a30.774,30.774,0,0,0,4.827,2.275c-.356-4.63-.634-14.906-.634-14.906Z" fill="#fe9e76"/>
    <g id="Group_573" data-name="Group 573">
      <path id="Path_688" data-name="Path 688" d="M713.492,396.409a1.94,1.94,0,0,1-1.482,2.25c-.9.063-1.7-.844-1.778-2.025a1.941,1.941,0,0,1,1.482-2.251C712.615,394.321,713.411,395.228,713.492,396.409Z" fill="#fe9e76"/>
    </g>
    <g id="Group_574" data-name="Group 574">
      <ellipse id="Ellipse_120" data-name="Ellipse 120" cx="1.634" cy="2.143" rx="1.634" ry="2.143" transform="translate(726.172 393.213)" fill="#fe9e76"/>
    </g>
    <g id="Group_575" data-name="Group 575">
      <path id="Path_689" data-name="Path 689" d="M725.116,407.3c-.707-1.159-.2-6.3-.2-6.3l-7.732-.317s-.218,4.62-.752,5.207c-1.5,1.647-3.454,1.227-5.928.9,2.672,2.981,5.97,5.535,10.181,5.96a11.032,11.032,0,0,0,6.752-1.2c1.5-.913,1.832-2.186,2.625-3.707C726.8,407.338,725.345,407.669,725.116,407.3Z" fill="#fe9e76"/>
    </g>
    <path id="Path_690" data-name="Path 690" d="M729.624,407.549c-1.475,2.2-6.206,4.829-10.347,4.4-4.2-.44-5.812-3.617-6.67-5.088-2.1-.373-5.334-.137-6.044.723-1.167,1.414-3.761,11.065-3.761,11.065l5.224,1.084s1.447,9.013,1.258,12.8c-.017.356-.058.745-.117,1.163a31.159,31.159,0,0,0,19.891.88,8.59,8.59,0,0,1-.862-2.616c0-4.616,2.828-13.066,2.828-13.066l6.1.026s.046-7.418-1.345-9.251C735.351,409.1,732.944,408.082,729.624,407.549Z" fill="#cbe8f0"/>
    <path id="Path_691" data-name="Path 691" d="M729.806,420.574l-.472-5.182-.255-.127c.009.154-.271,5.195-1.712,5.7s-16.352-.46-16.864-.618-.566-6.515-.566-6.515l-.334.372-1.618,5.52.041.009s1.447,9.013,1.258,12.8c-.017.355-.058.745-.117,1.162a31.151,31.151,0,0,0,19.891.881,8.612,8.612,0,0,1-.862-2.616c0-3.259,1.41-8.43,2.238-11.188Z" fill="#bedee5"/>
    <path id="Path_692" data-name="Path 692" d="M729.913,434.31a30.838,30.838,0,0,0,5.661-2.469c.412-5.219.822-13.526.822-13.526l-5.119.224S730.2,430.5,729.913,434.31Z" fill="#fe9e76"/>
    <g id="Group_576" data-name="Group 576">
      <path id="Path_693" data-name="Path 693" d="M730.708,416.039l-.145,4.3,6.56-.872v-.8l-2.228-2.012Z" fill="#cbe8f0"/>
    </g>
    <g id="Group_577" data-name="Group 577">
      <path id="Path_694" data-name="Path 694" d="M712.81,386.325c-.19.076-3.411,19.285,7.612,17.937,10.169-1.243,6.293-17.838,5.4-18.583S714.052,385.828,712.81,386.325Z" fill="#fe9e76"/>
    </g>
    <path id="Path_695" data-name="Path 695" d="M724.779,402.935c.012-.253.026-.493.04-.712a8.718,8.718,0,0,1-4.16,2.1,7.164,7.164,0,0,1-3.735-.507c-.022.183-.046.362-.072.535a7.743,7.743,0,0,0,2.856.557,7.183,7.183,0,0,0,1.024-.073A8.792,8.792,0,0,0,724.779,402.935Z" fill="#ee685d"/>
    <g id="Group_578" data-name="Group 578">
      <path id="Path_696" data-name="Path 696" d="M712.529,396.407l.616.519a39.685,39.685,0,0,1,.005-4.252,3.209,3.209,0,0,0,.666-1.033c0-.2-1.5-3.572,5.049-4.348,6.748-.8,5.6,3.125,5.886,3.472a11.765,11.765,0,0,1,1.012,1.392c.057.17.173,3.871.433,4.131l.629-.308.194-2.5.9-.265s-.61-6.976-1.979-8.548c-2.238-2.571-11.324-1.432-13.377,1.1s-1.076,8.44-.845,8.613l.572.092Z" fill="#cc7a65"/>
    </g>
    <g id="Group_579" data-name="Group 579" opacity="0.11">
      <path id="Path_697" data-name="Path 697" d="M715.906,385.848a9.314,9.314,0,0,0,3.317.06,12.082,12.082,0,0,0,5.056-2.239,7.994,7.994,0,0,0-1.192-.29,10.778,10.778,0,0,1-4.2,1.5,16.347,16.347,0,0,1-2.59.107,2.835,2.835,0,0,1-1.8-.539,7.747,7.747,0,0,0-.855.437A6.744,6.744,0,0,0,715.906,385.848Z" fill="#fff"/>
    </g>
    <g id="Group_580" data-name="Group 580">
      <path id="Path_698" data-name="Path 698" d="M715.24,384.565c-.072-.048-3.069-3.789,1.271-5.419s6.09.048,6.282,1.63a5.1,5.1,0,0,1-.959,3.142Z" fill="#cc7a65"/>
    </g>
    <g id="Group_581" data-name="Group 581">
      <path id="Path_699" data-name="Path 699" d="M711.779,397.781c-.06-.375-.36-2.257-.37-2.4l.517-.037c.01.115.228,1.507.364,2.358Z" fill="#ee685d"/>
    </g>
    <g id="Group_582" data-name="Group 582">
      <path id="Path_700" data-name="Path 700" d="M727.793,396.676l-.516-.041a9.056,9.056,0,0,1,.44-2.813l.4.336a.1.1,0,0,0,.014-.021A16.273,16.273,0,0,0,727.793,396.676Z" fill="#ee685d"/>
    </g>
    <g id="Group_583" data-name="Group 583">
      <path id="Path_701" data-name="Path 701" d="M727.778,395.82l-.288-.43a6.841,6.841,0,0,1,.931-.593l.164.491a.156.156,0,0,0,.025-.01C728.545,395.312,728.136,395.58,727.778,395.82Z" fill="#ee685d"/>
    </g>
    <g id="Group_584" data-name="Group 584">
      <path id="Path_702" data-name="Path 702" d="M711.768,396.985c-.084-.039-.82-.385-.952-.46l.257-.45c.085.049.606.3.915.441Z" fill="#ee685d"/>
    </g>
    <g id="Group_585" data-name="Group 585">
      <path id="Path_703" data-name="Path 703" d="M716.561,394.746c-.066.25-.515.371-1,.27s-.828-.388-.762-.638a1.231,1.231,0,0,1,1.179-.592A.862.862,0,0,1,716.561,394.746Z" fill="#49263e"/>
    </g>
    <g id="Group_586" data-name="Group 586">
      <path id="Path_704" data-name="Path 704" d="M721.652,394.159c.142.252.711.259,1.271.016s.9-.644.759-.9a1.207,1.207,0,0,0-1.354-.357A1.16,1.16,0,0,0,721.652,394.159Z" fill="#49263e"/>
    </g>
    <g id="Group_587" data-name="Group 587">
      <rect id="Rectangle_36" data-name="Rectangle 36" width="2.127" height="0.518" transform="translate(718.391 396.22) rotate(-86.683)" fill="#ee685d"/>
    </g>
    <g id="Group_588" data-name="Group 588">
      <path id="Path_705" data-name="Path 705" d="M718.67,398.224a1.75,1.75,0,0,1-.859-.2,1.013,1.013,0,0,1-.527-1.034c.1-1.076,1.748-1.119,2.084-1.119h0v.408h0c-.523,0-1.522.18-1.569.7a.551.551,0,0,0,.267.571,2.32,2.32,0,0,0,2.2-.412l.3.424A3.369,3.369,0,0,1,718.67,398.224Z" fill="#ee685d"/>
    </g>
    <g id="Group_589" data-name="Group 589">
      <path id="Path_706" data-name="Path 706" d="M716.995,392.318a6.72,6.72,0,0,0-2.369.6c-.247.117-.05.465.186.412.751-.168,1.508-.376,2.254-.568A.226.226,0,0,0,716.995,392.318Z" fill="#cc7a65"/>
    </g>
    <g id="Group_590" data-name="Group 590">
      <path id="Path_707" data-name="Path 707" d="M723.492,391.644a12.971,12.971,0,0,0-2.691.2c-.257.051-.172.438.071.439a19.847,19.847,0,0,0,2.632-.2A.223.223,0,0,0,723.492,391.644Z" fill="#cc7a65"/>
    </g>
    <g id="Group_591" data-name="Group 591">
      <path id="Path_708" data-name="Path 708" d="M718.77,400.485a4.6,4.6,0,0,1-1.511-.222l.182-.485a6.066,6.066,0,0,0,5.183-1.106l.291.428A7.334,7.334,0,0,1,718.77,400.485Z" fill="#ee685d"/>
    </g>
    <path id="Path_709" data-name="Path 709" d="M714.713,383.777c.1.179.194.334.278.458a20.232,20.232,0,0,1,7.227-.952c.077-.146.157-.313.233-.5A20.332,20.332,0,0,0,714.713,383.777Z" fill="#49263e"/>
    <g id="Group_592" data-name="Group 592">
      <path id="Path_710" data-name="Path 710" d="M716.282,395.489a6.282,6.282,0,0,1-1.27-.209c-.238-.074-.4.315-.162.413a2.754,2.754,0,0,0,1.443.242A.223.223,0,0,0,716.282,395.489Z" fill="#ffa383"/>
    </g>
    <g id="Group_593" data-name="Group 593">
      <path id="Path_711" data-name="Path 711" d="M723.577,394.239a10.251,10.251,0,0,1-1.331.541.221.221,0,0,0,.07.431,2.56,2.56,0,0,0,1.54-.629C724.058,394.4,723.788,394.14,723.577,394.239Z" fill="#ffa383"/>
    </g>
    <g id="Group_594" data-name="Group 594">
      <path id="Path_712" data-name="Path 712" d="M719.621,401.473h-.03l.011-.518a2.369,2.369,0,0,0,1.036-.22l.265.445A2.8,2.8,0,0,1,719.621,401.473Z" fill="#ee685d"/>
    </g>
    <g id="Group_595" data-name="Group 595">
      <path id="Path_713" data-name="Path 713" d="M720.226,406.806a15.6,15.6,0,0,1-4.377-.574l.236-.74a16.561,16.561,0,0,0,8.887-.155l.225.743A17.126,17.126,0,0,1,720.226,406.806Z" fill="#49263e"/>
    </g>
    <path id="Path_714" data-name="Path 714" d="M731.325,407.88q-.291-.068-.6-.129c-1.247,1.261-5.627,5.277-10.76,5.154a9.612,9.612,0,0,1-6.707-3.168A13.228,13.228,0,0,1,711.1,406.7c-.19-.008-.382-.013-.574-.013.529,1.275,3.618,6.6,9.434,6.736l.247,0C725.869,413.426,730.446,408.824,731.325,407.88Z" fill="#badbe2"/>
    <path id="Path_715" data-name="Path 715" d="M708.026,419.729s.028.17.074.472l.054.015,1.783-6.388-.5-.14-1.671,5.987Z" fill="#badbe2"/>
    <path id="Path_716" data-name="Path 716" d="M729.955,420.365c-.148-2.041-.354-5.045-.358-5.179l-.259.008h-.259c0,.136.314,4.576.376,5.465l.018.25h.9a2.516,2.516,0,0,0,.156-.544Z" fill="#badbe2"/>
    <path id="Path_717" data-name="Path 717" d="M711.432,414.85a39.134,39.134,0,0,0-.421,4.271c.14.168,15.763.73,15.875.562s.731-4.018.478-4.243S711.432,414.85,711.432,414.85Z" fill="#f4f0ed"/>
  </g>
</svg>
