<svg xmlns="http://www.w3.org/2000/svg" width="56.13" height="58.069" viewBox="0 0 56.13 58.069">
  <g id="Group_238" data-name="Group 238" transform="translate(-617.472 -603.546)">
    <g id="Group_207" data-name="Group 207">
      <path id="Path_357" data-name="Path 357" d="M645.342,627.156a35.559,35.559,0,0,0-9.53,1.235l1.612,14.8,17.809-.99-1.587-14.35A42.377,42.377,0,0,0,645.342,627.156Z" fill="#fe9e76"/>
    </g>
    <path id="Path_358" data-name="Path 358" d="M673.36,643.818c-1.541-7.52-7.03-14.126-20.995-16.186L643.8,641.426l-7.42-13.237c-13.964,2.62-17.9,11.34-18.907,14.66q.516,1.2,1.128,2.342c3.019,1.147,9.582,1.415,9.582,1.415l.657-2.689,33.343,4.249Z" fill="#ffbbc8"/>
    <g id="Group_208" data-name="Group 208">
      <path id="Path_359" data-name="Path 359" d="M631.289,641.542l.2,1.982,1.791-.1-.2-2Z" fill="#4e4e56"/>
    </g>
    <path id="Path_360" data-name="Path 360" d="M652.841,640.911c-1.385.077-25.173-1.168-24.931.6a106.023,106.023,0,0,1,.085,14.365,31.043,31.043,0,0,0,35.307.461l.066-13.477S654.225,640.834,652.841,640.911Z" fill="#ffbbc8"/>
    <path id="Path_361" data-name="Path 361" d="M618.566,640.115a26.979,26.979,0,0,0-1.056,2.82,31.12,31.12,0,0,0,9.2,11.97,2.691,2.691,0,0,0-.285-1.093c-.329-.854,3.464-7.866,3.473-7.863Z" fill="#ffbbc8"/>
    <path id="Path_362" data-name="Path 362" d="M672.155,639.962c-.8.47-10.107,6.344-10.11,6.346-.1.076,1.189,2.933,1.243,3.134.288,1.078,1.344,4.593,1.449,5.12.041.2.116.406.172.611a31.159,31.159,0,0,0,8.693-10.437c-.092-.394-.194-.8-.311-1.209C672.761,641.649,672.071,640.012,672.155,639.962Z" fill="#ffbbc8"/>
    <g id="Group_210" data-name="Group 210">
      <g id="Group_209" data-name="Group 209">
        <path id="Path_363" data-name="Path 363" d="M650.017,625.309c-.082.592-4.986,9.777-5.913,9.608-.969-.176-5.076-8.951-5.076-8.951-1.4.065-2.876,2.258-2.876,2.258l-.956,2.8s8.967,11.46,9.058,11.447,7.707-8.53,7.707-8.53.789-5.739.667-6.313S650.05,625.063,650.017,625.309Z" fill="#ffbbc8"/>
      </g>
    </g>
    <g id="Group_211" data-name="Group 211">
      <path id="Path_364" data-name="Path 364" d="M637.654,632.349a10.092,10.092,0,0,1-1.738.475c-.05-.061-.276-.472.013-2.784.089-.715.2-1.416.29-1.912-.044.061-.067.1-.067.1h0c-.142.023-.282.047-.423.072-.082.486-.179,1.106-.256,1.733-.312,2.531-.059,3.038.229,3.2.238.133.735-.009,2.093-.447.611-.2,1.243-.4,1.774-.531.757-.185.934-.12.963-.1.6.769,3.078,4.306,3.506,6.607l.447-.083c-.446-2.4-2.994-6.039-3.6-6.812C640.571,631.461,639.614,631.716,637.654,632.349Z" fill="#f2adbd"/>
    </g>
    <path id="Path_365" data-name="Path 365" d="M653.078,627.746s-.437-.09-.446-.093l0-.021a.866.866,0,0,0-.168-.3c.1.286.41,1.176.694,2.109a7.19,7.19,0,0,1,.546,2.513,2.677,2.677,0,0,1-1.214.028c-.667-.058-1.478-.18-2.194-.287a5.853,5.853,0,0,0-2.007-.172c-.47.217-4.07,4.2-4.288,7.534-.1,1.51-.172,11.825-.222,22.483.151.011.3.021.455.029.05-10.659.123-20.978.221-22.482a10.378,10.378,0,0,1,1.946-4.669,13.019,13.019,0,0,1,2.072-2.477,13.049,13.049,0,0,1,1.756.2c2.69.4,3.681.465,3.885.012.061-.137.206-.457-.518-2.839C653.407,628.707,653.221,628.167,653.078,627.746Z" fill="#f2adbd"/>
    <g id="Group_212" data-name="Group 212">
      <path id="Path_366" data-name="Path 366" d="M644.1,634.917a.23.23,0,0,1-.053-.017,38.764,38.764,0,0,0-.072,4.573l.454-.026a39.672,39.672,0,0,1,.089-4.771C644.345,634.847,644.2,634.935,644.1,634.917Z" fill="#f2adbd"/>
    </g>
    <g id="Group_213" data-name="Group 213">
      <ellipse id="Ellipse_103" data-name="Ellipse 103" cx="1.958" cy="2.341" rx="1.958" ry="2.341" transform="matrix(0.997, -0.071, 0.071, 0.997, 632.758, 615.184)" fill="#fe9e76"/>
    </g>
    <g id="Group_214" data-name="Group 214">
      <path id="Path_367" data-name="Path 367" d="M654.186,614.763a2.144,2.144,0,0,0-1.853,2.4,2.205,2.205,0,0,0,2.061,2.274,2.146,2.146,0,0,0,1.853-2.4A2.2,2.2,0,0,0,654.186,614.763Z" fill="#fe9e76"/>
    </g>
    <g id="Group_215" data-name="Group 215">
      <path id="Path_368" data-name="Path 368" d="M638.074,608.263c-2.326,4.677-6.427,20.473,7.11,19.616s6.65-18.08,5.449-20.089S640.212,603.965,638.074,608.263Z" fill="#fe9e76"/>
    </g>
    <g id="Group_216" data-name="Group 216">
      <path id="Path_369" data-name="Path 369" d="M652.278,615.6s.234,2.738-.366,3.922a3.228,3.228,0,0,1-2.365,1.9s-.046-.131-.049-.139c-.2-.489-.648-3.313-3.691-2.5,0,0-.029.137-.378.281-.094.039-.184.088-.278.126a2.106,2.106,0,0,1-.357.1,6.172,6.172,0,0,1-1.041.131,2.118,2.118,0,0,1-.39-.011,2.361,2.361,0,0,1-.351-.085c-.219-.066-.434-.14-.647-.222a1.249,1.249,0,0,0-.26-.1c-.079-.008-.065-.134-.143-.149-2.774-.516-2.858,2.662-2.84,2.669-2.642-1.056-2.663-5.606-2.663-5.606l-.6.02s-4.006,13.088,9.113,12.655c11.912-.393,8.134-13.268,8.134-13.268Zm-8.089,8.076c-3.573.014-4.351-1.736-3.763-2.646.6-.929,1.963.274,3.763.136s2.355-1.224,3.506-.66S647.707,623.662,644.189,623.675Z" fill="#af6456"/>
    </g>
    <g id="Group_217" data-name="Group 217">
      <path id="Path_370" data-name="Path 370" d="M644.715,604.938c-1.951-.019-4.74.105-6.586,2.859-1.941,2.9-2.273,8.132-2.273,8.132l.266.285.337-.3c.371-2.79,1.995-7.768,2.714-8.42,1.244-1.126,2.793-.9,5.14-.855,2.1.044,3.7-.48,5.532.517,1.9,1.033,2.432,8.608,2.432,8.608l.462.124s.406-.337.383-.493c-.154-1.074-.786-6.112-2.447-8.177C649.954,606.316,648.237,604.972,644.715,604.938Z" fill="#af6456"/>
    </g>
    <g id="Group_219" data-name="Group 219">
      <g id="Group_218" data-name="Group 218">
        <path id="Path_371" data-name="Path 371" d="M645.681,617.954a.823.823,0,0,1-.031.707c-.219.361-.807.592-1.7.622h-.011c-1.353.045-1.942-.48-2.035-.925a1,1,0,0,1,.765-1.06c1.184-.437,1.258-2.457,1.26-2.543l-.361-.012c0,.019-.068,1.871-1.027,2.225a1.329,1.329,0,0,0-.991,1.458c.128.614.827,1.271,2.405,1.218h.012a2.3,2.3,0,0,0,2-.791,1.211,1.211,0,0,0,.048-1.056Z" fill="#ee685d"/>
      </g>
    </g>
    <g id="Group_221" data-name="Group 221">
      <g id="Group_220" data-name="Group 220">
        <path id="Path_372" data-name="Path 372" d="M642.538,616.968l.13.328a2.485,2.485,0,0,1,2.009.027.5.5,0,0,0,.055.024l.063-.221.054-.12-.016-.007A2.865,2.865,0,0,0,642.538,616.968Z" fill="#ee685d"/>
      </g>
    </g>
    <g id="Group_222" data-name="Group 222">
      <path id="Path_373" data-name="Path 373" d="M639.786,614.489a.7.7,0,0,0-.71.7.583.583,0,0,0,.027.151,5.141,5.141,0,0,0,1.146.373.654.654,0,0,0,.307-.573A.72.72,0,0,0,639.786,614.489Z" fill="#49263e"/>
    </g>
    <g id="Group_223" data-name="Group 223">
      <path id="Path_374" data-name="Path 374" d="M648.346,614.343a.7.7,0,0,0-.711.688.651.651,0,0,0,.3.506,4.429,4.429,0,0,0,1.16-.364.606.606,0,0,0,.023-.191A.716.716,0,0,0,648.346,614.343Z" fill="#49263e"/>
    </g>
    <g id="Group_224" data-name="Group 224">
      <path id="Path_375" data-name="Path 375" d="M634.944,616.1c-.088.271-.167.56-.233.855a2.764,2.764,0,0,0-.4-.758.13.13,0,0,0-.23.114,13.7,13.7,0,0,1,.473,1.563,5.7,5.7,0,0,0-.035.766.165.165,0,0,0,.324.025c.155-.821.237-1.68.356-2.509A.133.133,0,0,0,634.944,616.1Z" fill="#ee685d"/>
    </g>
    <g id="Group_225" data-name="Group 225">
      <path id="Path_376" data-name="Path 376" d="M655.07,615.963a3.534,3.534,0,0,0-.558.9c-.026.059-.053.12-.08.183-.043-.478-.038-.966-.074-1.42a.13.13,0,0,0-.256-.02,4.828,4.828,0,0,0,.365,2.984c.12.215.425,0,.312-.209a2.638,2.638,0,0,1-.2-.495.167.167,0,0,0,.021-.053,5.589,5.589,0,0,1,.715-1.7C655.4,615.982,655.179,615.839,655.07,615.963Z" fill="#ee685d"/>
    </g>
    <g id="Group_226" data-name="Group 226">
      <path id="Path_377" data-name="Path 377" d="M645.09,617.629a2.543,2.543,0,0,0-2.531-.051c-.146.1-.077.4.125.361a3.154,3.154,0,0,1,2.2.112A.236.236,0,0,0,645.09,617.629Z" fill="#ffbca4"/>
    </g>
    <g id="Group_227" data-name="Group 227">
      <path id="Path_378" data-name="Path 378" d="M640.226,616.127a2.947,2.947,0,0,0-.6-.123,5.791,5.791,0,0,1-.666-.213c-.19-.068-.331.217-.126.366a1.709,1.709,0,0,0,1.451.389C640.431,616.48,640.387,616.2,640.226,616.127Z" fill="#ffb89f"/>
    </g>
    <g id="Group_228" data-name="Group 228">
      <path id="Path_379" data-name="Path 379" d="M649.37,615.6c-.238.081-.459.231-.7.3s-.481.069-.72.137c-.178.05-.208.337-.054.4a1.628,1.628,0,0,0,1.6-.471C649.63,615.823,649.564,615.534,649.37,615.6Z" fill="#ffb89f"/>
    </g>
    <g id="Group_229" data-name="Group 229">
      <path id="Path_380" data-name="Path 380" d="M645.23,624.224a6.347,6.347,0,0,1-1.968.087.2.2,0,0,0-.167.336,1.438,1.438,0,0,0,.969.2,3.281,3.281,0,0,0,1.247-.234C645.505,624.527,645.473,624.2,645.23,624.224Z" fill="#9b554c"/>
    </g>
    <g id="Group_230" data-name="Group 230">
      <path id="Path_381" data-name="Path 381" d="M649.783,606.8c-1.428-.665-9.492-.366-10.188-.158s-2.214,4.136-2.214,4.136l-.256,1.359s.906-.356,1-.579c.38-.9,1.188-3.888,1.783-4.119s8.626-.354,9.174.1,1.794,4.229,1.962,4.449a6.952,6.952,0,0,0,1.093.766S651.21,607.462,649.783,606.8Z" fill="#af6456"/>
    </g>
    <g id="Group_231" data-name="Group 231">
      <path id="Path_382" data-name="Path 382" d="M651.657,607.687s1.3-1.011.871-1.2-1.281.528-1.281.528.517-1.574-5.2-2.6A8.948,8.948,0,0,0,636.941,608c-.161.489.437,1.192.437,1.192l.566-.638a19.59,19.59,0,0,1,2.849-1.856c.542-.121,8.834.4,9.052.453a37.3,37.3,0,0,1,2.319,3.363s.73-2.2.428-2.643S651.657,607.687,651.657,607.687Z" fill="#af6456"/>
    </g>
    <g id="Group_232" data-name="Group 232">
      <path id="Path_383" data-name="Path 383" d="M645.505,603.557c-2.633-.093-4.651.434-4.592.6a5.28,5.28,0,0,0,1.141.667s-2.416-.231-3.291.518c-.5.429.368,1.2.368,1.2s7.493-1.3,7.6-1.249,4.526,1.571,4.526,1.571S651.229,603.76,645.505,603.557Z" fill="#af6456"/>
    </g>
    <g id="Group_233" data-name="Group 233" opacity="0.22">
      <path id="Path_384" data-name="Path 384" d="M650.276,605.034a3.268,3.268,0,0,1-.566.2c-.527.113-.706-.2-1.048-.491a1.864,1.864,0,0,0-1.72-.15c-.246.059-.561.216-.812.136-.154-.048-.218-.179-.33-.276a1.109,1.109,0,0,0-.635-.295,4.044,4.044,0,0,0-2.1.435c-.319.148-.777.559-1.149.423a2.781,2.781,0,0,1-.5-.312c-.081.027-.163.051-.242.079a4.206,4.206,0,0,0-2.413.552.425.425,0,0,0-.144.437,6.486,6.486,0,0,1,1.17-.578,2.367,2.367,0,0,1,.935-.181,1.9,1.9,0,0,1,.9.4,1.075,1.075,0,0,0,1.134-.089,3.807,3.807,0,0,1,2.227-.7c.558.1.738.617,1.334.58.762-.046,1.56-.628,2.2.07a1.2,1.2,0,0,0,1.087.467,6.637,6.637,0,0,0,1.024-.348A3.332,3.332,0,0,0,650.276,605.034Z" fill="#fff"/>
    </g>
    <g id="Group_234" data-name="Group 234">
      <path id="Path_385" data-name="Path 385" d="M643.947,622.409a7.534,7.534,0,0,1-3.3-.745l.239-.456a7.141,7.141,0,0,0,6.533-.271l.265.448A7.328,7.328,0,0,1,643.947,622.409Z" fill="#ee685d"/>
    </g>
    <g id="Group_235" data-name="Group 235">
      <path id="Path_386" data-name="Path 386" d="M644.949,622.591a13.175,13.175,0,0,1-1.685.107c-.312,0-.377.513-.055.558a4.455,4.455,0,0,0,1.835-.116C645.339,623.056,645.269,622.551,644.949,622.591Z" fill="#ffb89f"/>
    </g>
    <g id="Group_236" data-name="Group 236">
      <path id="Path_387" data-name="Path 387" d="M641.5,612.963a2.5,2.5,0,0,0-2.613.384.285.285,0,0,0,.3.482,2.55,2.55,0,0,1,2.108-.338A.286.286,0,0,0,641.5,612.963Z" fill="#af6456"/>
    </g>
    <g id="Group_237" data-name="Group 237">
      <path id="Path_388" data-name="Path 388" d="M649.773,613.377a3.21,3.21,0,0,0-2.765-.533c-.35.048-.345.593.021.563a3.756,3.756,0,0,1,2.423.416C649.729,613.991,650,613.595,649.773,613.377Z" fill="#af6456"/>
    </g>
    <path id="Path_389" data-name="Path 389" d="M629.133,642.173l-.515-.059-.936,8.178c.159-.336.324-.676.489-1.01q-.009.732-.024,1.5Z" fill="#f2adbd"/>
    <path id="Path_390" data-name="Path 390" d="M664.05,651.986l-1.31-8.638-.512.077,1.1,7.265.005-1.073c.15.543.419,1.467.683,2.374Z" fill="#f2adbd"/>
    <path id="Path_391" data-name="Path 391" d="M658.732,643.741l-.005-.275H648.511l-.005.274c-.031,1.31-.175,7.89,0,8.484.051.172.145.5,2.757,1.449,1.236.451,2.467.837,2.479.841l.081.026.081-.027c.011,0,1.147-.4,2.285-.852,2.414-.967,2.488-1.273,2.532-1.45C658.863,651.643,658.746,644.547,658.732,643.741Zm-.514.269c.01.68.02,1.361.028,1.9h-9.267c.012-.544.025-1.225.038-1.9Zm0,8.057a19.826,19.826,0,0,1-4.407,1.923A21.06,21.06,0,0,1,649,652.06c-.082-.36-.069-3.015-.029-5.6h9.281C658.281,649.045,658.288,651.709,658.222,652.067Z" fill="#f2adbd"/>
  </g>
</svg>
