<svg xmlns="http://www.w3.org/2000/svg" width="49.774" height="58.466" viewBox="0 0 49.774 58.466">
  <g id="Group_550" data-name="Group 550" transform="translate(-545.072 -603.149)">
    <g id="Group_526" data-name="Group 526">
      <path id="Path_626" data-name="Path 626" d="M580.382,632.322c-.722-.172-1.235-.221-1.684-.331-2.574-.631-2.373-6.184-2.373-6.184L564.6,624.078s-.468,4.729-1.832,6.231a11.5,11.5,0,0,1-2.611,1.677v7.571h20.224Z" fill="#fe9e76"/>
    </g>
    <g id="Group_527" data-name="Group 527">
      <path id="Path_627" data-name="Path 627" d="M563.609,611.477c-.887,2.585-1.949,9.5.78,14.576,2.088,3.886,10.315,4.185,12.766.285,2.461-3.918,3.092-13.763,1.914-15.985C577.145,606.723,565.462,606.08,563.609,611.477Z" fill="#fe9e76"/>
    </g>
    <g id="Group_528" data-name="Group 528">
      <path id="Path_628" data-name="Path 628" d="M561.787,616.205a2.022,2.022,0,0,0-1.4,2.422c.142,1.232,1,2.145,1.917,2.039a2.024,2.024,0,0,0,1.4-2.422C563.562,617.012,562.7,616.1,561.787,616.205Z" fill="#fe9e76"/>
    </g>
    <g id="Group_529" data-name="Group 529">
      <path id="Path_629" data-name="Path 629" d="M580.373,617.333a2.363,2.363,0,0,0-1.979,2.218c-.13,1.193.544,2.134,1.506,2.1a2.363,2.363,0,0,0,1.979-2.218C582.01,618.243,581.335,617.3,580.373,617.333Z" fill="#fe9e76"/>
    </g>
    <g id="Group_530" data-name="Group 530">
      <path id="Path_630" data-name="Path 630" d="M568.664,618.658a.329.329,0,0,1-.04-.28c.18-.724,1.78-1.726,2.381-2.05l-.256-.476c-.243.131-2.379,1.311-2.649,2.4a.866.866,0,0,0,.115.71,2.677,2.677,0,0,0,2.22.859,6.053,6.053,0,0,0,.932-.059l-.084-.534C570.719,619.312,569.148,619.383,568.664,618.658Z" fill="#ee685d"/>
    </g>
    <g id="Group_531" data-name="Group 531">
      <path id="Path_631" data-name="Path 631" d="M571.328,607.037c-2.289-.154-6.4,1.216-7.782,3.26-.369.546-.935,6.953-.935,6.953s-.063,2.234.321,2.276.5-2.333.642-3.315c.219-1.48,1.015-4.887,1.665-5.751,1.56-2.073,12.442-.69,12.851.01s.439,6.644.439,6.644-.107,2.463.222,2.394.86-2.059.86-2.059.67-6.126-.106-7.412S573.617,607.191,571.328,607.037Z" fill="#75434c"/>
    </g>
    <g id="Group_532" data-name="Group 532">
      <path id="Path_632" data-name="Path 632" d="M568.578,613.523a4.926,4.926,0,0,0-2.487.317.294.294,0,0,0,.164.564c.385-.06.769-.133,1.157-.172.361-.037.73-.015,1.088-.067C568.828,614.118,568.977,613.595,568.578,613.523Z" fill="#683c46"/>
    </g>
    <g id="Group_533" data-name="Group 533">
      <path id="Path_633" data-name="Path 633" d="M576,614.37a5.573,5.573,0,0,0-2.58-.443c-.364.051-.382.608.008.591a8.092,8.092,0,0,1,2.4.505A.338.338,0,0,0,576,614.37Z" fill="#683c46"/>
    </g>
    <g id="Group_534" data-name="Group 534">
      <path id="Path_634" data-name="Path 634" d="M567.206,615.7c-.778-.4-1.256.551-1.256.551a1.544,1.544,0,0,0,1.525.637S567.9,616.055,567.206,615.7Z" fill="#49263e"/>
    </g>
    <g id="Group_535" data-name="Group 535">
      <path id="Path_635" data-name="Path 635" d="M574.614,615.967c-.771.136-.67,1.216-.67,1.216a1.545,1.545,0,0,0,1.637-.226S575.66,615.782,574.614,615.967Z" fill="#49263e"/>
    </g>
    <g id="Group_536" data-name="Group 536">
      <path id="Path_636" data-name="Path 636" d="M567.073,620.962l-.205.592s.618,1.771,3.57,1.872a4.434,4.434,0,0,0,4.077-1.888l-.237-.492A13.869,13.869,0,0,1,567.073,620.962Z" fill="#49263e"/>
    </g>
    <g id="Group_537" data-name="Group 537">
      <path id="Path_637" data-name="Path 637" d="M567.437,621.061a7.2,7.2,0,0,0-.375.85,3.961,3.961,0,0,0,3.376,1.515,4.707,4.707,0,0,0,3.578-1.276c-.029-.315-.065-.722-.1-1A13.911,13.911,0,0,1,567.437,621.061Z" fill="#fff"/>
    </g>
    <g id="Group_538" data-name="Group 538" opacity="0.22">
      <path id="Path_638" data-name="Path 638" d="M567.437,621.061a7.2,7.2,0,0,0-.375.85,2.675,2.675,0,0,0,.273.338,1.2,1.2,0,0,1,1.469-.5,4.668,4.668,0,0,0,2.092.188c.527-.1,1.05-.249,1.582-.323a.808.808,0,0,1,1.022.966,4.311,4.311,0,0,0,.516-.429c-.029-.315-.065-.722-.1-1A13.911,13.911,0,0,1,567.437,621.061Z" fill="#ccb6ae"/>
    </g>
    <g id="Group_539" data-name="Group 539" opacity="0.55">
      <path id="Path_639" data-name="Path 639" d="M570.558,622.63h-.026a5.96,5.96,0,0,1-3.276-1.2c-.036.08-.073.164-.107.248a6.14,6.14,0,0,0,3.379,1.217h.027a6.513,6.513,0,0,0,3.446-.912c-.009-.1-.019-.209-.029-.316A6.213,6.213,0,0,1,570.558,622.63Z" fill="#ccb6ae"/>
    </g>
    <g id="Group_540" data-name="Group 540">
      <path id="Path_640" data-name="Path 640" d="M567.426,617.411c-.516-.243-1.131-.126-1.608-.494a.3.3,0,0,0-.415.427,1.59,1.59,0,0,0,.835.513,2.956,2.956,0,0,0,1.034.154C567.556,617.979,567.743,617.56,567.426,617.411Z" fill="#ffac8f"/>
    </g>
    <g id="Group_541" data-name="Group 541">
      <path id="Path_641" data-name="Path 641" d="M575.835,617.343c-.552.406-1.227.277-1.85.455a.315.315,0,0,0,.008.6,3.257,3.257,0,0,0,1.241-.083,1.809,1.809,0,0,0,.981-.5C576.451,617.579,576.124,617.13,575.835,617.343Z" fill="#ffac8f"/>
    </g>
    <g id="Group_542" data-name="Group 542">
      <path id="Path_642" data-name="Path 642" d="M571.438,624.235a11.543,11.543,0,0,1-1.8.043.29.29,0,0,0-.215.53,1.556,1.556,0,0,0,.936.17,5.206,5.206,0,0,0,1.176-.1A.328.328,0,0,0,571.438,624.235Z" fill="#ee685d"/>
    </g>
    <g id="Group_543" data-name="Group 543">
      <path id="Path_643" data-name="Path 643" d="M561.988,617.108a5.675,5.675,0,0,0-.138,1.092,1.337,1.337,0,0,1-.138-.2,1.212,1.212,0,0,0-.388-.512c-.136-.082-.316.091-.221.226.134.191.207.406.331.6a2.915,2.915,0,0,0,.442.508,3.067,3.067,0,0,0,.222.875c.071.166.37.168.349-.052-.04-.419-.149-.823-.171-1.245a8.384,8.384,0,0,1,.044-1.257C562.338,616.958,562.029,616.925,561.988,617.108Z" fill="#ee685d"/>
    </g>
    <g id="Group_544" data-name="Group 544">
      <path id="Path_644" data-name="Path 644" d="M581.037,618.806a3.2,3.2,0,0,0-.77.429,2.618,2.618,0,0,0,.193-1.107c-.024-.188-.306-.151-.322.025a9.864,9.864,0,0,1-.408,1.432,7.33,7.33,0,0,0-.192,1.231.223.223,0,0,0,.445.025c.026-.28.061-.557.109-.831a2.648,2.648,0,0,1,1.176-.821C581.573,619.053,581.247,618.631,581.037,618.806Z" fill="#ee685d"/>
    </g>
    <g id="Group_545" data-name="Group 545">
      <path id="Path_645" data-name="Path 645" d="M579.869,607.925a1.259,1.259,0,0,0-.254-.075,9.507,9.507,0,0,0-.2-.989.475.475,0,0,0-.138-.21h0a2.313,2.313,0,0,0-.922-.533c-.381-.163-.845-.329-1.362-.493l-.039-.013s.062-.544-.155-.59a19.369,19.369,0,0,1-2.873-.557,4.115,4.115,0,0,0-2.161-.175s.123-.809.125-.983-.978-.339-2.953.293-2.129,1.017-2.129,1.017.221-.507.114-.661-.779.331-2.168,1.645a3.438,3.438,0,0,0-.8,3.283,5.148,5.148,0,0,0,.306,1.463s9.938-1.411,11.217-1.182a21.77,21.77,0,0,1,4.2,1.874,3.276,3.276,0,0,0,.306-.5c.131-.261.349-.476.491-.733a2,2,0,0,0,.239-.787,1.038,1.038,0,0,0-.046-.454A1.281,1.281,0,0,0,579.869,607.925Zm.084.964a.545.545,0,0,1-.2.233,3.593,3.593,0,0,1-.075-.711c.023.012.047.022.069.036A.406.406,0,0,1,579.953,608.889Z" fill="#75434c"/>
    </g>
    <g id="Group_546" data-name="Group 546">
      <path id="Path_646" data-name="Path 646" d="M580.657,608.53a2.264,2.264,0,0,1-.413,1.042,2.95,2.95,0,0,1-.528.576,1.553,1.553,0,0,1-.347.225c-.132.057-.193.02-.326-.016s-.272.031-.4,0a.547.547,0,0,1-.322-.322.741.741,0,0,0-.285-.363.566.566,0,0,0-.255-.044,1.792,1.792,0,0,0-.488.074,2.693,2.693,0,0,1-.34.1,2.157,2.157,0,0,1-.595-.091,2.1,2.1,0,0,1-.624-.151,3.244,3.244,0,0,1-.291-.2,1.547,1.547,0,0,0-.892-.24,2.244,2.244,0,0,1-1-.114,4.3,4.3,0,0,0-1.338-.48,26.91,26.91,0,0,0-2.949.12,10.394,10.394,0,0,0-2.772-.1c-.706.18-1.495.6-2.232.323a1.256,1.256,0,0,1-.344-.2c.026.135.05.214.05.214a5.544,5.544,0,0,0,.112.791,4.219,4.219,0,0,0-.524.622c-.369.546-.935,6.953-.935,6.953s-.063,2.234.321,2.276.5-2.333.642-3.315c.024-.163.056-.35.093-.554a2.277,2.277,0,0,0,1.007-1.186c.362-.956.744-3.83,1.545-4.174,2.445-1.052,8.559-.339,10.706.71.685.335.519,4.333.791,4.743a1.886,1.886,0,0,0,.8.571c.007.484.008.793.008.793s-.107,2.463.222,2.394.86-2.059.86-2.059a35.538,35.538,0,0,0,.155-6.529,3.247,3.247,0,0,0,.225-.378c.131-.261.349-.476.491-.733a2,2,0,0,0,.239-.787,1.038,1.038,0,0,0-.046-.454C580.67,608.554,580.662,608.543,580.657,608.53Z" fill="#683c46"/>
    </g>
    <g id="Group_547" data-name="Group 547" opacity="0.22">
      <path id="Path_647" data-name="Path 647" d="M577.953,605.957a1.614,1.614,0,0,1-.927.549c-.384.01-.741-.287-1.123-.327a1.874,1.874,0,0,0-1.064.294c-.63.313-.93.007-1.389-.419a3.1,3.1,0,0,0-2.031-.863,3.5,3.5,0,0,0-2.167.659c-.272.192-.572.493-.949.427a2.215,2.215,0,0,1-.62-.338,2.565,2.565,0,0,0-1.1-.351,3.776,3.776,0,0,0-2.437.839,3.3,3.3,0,0,0-.314,1.341,3.782,3.782,0,0,1,1.519-1.25,2.131,2.131,0,0,1,1.649-.141c.339.122.609.37.946.5a1.669,1.669,0,0,0,1.656-.442,2.811,2.811,0,0,1,2.3-.5c.762.183,1.1.781,1.717,1.172a1.453,1.453,0,0,0,1.551-.083,1.214,1.214,0,0,1,1.21-.013,1.542,1.542,0,0,0,.939.112c.383-.1.876-.637,1.328-.877-.093-.043-.192-.086-.294-.128C578.23,606.065,578.095,606.011,577.953,605.957Z" fill="#fff"/>
    </g>
    <g id="Group_548" data-name="Group 548">
      <path id="Path_648" data-name="Path 648" d="M569.894,628.951a7.186,7.186,0,0,1-5.563-3.014c-.049.274-.106.563-.17.86a8.264,8.264,0,0,0,5.693,2.668,12.141,12.141,0,0,0,1.6.021,10.223,10.223,0,0,0,4.977-1.608c-.021-.229-.043-.4-.059-.6A9.738,9.738,0,0,1,569.894,628.951Z" fill="#ee685d"/>
    </g>
    <g id="Group_549" data-name="Group 549">
      <path id="Path_649" data-name="Path 649" d="M570.3,625.472a.984.984,0,0,0-1.038.9,1,1,0,0,0,1.143.784.985.985,0,0,0,1.039-.9A1,1,0,0,0,570.3,625.472Z" fill="#ffac8f"/>
    </g>
    <path id="Path_650" data-name="Path 650" d="M545.733,647.8a31.2,31.2,0,0,0,2.994,3.8,49.662,49.662,0,0,0,5.485,1.979l-.124,2.652a31.051,31.051,0,0,0,31.992,1.769l-.035-4.421c3.406-.7,8.418-3.69,8.418-3.69s-.549-11.4-6.138-14.474a110.774,110.774,0,0,0-10.473-4.718,12.008,12.008,0,0,1-8.53,3.179c-3.321-.028-6.513-2.506-7.121-3.765l-8.032,3.32a15.719,15.719,0,0,0-5.1,4.234C547.484,639.766,546.318,644.791,545.733,647.8Z" fill="#f4f0ed"/>
    <path id="Path_651" data-name="Path 651" d="M575.84,661.319a30.841,30.841,0,0,0,12.675-4.752l-.287-21.763s-7.5-3.048-8.928-4.09-2.794-2.28-2.794-2.28S576.135,645.081,575.84,661.319Z" fill="#cc7a65"/>
    <path id="Path_652" data-name="Path 652" d="M548.332,635.364c-.743.553-2.122,5.6-3.26,11.407a31.1,31.1,0,0,0,17.57,13.545c.126-11.859.409-24.334,1.066-31.836a17.81,17.81,0,0,1-1.71,1.488C561.588,630.2,549.6,634.42,548.332,635.364Z" fill="#cc7a65"/>
    <path id="Path_653" data-name="Path 653" d="M585.927,633.794l-.888,17.434.132,7.243a31.126,31.126,0,0,0,9.675-7.393c-.832-5.973-1.924-12.1-3.027-14.167C591.333,636,585.927,633.794,585.927,633.794Z" fill="#cc7a65"/>
    <path id="Path_654" data-name="Path 654" d="M552.522,655.1c.164.127.329.254.5.378l.824-12.693-.517-.033Z" fill="#af6454"/>
    <path id="Path_655" data-name="Path 655" d="M585.509,643.893l.44,14.183c.171-.09.341-.18.51-.273l-.432-13.924Z" fill="#af6454"/>
    <path id="Path_656" data-name="Path 656" d="M580.05,631.209a1.989,1.989,0,0,1-.479-.292c0,.093.022.194.023.3.11,17.773-1.648,26.164-3.559,30.068.205-.03.362-.062.566-.1,1.892-4.133,3.585-12.647,3.449-29.975Z" fill="#af6454"/>
    <path id="Path_657" data-name="Path 657" d="M560.351,630.6l-.551.2a71.691,71.691,0,0,0,.733,22.153c.552,3,1.188,5.486,1.688,7.232.14.044.28.086.421.128q0-.268.006-.537C561.165,654.489,558.61,642.9,560.351,630.6Z" fill="#af6454"/>
  </g>
</svg>
