<svg id="Group_205" data-name="Group 205" xmlns="http://www.w3.org/2000/svg" width="49.872" height="54.089" viewBox="0 0 49.872 54.089">
  <g id="Group_183" data-name="Group 183" transform="translate(18.453 20.028)">
    <path id="Path_325" data-name="Path 325" d="M639.772,409.427a1.6,1.6,0,0,0,.452-.558,11.05,11.05,0,0,0,.429-3.113l12.137-4.024s-.576,7.206.355,7.376c.665.122-.218.42-.218.42l-8.061,2.1Z" transform="translate(-639.772 -401.732)" fill="#cc7a64"/>
  </g>
  <g id="Group_184" data-name="Group 184" transform="translate(15.718 4.489)">
    <path id="Path_326" data-name="Path 326" d="M638.811,389.622c-1.348,4.352-3.663,14.786,1.034,17.677s9.673,2.578,11.932-1.272,2.156-13.354.4-16.79S640.412,384.455,638.811,389.622Z" transform="translate(-637.037 -386.193)" fill="#cc7a64"/>
  </g>
  <g id="Group_185" data-name="Group 185" transform="translate(14.171 14.12)">
    <path id="Path_327" data-name="Path 327" d="M637.432,395.857c-.871-.215-1.725.646-1.907,1.924s.376,2.487,1.247,2.7,1.726-.646,1.908-1.923S638.3,396.072,637.432,395.857Z" transform="translate(-635.49 -395.824)" fill="#cc7a64"/>
  </g>
  <g id="Group_186" data-name="Group 186" transform="translate(30.643 14.481)">
    <ellipse id="Ellipse_101" data-name="Ellipse 101" cx="2.359" cy="1.776" rx="2.359" ry="1.776" transform="translate(0 4.59) rotate(-76.654)" fill="#cc7a64"/>
  </g>
  <g id="Group_187" data-name="Group 187" transform="translate(20.092 18.215)">
    <path id="Path_328" data-name="Path 328" d="M648.262,400.125c-1.043-.647-1.567.424-3.294.537-1.555.1-2.59-1.427-3.354-.364-.692.962.367,3.258,3.477,3.106S649.3,400.771,648.262,400.125Z" transform="translate(-641.411 -399.919)" fill="#49263e"/>
  </g>
  <g id="Group_189" data-name="Group 189" transform="translate(20.545 12.275)">
    <g id="Group_188" data-name="Group 188">
      <path id="Path_329" data-name="Path 329" d="M646.071,397.946a6.843,6.843,0,0,1-2.817-.05h0a1.382,1.382,0,0,1-.879-.491c-.267-.537,1-2.134,1.987-3.079l-.335-.346c-.439.421-2.6,2.574-2.079,3.616a1.767,1.767,0,0,0,1.2.716,8.317,8.317,0,0,0,1.808.2,5.188,5.188,0,0,0,1.12-.093C646.068,398.261,646.068,398.1,646.071,397.946Z" transform="translate(-641.864 -393.979)" fill="#563d51"/>
    </g>
  </g>
  <g id="Group_190" data-name="Group 190" transform="translate(18.635 11.656)">
    <path id="Path_330" data-name="Path 330" d="M641.107,393.389a.92.92,0,0,0-1.126.638.839.839,0,0,0,.013.464,6.436,6.436,0,0,0,1.346.545.873.873,0,0,0,.452-.561A.9.9,0,0,0,641.107,393.389Z" transform="translate(-639.954 -393.36)" fill="#49263e"/>
  </g>
  <g id="Group_191" data-name="Group 191" transform="translate(26.519 12.169)">
    <path id="Path_331" data-name="Path 331" d="M648.99,393.9a.921.921,0,0,0-1.126.638.88.88,0,0,0,.331.915,3.507,3.507,0,0,0,1.471-.436l.01-.03A.905.905,0,0,0,648.99,393.9Z" transform="translate(-647.838 -393.873)" fill="#49263e"/>
  </g>
  <g id="Group_192" data-name="Group 192" transform="translate(21.086 20.193)">
    <path id="Path_332" data-name="Path 332" d="M644.95,402.269c-1.532-.333-2.29.026-2.545.444a4.1,4.1,0,0,0,2.686.691,4.377,4.377,0,0,0,2.707-.989c-.107-.14-.21-.15-.4-.275C646.454,401.526,644.95,402.269,644.95,402.269Z" transform="translate(-642.405 -401.897)" fill="#773e50"/>
  </g>
  <g id="Group_193" data-name="Group 193" transform="translate(20.628 18.215)">
    <path id="Path_333" data-name="Path 333" d="M644.968,400.662c-1.34.088-2.293-1.033-3.021-.666a.861.861,0,0,0,.245.694c1.151,1.012,4.321,1.076,5.162.232a1.656,1.656,0,0,0,.385-.995C646.991,399.833,646.384,400.569,644.968,400.662Z" transform="translate(-641.947 -399.919)" fill="#fff"/>
  </g>
  <g id="Group_195" data-name="Group 195" transform="translate(20.628 18.215)" opacity="0.33">
    <g id="Group_194" data-name="Group 194">
      <path id="Path_334" data-name="Path 334" d="M644.968,400.662c-1.34.088-2.293-1.033-3.021-.666a.861.861,0,0,0,.245.694l.014.012c.558-.6,1.847.153,2.521.262a2.347,2.347,0,0,0,1.34-.263,1.046,1.046,0,0,1,.709-.136.422.422,0,0,1,.328.544,1.245,1.245,0,0,0,.25-.187,1.656,1.656,0,0,0,.385-.995C646.991,399.833,646.384,400.569,644.968,400.662Z" transform="translate(-641.947 -399.919)" fill="#ada689"/>
    </g>
  </g>
  <g id="Group_196" data-name="Group 196" transform="translate(15.775 3.624)">
    <path id="Path_335" data-name="Path 335" d="M652.922,388.026c-.613-.529-4.882-2.68-7.718-2.7s-6.221,1.246-6.9,4.765a73.179,73.179,0,0,0-1.2,7.244,3.142,3.142,0,0,0,.371.106l1.593-7.752s.783-3.4,6.743-3.271c6.778.149,6.728,4.483,6.792,4.8.061.3.22,6.432.564,7.053a3.8,3.8,0,0,1,.435-1.406c.047-.558.059-1.064.059-1.064S653.535,388.555,652.922,388.026Z" transform="translate(-637.094 -385.328)" fill="#49263e"/>
  </g>
  <g id="Group_197" data-name="Group 197" transform="translate(16.037)">
    <path id="Path_336" data-name="Path 336" d="M654.205,387.243a.734.734,0,0,0-.072-.586c-.027-.041-.447-.4-.477-.265a.657.657,0,0,0-.423-.877.989.989,0,0,0,.089-.629.949.949,0,0,0-.722-.652,2.682,2.682,0,0,0-1.006.01.564.564,0,0,0-.133-.6,1.25,1.25,0,0,0-.561-.3,3.833,3.833,0,0,0-1.391-.156.883.883,0,0,0-.363-.711,2.275,2.275,0,0,0-.738-.344,1.589,1.589,0,0,0-1.475.054c.074-.254-.252-.431-.509-.461a2.993,2.993,0,0,0-2.43.847,1.8,1.8,0,0,0-2.011.232,1.782,1.782,0,0,1-.217.183,1.542,1.542,0,0,1-.339.137,2.764,2.764,0,0,0-1.587,1.662.736.736,0,0,0-.821.27c-.292.329-.73.7-.706,1.189a4.6,4.6,0,0,0,.1.5.51.51,0,0,1-.125.473.871.871,0,0,1-.234.112,1.172,1.172,0,0,0-.653,1.345.776.776,0,0,1,.056.47.87.87,0,0,0-.067.15c-.018.1.067.132.071.209a1.3,1.3,0,0,1-.075.28.8.8,0,0,0,.058.593,1.621,1.621,0,0,0,.306.3.512.512,0,0,1,.2.369c-.008.222-.255.42-.173.628.03.076.1.135.109.216a.689.689,0,0,1-.042.187.263.263,0,0,0,.244.3.2.2,0,0,0,.142-.05.347.347,0,0,0,.082-.229l.067-.688c.025-.253.049-.506.093-.757a.238.238,0,0,1,.035-.1c.074-.1.15-.125.188-.254.043-.146.009-.31.056-.458a1.508,1.508,0,0,1,.441-.659c.283-.253.386-.84.7-1,.621-.3.929-.786,1.571-1.041a11.827,11.827,0,0,1,5.044-.517,13.749,13.749,0,0,1,3.936.858,4.275,4.275,0,0,1,2.335,2.626,1.247,1.247,0,0,0,.2.6.915.915,0,0,1,.2.618,5.814,5.814,0,0,0,.056,1.869c.054.146.274.24.36.111.035-.052.032-.121.061-.177.061-.121.225-.129.352-.177a.726.726,0,0,0,.4-.707,4.786,4.786,0,0,0-.162-.848.556.556,0,0,1-.008-.233c.049-.212.291-.314.411-.5a.793.793,0,0,0-.011-.742c-.131-.3-.374-.622-.3-.97.059-.269.226-.27.4-.427a.543.543,0,0,0,.064-.678A3.418,3.418,0,0,0,654.205,387.243Z" transform="translate(-637.356 -381.704)" fill="#49263e"/>
  </g>
  <g id="Group_198" data-name="Group 198" transform="translate(22.597 22.359)">
    <path id="Path_337" data-name="Path 337" d="M645.741,404.065a4.45,4.45,0,0,1-1.593.086.2.2,0,0,0-.086.38,2.41,2.41,0,0,0,1.794-.1A.2.2,0,0,0,645.741,404.065Z" transform="translate(-643.916 -404.063)" fill="#563d51"/>
  </g>
  <g id="Group_199" data-name="Group 199" transform="translate(18.354 13.189)">
    <path id="Path_338" data-name="Path 338" d="M641.11,395.346a1.955,1.955,0,0,0-.554-.245,4.262,4.262,0,0,0-.644-.2.2.2,0,0,0-.138.369,4.305,4.305,0,0,0,.624.257,1.945,1.945,0,0,0,.584.169A.2.2,0,0,0,641.11,395.346Z" transform="translate(-639.673 -394.893)" fill="#e78669"/>
  </g>
  <g id="Group_200" data-name="Group 200" transform="translate(26.845 13.857)">
    <path id="Path_339" data-name="Path 339" d="M649.453,395.579c-.383.15-.776.27-1.162.412-.2.072-.16.4.067.374a4.55,4.55,0,0,0,1.233-.351C649.86,395.9,649.732,395.469,649.453,395.579Z" transform="translate(-648.164 -395.561)" fill="#e78669"/>
  </g>
  <g id="Group_201" data-name="Group 201" transform="translate(32.736 15.467)">
    <path id="Path_340" data-name="Path 340" d="M655.382,398.114a2.349,2.349,0,0,0-.711.29c.039-.322.086-.644.152-.969.05-.243-.279-.381-.367-.133a5.936,5.936,0,0,0-.359,2.725.2.2,0,0,0,.4-.024c.043-.334.076-.664.109-.993a3.992,3.992,0,0,1,.477-.269c.2-.087.471-.094.544-.337A.222.222,0,0,0,655.382,398.114Z" transform="translate(-654.055 -397.171)" fill="#563d51"/>
  </g>
  <g id="Group_202" data-name="Group 202" transform="translate(14.895 15.044)">
    <path id="Path_341" data-name="Path 341" d="M636.766,396.977a.19.19,0,0,0-.372-.081,4.462,4.462,0,0,0-.063,2.251c.062.228.389.147.385-.075A13.579,13.579,0,0,1,636.766,396.977Z" transform="translate(-636.214 -396.748)" fill="#563d51"/>
  </g>
  <g id="Group_203" data-name="Group 203" transform="translate(18.755 1.311)" opacity="0.22">
    <path id="Path_342" data-name="Path 342" d="M652.9,384.359a3.7,3.7,0,0,0-.578.158c-.141.051-.271.125-.41.178a.816.816,0,0,1-.96-.218,2.324,2.324,0,0,0-2.032-.619c-.243.046-.455.185-.705.05a4.87,4.87,0,0,1-.381-.321,3.149,3.149,0,0,0-3.051-.312,9.223,9.223,0,0,0-.92.578c-.553.333-.93.145-1.495-.03a4.064,4.064,0,0,0-1.85-.115,3.055,3.055,0,0,0-.448.6,3.6,3.6,0,0,1,.621-.143,5.455,5.455,0,0,1,2.194.343c.667.164,1.132-.21,1.663-.562a2.654,2.654,0,0,1,2.19-.368,2.715,2.715,0,0,1,1.049.56c.164.141.283.306.506.337.335.047.681-.2,1.021-.213a1.84,1.84,0,0,1,1.341.55c.4.336.691.646,1.214.423a6.063,6.063,0,0,1,1.409-.47A.9.9,0,0,0,652.9,384.359Z" transform="translate(-640.074 -383.015)" fill="#fff"/>
  </g>
  <g id="Group_204" data-name="Group 204" transform="translate(15.709 26.653)">
    <path id="Path_343" data-name="Path 343" d="M655.781,416.394v-7.15a38.721,38.721,0,0,0-9.979-.86,42.5,42.5,0,0,0-8.774,1.17v6.84Z" transform="translate(-637.028 -408.356)" fill="#cc7a64"/>
  </g>
  <path id="Path_344" data-name="Path 344" d="M654.5,408.979a5.154,5.154,0,0,0-.948-.164s.448.321.412.384c-.817,1.4-3.887,4.23-9.076,4.142-3.915-.067-6.431-2.136-6.85-3.509-.1-.32,1.192-.751,1.192-.751a12.663,12.663,0,0,0-1.321.219c-4.82.906-9.9,3.584-11.807,5.989a36.9,36.9,0,0,0-4.779,8.3,31.206,31.206,0,0,0,7.135,6.778c.256.176.519.35.519.35l.156.1a31.043,31.043,0,0,0,34.124-.277c-.1-3.467-.169-5.76-.169-5.76a58.324,58.324,0,0,0,6.277.379q.849-.973,1.617-2.015C670.365,419.151,668.774,411.488,654.5,408.979Z" transform="translate(-621.319 -381.704)" fill="#f4f0ed"/>
  <path id="Path_345" data-name="Path 345" d="M658.424,422.158l-.508.063c.434,3.545,1.051,9.621,1.051,9.621a3.979,3.979,0,0,0,1.746-.134l.017-.535s-1.217.139-1.255.148C659.433,430.648,659.226,428.7,658.424,422.158Z" transform="translate(-621.319 -381.704)" fill="#e5dfda"/>
  <path id="Path_346" data-name="Path 346" d="M669.238,417.215c-.526-1.25-9.477,5.287-9.9,5.222s.674,8.822.674,8.822,1.078-.117,2.607-.3a31.179,31.179,0,0,0,8.571-8.1C670.588,420.857,669.891,418.77,669.238,417.215Z" transform="translate(-621.319 -381.704)" fill="#f4f0ed"/>
  <path id="Path_347" data-name="Path 347" d="M652.08,405.109l-.446-.306a7.466,7.466,0,0,1-6.924,3.868,8.911,8.911,0,0,1-4.223-1.032c-.03.192-.065.389-.107.586a9.258,9.258,0,0,0,4.326,1.019h.057A7.954,7.954,0,0,0,652.08,405.109Z" transform="translate(-621.319 -381.704)" fill="#563d51"/>
  <path id="Path_348" data-name="Path 348" d="M638.228,392.715s.729-.737.753-.98A6.343,6.343,0,0,1,640.726,388c1.411-1.194,7.935-1.088,9.563.268,1.238,1.03,1.347,4.28,1.46,4.4a2.57,2.57,0,0,1,.458.958c.037.194-.116,4.3.144,4.569.154.158.435.166.812.082.053-.011-.079-8.384-.6-9.462s-5.809-4.328-10.008-2.638-4,3.743-4,3.743Z" transform="translate(-621.319 -381.704)" fill="#49263e"/>
  <path id="Path_349" data-name="Path 349" d="M642.609,391.774a6.518,6.518,0,0,0-2.376.307.3.3,0,0,0,.167.568,12.693,12.693,0,0,1,2.222-.3A.29.29,0,0,0,642.609,391.774Z" transform="translate(-621.319 -381.704)" fill="#49263e"/>
  <path id="Path_350" data-name="Path 350" d="M650.066,392.57a7.059,7.059,0,0,0-2.657-.511c-.368-.007-.341.544.013.576a16.875,16.875,0,0,1,2.437.468C650.158,393.175,650.373,392.7,650.066,392.57Z" transform="translate(-621.319 -381.704)" fill="#49263e"/>
  <path id="Path_351" data-name="Path 351" d="M654.65,412.809a10.022,10.022,0,0,0,2.462-3.257c-.168-.044-.336-.088-.507-.131a9.679,9.679,0,0,1-2.315,3.019c-1.7,1.506-4.818,3.245-10.037,2.97-3.619-.189-6.206-1.5-7.69-3.888a7.87,7.87,0,0,1-.791-1.713c-.165.048-.33.1-.494.147a8.449,8.449,0,0,0,.838,1.819c1.083,1.757,3.369,3.9,8.11,4.152q.568.03,1.1.03C650.081,415.957,653,414.278,654.65,412.809Z" transform="translate(-621.319 -381.704)" fill="#e5dfda"/>
  <path id="Path_352" data-name="Path 352" d="M628.675,430.52c.169.114.454.3.454.3l.021.013c.222-2.365.731-7.786.731-7.922l-.512-.007C629.361,423.1,628.922,427.884,628.675,430.52Z" transform="translate(-621.319 -381.704)" fill="#e5dfda"/>
  <path id="Path_353" data-name="Path 353" d="M658.879,428.288l.068.513,7.9-1.073c.224-.2.443-.41.661-.62Z" transform="translate(-621.319 -381.704)" fill="#e5dfda"/>
  <path id="Path_354" data-name="Path 354" d="M623.932,426.594c1.738.563,3.652,1.187,4.936,1.6l.155-.494c-2.357-.755-4.334-1.4-5.828-1.877Q623.556,426.214,623.932,426.594Z" transform="translate(-621.319 -381.704)" fill="#e5dfda"/>
  <path id="Path_355" data-name="Path 355" d="M633.43,425.4c-.08.216-.717,6.286-.656,6.464s20.271.275,20.485.165.923-6.245.308-6.467S633.43,425.4,633.43,425.4Z" transform="translate(-621.319 -381.704)" fill="#ffddab"/>
  <path id="Path_356" data-name="Path 356" d="M635.786,434.077a31.2,31.2,0,0,0,14.964,1.351,3.967,3.967,0,0,0-.026-1.345C650.58,433.975,638.906,434.054,635.786,434.077Z" transform="translate(-621.319 -381.704)" fill="#ff8380"/>
</svg>
